  0
SECTION
  2
HEADER
  9
$ACADVER
  1
AC1014
  9
$HANDSEED
  5
FFFF
  9
$MEASUREMENT
 70
     1
  0
ENDSEC
  0
SECTION
  2
TABLES
  0
TABLE
  2
VPORT
  5
8
330
0
100
AcDbSymbolTable
 70
     4
  0
VPORT
  5
2E
330
8
100
AcDbSymbolTableRecord
100
AcDbViewportTableRecord
  2
*ACTIVE
 70
     0
 10
0.0
 20
0.0
 11
1.0
 21
1.0
 12
210.0
 22
148.5
 13
0.0
 23
0.0
 14
10.0
 24
10.0
 15
10.0
 25
10.0
 16
0.0
 26
0.0
 36
1.0
 17
0.0
 27
0.0
 37
0.0
 40
341.0
 41
1.24
 42
50.0
 43
0.0
 44
0.0
 50
0.0
 51
0.0
 71
     0
 72
   100
 73
     1
 74
     3
 75
     0
 76
     0
 77
     0
 78
     0
  0
ENDTAB
  0
TABLE
  2
LTYPE
  5
5
330
0
100
AcDbSymbolTable
 70
     1
  0
LTYPE
  5
14
330
5
100
AcDbSymbolTableRecord
100
AcDbLinetypeTableRecord
  2
BYBLOCK
 70
     0
  3

 72
    65
 73
     0
 40
0.0
  0
LTYPE
  5
15
330
5
100
AcDbSymbolTableRecord
100
AcDbLinetypeTableRecord
  2
BYLAYER
 70
     0
  3

 72
    65
 73
     0
 40
0.0
  0
LTYPE
  5
16
330
5
100
AcDbSymbolTableRecord
100
AcDbLinetypeTableRecord
  2
CONTINUOUS
 70
     0
  3
Solid line
 72
    65
 73
     0
 40
0.0
  0
ENDTAB
  0
TABLE
  2
LAYER
  5
2
100
AcDbSymbolTable
 70
2
  0
LAYER
  5
50
100
AcDbSymbolTableRecord
100
AcDbLayerTableRecord
  2
0
 70
0
  6
CONTINUOUS
  0
LAYER
  5
51
100
AcDbSymbolTableRecord
100
AcDbLayerTableRecord
  2
Layer_1
 70
0
  6
CONTINUOUS
  0
ENDTAB
  0
TABLE
  2
STYLE
  5
3
330
0
100
AcDbSymbolTable
 70
     1
  0
STYLE
  5
11
330
3
100
AcDbSymbolTableRecord
100
AcDbTextStyleTableRecord
  2
STANDARD
 70
     0
 40
0.0
 41
1.0
 50
0.0
 71
     0
 42
2.5
  3
txt
  4

  0
ENDTAB
  0
TABLE
  2
VIEW
  5
6
330
0
100
AcDbSymbolTable
 70
     0
  0
ENDTAB
  0
TABLE
  2
UCS
  5
7
330
0
100
AcDbSymbolTable
 70
     0
  0
ENDTAB
  0
TABLE
  2
APPID
  5
9
330
0
100
AcDbSymbolTable
 70
     2
  0
APPID
  5
12
330
9
100
AcDbSymbolTableRecord
100
AcDbRegAppTableRecord
  2
ACAD
 70
     0
  0
ENDTAB
  0
TABLE
  2
DIMSTYLE
  5
A
330
0
100
AcDbSymbolTable
 70
     1
  0
DIMSTYLE
105
27
330
A
100
AcDbSymbolTableRecord
100
AcDbDimStyleTableRecord
  2
ISO-25
 70
     0
  3

  4

  5

  6

  7

 40
1.0
 41
2.5
 42
0.625
 43
3.75
 44
1.25
 45
0.0
 46
0.0
 47
0.0
 48
0.0
140
2.5
141
2.5
142
0.0
143
0.03937007874016
144
1.0
145
0.0
146
1.0
147
0.625
 71
     0
 72
     0
 73
     0
 74
     0
 75
     0
 76
     0
 77
     1
 78
     8
170
     0
171
     3
172
     1
173
     0
174
     0
175
     0
176
     0
177
     0
178
     0
270
     2
271
     2
272
     2
273
     2
274
     3
340
11
275
     0
280
     0
281
     0
282
     0
283
     0
284
     8
285
     0
286
     0
287
     3
288
     0
  0
ENDTAB
  0
TABLE
  2
BLOCK_RECORD
  5
1
330
0
100
AcDbSymbolTable
 70
     1
  0
BLOCK_RECORD
  5
1F
330
1
100
AcDbSymbolTableRecord
100
AcDbBlockTableRecord
  2
*MODEL_SPACE
  0
BLOCK_RECORD
  5
1B
330
1
100
AcDbSymbolTableRecord
100
AcDbBlockTableRecord
  2
*PAPER_SPACE
  0
ENDTAB
  0
ENDSEC
  0
SECTION
  2
BLOCKS
  0
BLOCK
  5
20
330
1F
100
AcDbEntity
  8
0
100
AcDbBlockBegin
  2
*MODEL_SPACE
 70
     0
 10
0.0
 20
0.0
 30
0.0
  3
*MODEL_SPACE
  1

  0
ENDBLK
  5
21
330
1F
100
AcDbEntity
  8
0
100
AcDbBlockEnd
  0
BLOCK
  5
1C
330
1B
100
AcDbEntity
 67
     1
  8
0
100
AcDbBlockBegin
  2
*PAPER_SPACE
  1

  0
ENDBLK
  5
1D
330
1B
100
AcDbEntity
 67
     1
  8
0
100
AcDbBlockEnd
  0
ENDSEC
  0
SECTION
  2
ENTITIES
  0
SPLINE
  5
100
100
AcDbEntity
  8
Layer_1
 62
7
100
AcDbSpline
 70
8
 71
3
 72
8
 73
4
 74
0
 40
0
 40
0
 40
0
 40
0
 40
1
 40
1
 40
1
 40
1
 10
72.003673
 20
205.313946
 30
0.0
 10
71.287173
 20
202.922437
 30
0.0
 10
70.540913
 20
200.408262
 30
0.0
 10
69.781073
 20
197.834816
 30
0.0
  0
SPLINE
  5
101
100
AcDbEntity
  8
Layer_1
 62
7
100
AcDbSpline
 70
8
 71
3
 72
8
 73
4
 74
0
 40
0
 40
0
 40
0
 40
0
 40
1
 40
1
 40
1
 40
1
 10
69.781073
 20
197.834816
 30
0.0
 10
70.679353
 20
200.364455
 30
0.0
 10
71.554093
 20
202.837798
 30
0.0
 10
72.380393
 20
205.194573
 30
0.0
  0
SPLINE
  5
102
100
AcDbEntity
  8
Layer_1
 62
7
100
AcDbSpline
 70
8
 71
3
 72
8
 73
4
 74
0
 40
0
 40
0
 40
0
 40
0
 40
1
 40
1
 40
1
 40
1
 10
72.380393
 20
205.194573
 30
0.0
 10
72.255045
 20
205.235073
 30
0.0
 10
72.129470
 20
205.274864
 30
0.0
 10
72.003673
 20
205.313946
 30
0.0
  0
SPLINE
  5
103
100
AcDbEntity
  8
Layer_1
 62
7
100
AcDbSpline
 70
8
 71
3
 72
8
 73
4
 74
0
 40
0
 40
0
 40
0
 40
0
 40
1
 40
1
 40
1
 40
1
 10
69.781073
 20
197.834816
 30
0.0
 10
68.963363
 20
195.532060
 30
0.0
 10
68.179963
 20
193.315090
 30
0.0
 10
67.378123
 20
191.053320
 30
0.0
  0
SPLINE
  5
104
100
AcDbEntity
  8
Layer_1
 62
7
100
AcDbSpline
 70
8
 71
3
 72
8
 73
4
 74
0
 40
0
 40
0
 40
0
 40
0
 40
1
 40
1
 40
1
 40
1
 10
67.378123
 20
191.053320
 30
0.0
 10
65.434124
 20
191.665844
 30
0.0
 10
63.407917
 20
191.977608
 30
0.0
 10
61.369703
 20
191.977810
 30
0.0
  0
SPLINE
  5
105
100
AcDbEntity
  8
Layer_1
 62
7
100
AcDbSpline
 70
8
 71
3
 72
8
 73
4
 74
0
 40
0
 40
0
 40
0
 40
0
 40
1
 40
1
 40
1
 40
1
 10
61.369703
 20
191.977810
 30
0.0
 10
59.337858
 20
191.976550
 30
0.0
 10
57.318069
 20
191.665679
 30
0.0
 10
55.379883
 20
191.055900
 30
0.0
  0
SPLINE
  5
106
100
AcDbEntity
  8
Layer_1
 62
7
100
AcDbSpline
 70
8
 71
3
 72
8
 73
4
 74
0
 40
0
 40
0
 40
0
 40
0
 40
1
 40
1
 40
1
 40
1
 10
55.379883
 20
191.055900
 30
0.0
 10
54.578093
 20
193.317530
 30
0.0
 10
53.795093
 20
195.534350
 30
0.0
 10
52.977453
 20
197.836883
 30
0.0
  0
SPLINE
  5
107
100
AcDbEntity
  8
Layer_1
 62
7
100
AcDbSpline
 70
8
 71
3
 72
8
 73
4
 74
0
 40
0
 40
0
 40
0
 40
0
 40
1
 40
1
 40
1
 40
1
 10
52.977453
 20
197.836883
 30
0.0
 10
53.670203
 20
195.490640
 30
0.0
 10
54.340293
 20
193.233960
 30
0.0
 10
55.021773
 20
190.930320
 30
0.0
  0
SPLINE
  5
108
100
AcDbEntity
  8
Layer_1
 62
7
100
AcDbSpline
 70
8
 71
3
 72
8
 73
4
 74
0
 40
0
 40
0
 40
0
 40
0
 40
1
 40
1
 40
1
 40
1
 10
55.021773
 20
190.930320
 30
0.0
 10
51.141636
 20
189.629445
 30
0.0
 10
47.753954
 20
187.169580
 30
0.0
 10
45.315903
 20
183.882690
 30
0.0
  0
SPLINE
  5
109
100
AcDbEntity
  8
Layer_1
 62
7
100
AcDbSpline
 70
8
 71
3
 72
8
 73
4
 74
0
 40
0
 40
0
 40
0
 40
0
 40
1
 40
1
 40
1
 40
1
 10
45.315903
 20
183.882690
 30
0.0
 10
38.693773
 20
188.487510
 30
0.0
 10
39.897153
 20
187.565040
 30
0.0
 10
45.090593
 20
183.577290
 30
0.0
  0
SPLINE
  5
10a
100
AcDbEntity
  8
Layer_1
 62
7
100
AcDbSpline
 70
8
 71
3
 72
8
 73
4
 74
0
 40
0
 40
0
 40
0
 40
0
 40
1
 40
1
 40
1
 40
1
 10
45.090593
 20
183.577290
 30
0.0
 10
42.713925
 20
180.243686
 30
0.0
 10
41.417567
 20
176.261002
 30
0.0
 10
41.376603
 20
172.167130
 30
0.0
  0
SPLINE
  5
10b
100
AcDbEntity
  8
Layer_1
 62
7
100
AcDbSpline
 70
8
 71
3
 72
8
 73
4
 74
0
 40
0
 40
0
 40
0
 40
0
 40
1
 40
1
 40
1
 40
1
 10
41.376603
 20
172.167130
 30
0.0
 10
38.978273
 20
172.103430
 30
0.0
 10
36.628373
 20
172.043560
 30
0.0
 10
34.186343
 20
171.977480
 30
0.0
  0
SPLINE
  5
10c
100
AcDbEntity
  8
Layer_1
 62
7
100
AcDbSpline
 70
8
 71
3
 72
8
 73
4
 74
0
 40
0
 40
0
 40
0
 40
0
 40
1
 40
1
 40
1
 40
1
 10
34.186343
 20
171.977480
 30
0.0
 10
36.628373
 20
171.911380
 30
0.0
 10
38.978273
 20
171.852010
 30
0.0
 10
41.376603
 20
171.788340
 30
0.0
  0
SPLINE
  5
10d
100
AcDbEntity
  8
Layer_1
 62
7
100
AcDbSpline
 70
8
 71
3
 72
8
 73
4
 74
0
 40
0
 40
0
 40
0
 40
0
 40
1
 40
1
 40
1
 40
1
 10
41.376603
 20
171.788340
 30
0.0
 10
41.417463
 20
167.694294
 30
0.0
 10
42.713826
 20
163.711416
 30
0.0
 10
45.090593
 20
160.377670
 30
0.0
  0
SPLINE
  5
10e
100
AcDbEntity
  8
Layer_1
 62
7
100
AcDbSpline
 70
8
 71
3
 72
8
 73
4
 74
0
 40
0
 40
0
 40
0
 40
0
 40
1
 40
1
 40
1
 40
1
 10
45.090593
 20
160.377670
 30
0.0
 10
43.186813
 20
158.915770
 30
0.0
 10
41.320243
 20
157.485150
 30
0.0
 10
39.382413
 20
155.995510
 30
0.0
  0
SPLINE
  5
10f
100
AcDbEntity
  8
Layer_1
 62
7
100
AcDbSpline
 70
8
 71
3
 72
8
 73
4
 74
0
 40
0
 40
0
 40
0
 40
0
 40
1
 40
1
 40
1
 40
1
 10
39.382413
 20
155.995510
 30
0.0
 10
41.398763
 20
157.378710
 30
0.0
 10
43.336513
 20
158.712900
 30
0.0
 10
45.315903
 20
160.072260
 30
0.0
  0
SPLINE
  5
110
100
AcDbEntity
  8
Layer_1
 62
7
100
AcDbSpline
 70
8
 71
3
 72
8
 73
4
 74
0
 40
0
 40
0
 40
0
 40
0
 40
1
 40
1
 40
1
 40
1
 10
45.315903
 20
160.072260
 30
0.0
 10
47.753954
 20
156.785370
 30
0.0
 10
51.141636
 20
154.325505
 30
0.0
 10
55.021773
 20
153.024630
 30
0.0
  0
SPLINE
  5
111
100
AcDbEntity
  8
Layer_1
 62
7
100
AcDbSpline
 70
8
 71
3
 72
8
 73
4
 74
0
 40
0
 40
0
 40
0
 40
0
 40
1
 40
1
 40
1
 40
1
 10
55.021773
 20
153.024630
 30
0.0
 10
57.067385
 20
152.335362
 30
0.0
 10
59.211092
 20
151.981801
 30
0.0
 10
61.369703
 20
151.977670
 30
0.0
  0
SPLINE
  5
112
100
AcDbEntity
  8
Layer_1
 62
7
100
AcDbSpline
 70
8
 71
3
 72
8
 73
4
 74
0
 40
0
 40
0
 40
0
 40
0
 40
1
 40
1
 40
1
 40
1
 10
61.369703
 20
151.977670
 30
0.0
 10
63.534551
 20
151.981901
 30
0.0
 10
65.684352
 20
152.337581
 30
0.0
 10
67.735203
 20
153.030830
 30
0.0
  0
SPLINE
  5
113
100
AcDbEntity
  8
Layer_1
 62
7
100
AcDbSpline
 70
8
 71
3
 72
8
 73
4
 74
0
 40
0
 40
0
 40
0
 40
0
 40
1
 40
1
 40
1
 40
1
 10
67.735203
 20
153.030830
 30
0.0
 10
71.611590
 20
154.334588
 30
0.0
 10
74.995107
 20
156.795392
 30
0.0
 10
77.429703
 20
160.081560
 30
0.0
  0
SPLINE
  5
114
100
AcDbEntity
  8
Layer_1
 62
7
100
AcDbSpline
 70
8
 71
3
 72
8
 73
4
 74
0
 40
0
 40
0
 40
0
 40
0
 40
1
 40
1
 40
1
 40
1
 10
77.429703
 20
160.081560
 30
0.0
 10
79.412033
 20
158.720170
 30
0.0
 10
81.353353
 20
157.383560
 30
0.0
 10
83.373013
 20
155.998090
 30
0.0
  0
SPLINE
  5
115
100
AcDbEntity
  8
Layer_1
 62
7
100
AcDbSpline
 70
8
 71
3
 72
8
 73
4
 74
0
 40
0
 40
0
 40
0
 40
0
 40
1
 40
1
 40
1
 40
1
 10
83.373013
 20
155.998090
 30
0.0
 10
81.431983
 20
157.490200
 30
0.0
 10
79.561673
 20
158.922870
 30
0.0
 10
77.655013
 20
160.386970
 30
0.0
  0
SPLINE
  5
116
100
AcDbEntity
  8
Layer_1
 62
7
100
AcDbSpline
 70
8
 71
3
 72
8
 73
4
 74
0
 40
0
 40
0
 40
0
 40
0
 40
1
 40
1
 40
1
 40
1
 10
77.655013
 20
160.386970
 30
0.0
 10
80.067244
 20
163.770753
 30
0.0
 10
81.365547
 20
167.821902
 30
0.0
 10
81.369513
 20
171.977480
 30
0.0
  0
SPLINE
  5
117
100
AcDbEntity
  8
Layer_1
 62
7
100
AcDbSpline
 70
8
 71
3
 72
8
 73
4
 74
0
 40
0
 40
0
 40
0
 40
0
 40
1
 40
1
 40
1
 40
1
 10
81.369513
 20
171.977480
 30
0.0
 10
81.369055
 20
172.030192
 30
0.0
 10
81.368388
 20
172.082903
 30
0.0
 10
81.367513
 20
172.135610
 30
0.0
  0
LWPOLYLINE
  5
118
100
AcDbEntity
  8
Layer_1
 62
7
100
AcDbPolyline
 90
1
 70
1
 10
72.003673
 20
205.313946
 30
0.0
  0
SPLINE
  5
119
100
AcDbEntity
  8
Layer_1
 62
7
100
AcDbSpline
 70
8
 71
3
 72
8
 73
4
 74
0
 40
0
 40
0
 40
0
 40
0
 40
1
 40
1
 40
1
 40
1
 10
81.370513
 20
171.977480
 30
0.0
 10
81.368513
 20
171.914280
 30
0.0
 10
81.365513
 20
171.851030
 30
0.0
 10
81.363513
 20
171.787820
 30
0.0
  0
SPLINE
  5
11a
100
AcDbEntity
  8
Layer_1
 62
7
100
AcDbSpline
 70
8
 71
3
 72
8
 73
4
 74
0
 40
0
 40
0
 40
0
 40
0
 40
1
 40
1
 40
1
 40
1
 10
81.363513
 20
171.787820
 30
0.0
 10
83.767943
 20
171.851620
 30
0.0
 10
86.124293
 20
171.911220
 30
0.0
 10
88.572893
 20
171.977480
 30
0.0
  0
SPLINE
  5
11b
100
AcDbEntity
  8
Layer_1
 62
7
100
AcDbSpline
 70
8
 71
3
 72
8
 73
4
 74
0
 40
0
 40
0
 40
0
 40
0
 40
1
 40
1
 40
1
 40
1
 10
88.572893
 20
171.977480
 30
0.0
 10
86.125673
 20
172.043680
 30
0.0
 10
83.770793
 20
172.103870
 30
0.0
 10
81.367653
 20
172.167650
 30
0.0
  0
SPLINE
  5
11c
100
AcDbEntity
  8
Layer_1
 62
7
100
AcDbSpline
 70
8
 71
3
 72
8
 73
4
 74
0
 40
0
 40
0
 40
0
 40
0
 40
1
 40
1
 40
1
 40
1
 10
81.367653
 20
172.167650
 30
0.0
 10
81.329015
 20
176.259366
 30
0.0
 10
80.036255
 20
180.240775
 30
0.0
 10
77.663793
 20
183.574700
 30
0.0
  0
SPLINE
  5
11d
100
AcDbEntity
  8
Layer_1
 62
7
100
AcDbSpline
 70
8
 71
3
 72
8
 73
4
 74
0
 40
0
 40
0
 40
0
 40
0
 40
1
 40
1
 40
1
 40
1
 10
77.663793
 20
183.574700
 30
0.0
 10
79.567703
 20
185.036690
 30
0.0
 10
81.434953
 20
186.467050
 30
0.0
 10
83.373013
 20
187.956860
 30
0.0
  0
SPLINE
  5
11e
100
AcDbEntity
  8
Layer_1
 62
7
100
AcDbSpline
 70
8
 71
3
 72
8
 73
4
 74
0
 40
0
 40
0
 40
0
 40
0
 40
1
 40
1
 40
1
 40
1
 10
83.373013
 20
187.956860
 30
0.0
 10
81.356893
 20
186.573820
 30
0.0
 10
79.419113
 20
185.239770
 30
0.0
 10
77.440043
 20
183.880630
 30
0.0
  0
SPLINE
  5
11f
100
AcDbEntity
  8
Layer_1
 62
7
100
AcDbSpline
 70
8
 71
3
 72
8
 73
4
 74
0
 40
0
 40
0
 40
0
 40
0
 40
1
 40
1
 40
1
 40
1
 10
77.440043
 20
183.880630
 30
0.0
 10
75.004070
 20
187.169332
 30
0.0
 10
71.617814
 20
189.631554
 30
0.0
 10
67.738303
 20
190.934980
 30
0.0
  0
SPLINE
  5
120
100
AcDbEntity
  8
Layer_1
 62
7
100
AcDbSpline
 70
8
 71
3
 72
8
 73
4
 74
0
 40
0
 40
0
 40
0
 40
0
 40
1
 40
1
 40
1
 40
1
 10
67.738303
 20
190.934980
 30
0.0
 10
68.419153
 20
193.236490
 30
0.0
 10
69.088973
 20
195.490780
 30
0.0
 10
69.781073
 20
197.834816
 30
0.0
  0
LWPOLYLINE
  5
121
100
AcDbEntity
  8
Layer_1
 62
7
100
AcDbPolyline
 90
2
 70
0
 10
81.367513
 20
172.135610
 30
0.0
 10
81.370513
 20
171.977480
 30
0.0
  0
SPLINE
  5
122
100
AcDbEntity
  8
Layer_1
 62
7
100
AcDbSpline
 70
8
 71
3
 72
8
 73
4
 74
0
 40
0
 40
0
 40
0
 40
0
 40
1
 40
1
 40
1
 40
1
 10
83.373013
 20
187.956860
 30
0.0
 10
85.622133
 20
189.499750
 30
0.0
 10
87.822503
 20
191.013640
 30
0.0
 10
89.904913
 20
192.454780
 30
0.0
  0
SPLINE
  5
123
100
AcDbEntity
  8
Layer_1
 62
7
100
AcDbSpline
 70
8
 71
3
 72
8
 73
4
 74
0
 40
0
 40
0
 40
0
 40
0
 40
1
 40
1
 40
1
 40
1
 10
89.904913
 20
192.454780
 30
0.0
 10
89.826300
 20
192.563585
 30
0.0
 10
89.747062
 20
192.671937
 30
0.0
 10
89.667203
 20
192.779830
 30
0.0
  0
SPLINE
  5
124
100
AcDbEntity
  8
Layer_1
 62
7
100
AcDbSpline
 70
8
 71
3
 72
8
 73
4
 74
0
 40
0
 40
0
 40
0
 40
0
 40
1
 40
1
 40
1
 40
1
 10
89.667203
 20
192.779830
 30
0.0
 10
87.658973
 20
191.249050
 30
0.0
 10
85.527793
 20
189.613290
 30
0.0
 10
83.373013
 20
187.956860
 30
0.0
  0
LWPOLYLINE
  5
125
100
AcDbEntity
  8
Layer_1
 62
7
100
AcDbPolyline
 90
1
 70
1
 10
69.781073
 20
197.834816
 30
0.0
  0
SPLINE
  5
126
100
AcDbEntity
  8
Layer_1
 62
7
100
AcDbSpline
 70
8
 71
3
 72
8
 73
4
 74
0
 40
0
 40
0
 40
0
 40
0
 40
1
 40
1
 40
1
 40
1
 10
88.572173
 20
171.977480
 30
0.0
 10
91.322783
 20
171.903080
 30
0.0
 10
94.019113
 20
171.833290
 30
0.0
 10
96.570133
 20
171.774900
 30
0.0
  0
SPLINE
  5
127
100
AcDbEntity
  8
Layer_1
 62
7
100
AcDbSpline
 70
8
 71
3
 72
8
 73
4
 74
0
 40
0
 40
0
 40
0
 40
0
 40
1
 40
1
 40
1
 40
1
 10
96.570133
 20
171.774900
 30
0.0
 10
96.571882
 20
171.818650
 30
0.0
 10
96.573548
 20
171.862404
 30
0.0
 10
96.575133
 20
171.906160
 30
0.0
  0
SPLINE
  5
128
100
AcDbEntity
  8
Layer_1
 62
7
100
AcDbSpline
 70
8
 71
3
 72
8
 73
4
 74
0
 40
0
 40
0
 40
0
 40
0
 40
1
 40
1
 40
1
 40
1
 10
96.575133
 20
171.906160
 30
0.0
 10
96.574162
 20
171.998152
 30
0.0
 10
96.572829
 20
172.090139
 30
0.0
 10
96.571133
 20
172.182120
 30
0.0
  0
SPLINE
  5
129
100
AcDbEntity
  8
Layer_1
 62
7
100
AcDbSpline
 70
8
 71
3
 72
8
 73
4
 74
0
 40
0
 40
0
 40
0
 40
0
 40
1
 40
1
 40
1
 40
1
 10
96.571133
 20
172.182120
 30
0.0
 10
94.023713
 20
172.123220
 30
0.0
 10
91.309283
 20
172.051560
 30
0.0
 10
88.571623
 20
171.977480
 30
0.0
  0
LWPOLYLINE
  5
12a
100
AcDbEntity
  8
Layer_1
 62
7
100
AcDbPolyline
 90
1
 70
1
 10
83.373013
 20
187.956860
 30
0.0
  0
SPLINE
  5
12b
100
AcDbEntity
  8
Layer_1
 62
7
100
AcDbSpline
 70
8
 71
3
 72
8
 73
4
 74
0
 40
0
 40
0
 40
0
 40
0
 40
1
 40
1
 40
1
 40
1
 10
83.373013
 20
155.998090
 30
0.0
 10
85.552003
 20
154.323060
 30
0.0
 10
87.689713
 20
152.683720
 30
0.0
 10
89.717323
 20
151.138440
 30
0.0
  0
SPLINE
  5
12c
100
AcDbEntity
  8
Layer_1
 62
7
100
AcDbSpline
 70
8
 71
3
 72
8
 73
4
 74
0
 40
0
 40
0
 40
0
 40
0
 40
1
 40
1
 40
1
 40
1
 10
89.717323
 20
151.138440
 30
0.0
 10
89.798050
 20
151.246496
 30
0.0
 10
89.878151
 20
151.355018
 30
0.0
 10
89.957623
 20
151.464000
 30
0.0
  0
SPLINE
  5
12d
100
AcDbEntity
  8
Layer_1
 62
7
100
AcDbSpline
 70
8
 71
3
 72
8
 73
4
 74
0
 40
0
 40
0
 40
0
 40
0
 40
1
 40
1
 40
1
 40
1
 10
89.957623
 20
151.464000
 30
0.0
 10
87.860723
 20
152.915340
 30
0.0
 10
85.640263
 20
154.442770
 30
0.0
 10
83.373013
 20
155.998090
 30
0.0
  0
LWPOLYLINE
  5
12e
100
AcDbEntity
  8
Layer_1
 62
7
100
AcDbPolyline
 90
2
 70
0
 10
88.571623
 20
171.977480
 30
0.0
 10
88.572173
 20
171.977480
 30
0.0
  0
SPLINE
  5
12f
100
AcDbEntity
  8
Layer_1
 62
7
100
AcDbSpline
 70
8
 71
3
 72
8
 73
4
 74
0
 40
0
 40
0
 40
0
 40
0
 40
1
 40
1
 40
1
 40
1
 10
67.735203
 20
153.030830
 30
0.0
 10
67.616233
 20
152.987830
 30
0.0
 10
67.496853
 20
152.945930
 30
0.0
 10
67.377083
 20
152.905260
 30
0.0
  0
SPLINE
  5
130
100
AcDbEntity
  8
Layer_1
 62
7
100
AcDbSpline
 70
8
 71
3
 72
8
 73
4
 74
0
 40
0
 40
0
 40
0
 40
0
 40
1
 40
1
 40
1
 40
1
 10
67.377083
 20
152.905260
 30
0.0
 10
68.179113
 20
150.642970
 30
0.0
 10
68.962633
 20
148.425550
 30
0.0
 10
69.780553
 20
146.122210
 30
0.0
  0
SPLINE
  5
131
100
AcDbEntity
  8
Layer_1
 62
7
100
AcDbSpline
 70
8
 71
3
 72
8
 73
4
 74
0
 40
0
 40
0
 40
0
 40
0
 40
1
 40
1
 40
1
 40
1
 10
69.780553
 20
146.122210
 30
0.0
 10
69.087553
 20
148.469280
 30
0.0
 10
68.416883
 20
150.726540
 30
0.0
 10
67.735203
 20
153.030830
 30
0.0
  0
LWPOLYLINE
  5
132
100
AcDbEntity
  8
Layer_1
 62
7
100
AcDbPolyline
 90
1
 70
1
 10
83.373013
 20
155.998090
 30
0.0
  0
SPLINE
  5
133
100
AcDbEntity
  8
Layer_1
 62
7
100
AcDbSpline
 70
8
 71
3
 72
8
 73
4
 74
0
 40
0
 40
0
 40
0
 40
0
 40
1
 40
1
 40
1
 40
1
 10
69.780553
 20
146.122210
 30
0.0
 10
70.553573
 20
143.504140
 30
0.0
 10
71.313773
 20
140.940970
 30
0.0
 10
72.041403
 20
138.513370
 30
0.0
  0
SPLINE
  5
134
100
AcDbEntity
  8
Layer_1
 62
7
100
AcDbSpline
 70
8
 71
3
 72
8
 73
4
 74
0
 40
0
 40
0
 40
0
 40
0
 40
1
 40
1
 40
1
 40
1
 10
72.041403
 20
138.513370
 30
0.0
 10
72.168089
 20
138.556914
 30
0.0
 10
72.294525
 20
138.601184
 30
0.0
 10
72.420703
 20
138.646180
 30
0.0
  0
SPLINE
  5
135
100
AcDbEntity
  8
Layer_1
 62
7
100
AcDbSpline
 70
8
 71
3
 72
8
 73
4
 74
0
 40
0
 40
0
 40
0
 40
0
 40
1
 40
1
 40
1
 40
1
 10
72.420703
 20
138.646180
 30
0.0
 10
71.583283
 20
141.035540
 30
0.0
 10
70.693023
 20
143.552640
 30
0.0
 10
69.780553
 20
146.122210
 30
0.0
  0
LWPOLYLINE
  5
136
100
AcDbEntity
  8
Layer_1
 62
7
100
AcDbPolyline
 90
1
 70
1
 10
67.735203
 20
153.030830
 30
0.0
  0
SPLINE
  5
137
100
AcDbEntity
  8
Layer_1
 62
7
100
AcDbSpline
 70
8
 71
3
 72
8
 73
4
 74
0
 40
0
 40
0
 40
0
 40
0
 40
1
 40
1
 40
1
 40
1
 10
55.021773
 20
153.024630
 30
0.0
 10
54.340483
 20
150.721640
 30
0.0
 10
53.670533
 20
148.465750
 30
0.0
 10
52.977963
 20
146.120140
 30
0.0
  0
SPLINE
  5
138
100
AcDbEntity
  8
Layer_1
 62
7
100
AcDbSpline
 70
8
 71
3
 72
8
 73
4
 74
0
 40
0
 40
0
 40
0
 40
0
 40
1
 40
1
 40
1
 40
1
 10
52.977963
 20
146.120140
 30
0.0
 10
53.795383
 20
148.422060
 30
0.0
 10
54.578303
 20
150.638040
 30
0.0
 10
55.379883
 20
152.899060
 30
0.0
  0
SPLINE
  5
139
100
AcDbEntity
  8
Layer_1
 62
7
100
AcDbSpline
 70
8
 71
3
 72
8
 73
4
 74
0
 40
0
 40
0
 40
0
 40
0
 40
1
 40
1
 40
1
 40
1
 10
55.379883
 20
152.899060
 30
0.0
 10
55.260123
 20
152.939760
 30
0.0
 10
55.140753
 20
152.981660
 30
0.0
 10
55.021773
 20
153.024630
 30
0.0
  0
LWPOLYLINE
  5
13a
100
AcDbEntity
  8
Layer_1
 62
7
100
AcDbPolyline
 90
1
 70
1
 10
69.780553
 20
146.122210
 30
0.0
  0
SPLINE
  5
13b
100
AcDbEntity
  8
Layer_1
 62
7
100
AcDbSpline
 70
8
 71
3
 72
8
 73
4
 74
0
 40
0
 40
0
 40
0
 40
0
 40
1
 40
1
 40
1
 40
1
 10
52.977963
 20
146.120140
 30
0.0
 10
52.083033
 20
143.599930
 30
0.0
 10
51.203843
 20
141.117570
 30
0.0
 10
50.380193
 20
138.768650
 30
0.0
  0
SPLINE
  5
13c
100
AcDbEntity
  8
Layer_1
 62
7
100
AcDbSpline
 70
8
 71
3
 72
8
 73
4
 74
0
 40
0
 40
0
 40
0
 40
0
 40
1
 40
1
 40
1
 40
1
 10
50.380193
 20
138.768650
 30
0.0
 10
50.503456
 20
138.724721
 30
0.0
 10
50.626965
 20
138.681484
 30
0.0
 10
50.750713
 20
138.638940
 30
0.0
  0
SPLINE
  5
13d
100
AcDbEntity
  8
Layer_1
 62
7
100
AcDbSpline
 70
8
 71
3
 72
8
 73
4
 74
0
 40
0
 40
0
 40
0
 40
0
 40
1
 40
1
 40
1
 40
1
 10
50.750713
 20
138.638940
 30
0.0
 10
51.094473
 20
139.785940
 30
0.0
 10
51.421023
 20
140.862670
 30
0.0
 10
51.778553
 20
142.067160
 30
0.0
  0
SPLINE
  5
13e
100
AcDbEntity
  8
Layer_1
 62
7
100
AcDbSpline
 70
8
 71
3
 72
8
 73
4
 74
0
 40
0
 40
0
 40
0
 40
0
 40
1
 40
1
 40
1
 40
1
 10
51.778553
 20
142.067160
 30
0.0
 10
52.173683
 20
143.398320
 30
0.0
 10
52.574653
 20
144.754200
 30
0.0
 10
52.977963
 20
146.120140
 30
0.0
  0
LWPOLYLINE
  5
13f
100
AcDbEntity
  8
Layer_1
 62
7
100
AcDbPolyline
 90
1
 70
1
 10
55.021773
 20
153.024630
 30
0.0
  0
SPLINE
  5
140
100
AcDbEntity
  8
Layer_1
 62
7
100
AcDbSpline
 70
8
 71
3
 72
8
 73
4
 74
0
 40
0
 40
0
 40
0
 40
0
 40
1
 40
1
 40
1
 40
1
 10
39.382413
 20
155.995510
 30
0.0
 10
37.205713
 20
154.502300
 30
0.0
 10
35.084723
 20
153.042760
 30
0.0
 10
33.060833
 20
151.642800
 30
0.0
  0
SPLINE
  5
141
100
AcDbEntity
  8
Layer_1
 62
7
100
AcDbSpline
 70
8
 71
3
 72
8
 73
4
 74
0
 40
0
 40
0
 40
0
 40
0
 40
1
 40
1
 40
1
 40
1
 10
33.060833
 20
151.642800
 30
0.0
 10
33.137079
 20
151.537987
 30
0.0
 10
33.213907
 20
151.433599
 30
0.0
 10
33.291313
 20
151.329640
 30
0.0
  0
SPLINE
  5
142
100
AcDbEntity
  8
Layer_1
 62
7
100
AcDbSpline
 70
8
 71
3
 72
8
 73
4
 74
0
 40
0
 40
0
 40
0
 40
0
 40
1
 40
1
 40
1
 40
1
 10
33.291313
 20
151.329640
 30
0.0
 10
35.247573
 20
152.821430
 30
0.0
 10
37.290353
 20
154.387310
 30
0.0
 10
39.382413
 20
155.995510
 30
0.0
  0
LWPOLYLINE
  5
143
100
AcDbEntity
  8
Layer_1
 62
7
100
AcDbPolyline
 90
1
 70
1
 10
52.977963
 20
146.120140
 30
0.0
  0
SPLINE
  5
144
100
AcDbEntity
  8
Layer_1
 62
7
100
AcDbSpline
 70
8
 71
3
 72
8
 73
4
 74
0
 40
0
 40
0
 40
0
 40
0
 40
1
 40
1
 40
1
 40
1
 10
34.186343
 20
171.977480
 30
0.0
 10
31.584863
 20
172.047880
 30
0.0
 10
29.020853
 20
172.115150
 30
0.0
 10
26.584743
 20
172.172300
 30
0.0
  0
SPLINE
  5
145
100
AcDbEntity
  8
Layer_1
 62
7
100
AcDbSpline
 70
8
 71
3
 72
8
 73
4
 74
0
 40
0
 40
0
 40
0
 40
0
 40
1
 40
1
 40
1
 40
1
 10
26.584743
 20
172.172300
 30
0.0
 10
26.581072
 20
172.083600
 30
0.0
 10
26.577739
 20
171.994886
 30
0.0
 10
26.574743
 20
171.906160
 30
0.0
  0
SPLINE
  5
146
100
AcDbEntity
  8
Layer_1
 62
7
100
AcDbSpline
 70
8
 71
3
 72
8
 73
4
 74
0
 40
0
 40
0
 40
0
 40
0
 40
1
 40
1
 40
1
 40
1
 10
26.574743
 20
171.906160
 30
0.0
 10
26.576339
 20
171.865677
 30
0.0
 10
26.578006
 20
171.825197
 30
0.0
 10
26.579743
 20
171.784720
 30
0.0
  0
SPLINE
  5
147
100
AcDbEntity
  8
Layer_1
 62
7
100
AcDbSpline
 70
8
 71
3
 72
8
 73
4
 74
0
 40
0
 40
0
 40
0
 40
0
 40
1
 40
1
 40
1
 40
1
 10
26.579743
 20
171.784720
 30
0.0
 10
29.021343
 20
171.841420
 30
0.0
 10
31.570443
 20
171.906690
 30
0.0
 10
34.186513
 20
171.977480
 30
0.0
  0
LWPOLYLINE
  5
148
100
AcDbEntity
  8
Layer_1
 62
7
100
AcDbPolyline
 90
1
 70
1
 10
39.382413
 20
155.995510
 30
0.0
  0
SPLINE
  5
149
100
AcDbEntity
  8
Layer_1
 62
7
100
AcDbSpline
 70
8
 71
3
 72
8
 73
4
 74
0
 40
0
 40
0
 40
0
 40
0
 40
1
 40
1
 40
1
 40
1
 10
52.977453
 20
197.836883
 30
0.0
 10
52.230883
 20
200.365379
 30
0.0
 10
51.498363
 20
202.833450
 30
0.0
 10
50.793083
 20
205.188372
 30
0.0
  0
SPLINE
  5
14a
100
AcDbEntity
  8
Layer_1
 62
7
100
AcDbSpline
 70
8
 71
3
 72
8
 73
4
 74
0
 40
0
 40
0
 40
0
 40
0
 40
1
 40
1
 40
1
 40
1
 10
50.793083
 20
205.188372
 30
0.0
 10
50.670720
 20
205.146331
 30
0.0
 10
50.548592
 20
205.103611
 30
0.0
 10
50.426703
 20
205.060215
 30
0.0
  0
SPLINE
  5
14b
100
AcDbEntity
  8
Layer_1
 62
7
100
AcDbSpline
 70
8
 71
3
 72
8
 73
4
 74
0
 40
0
 40
0
 40
0
 40
0
 40
1
 40
1
 40
1
 40
1
 10
50.426703
 20
205.060215
 30
0.0
 10
51.239893
 20
202.741939
 30
0.0
 10
52.095823
 20
200.319613
 30
0.0
 10
52.977453
 20
197.836883
 30
0.0
  0
LWPOLYLINE
  5
14c
100
AcDbEntity
  8
Layer_1
 62
7
100
AcDbPolyline
 90
2
 70
0
 10
34.186513
 20
171.977480
 30
0.0
 10
34.186343
 20
171.977480
 30
0.0
  0
SPLINE
  5
14d
100
AcDbEntity
  8
Layer_1
 62
7
100
AcDbSpline
 70
8
 71
3
 72
8
 73
4
 74
0
 40
0
 40
0
 40
0
 40
0
 40
1
 40
1
 40
1
 40
1
 10
33.180203
 20
192.331270
 30
0.0
 10
33.177202
 20
192.327137
 30
0.0
 10
33.174202
 20
192.323004
 30
0.0
 10
33.171203
 20
192.318870
 30
0.0
  0
SPLINE
  5
14e
100
AcDbEntity
  8
Layer_1
 62
7
100
AcDbSpline
 70
8
 71
3
 72
8
 73
4
 74
0
 40
0
 40
0
 40
0
 40
0
 40
1
 40
1
 40
1
 40
1
 10
33.171203
 20
192.318870
 30
0.0
 10
33.270503
 20
192.247870
 30
0.0
 10
33.350873
 20
192.187630
 30
0.0
 10
33.450773
 20
192.116300
 30
0.0
  0
SPLINE
  5
14f
100
AcDbEntity
  8
Layer_1
 62
7
100
AcDbSpline
 70
8
 71
3
 72
8
 73
4
 74
0
 40
0
 40
0
 40
0
 40
0
 40
1
 40
1
 40
1
 40
1
 10
33.450773
 20
192.116300
 30
0.0
 10
33.357673
 20
192.188400
 30
0.0
 10
33.273253
 20
192.259080
 30
0.0
 10
33.180503
 20
192.331270
 30
0.0
  0
LWPOLYLINE
  5
150
100
AcDbEntity
  8
Layer_1
 62
7
100
AcDbPolyline
 90
1
 70
1
 10
52.977453
 20
197.836883
 30
0.0
  0
SPLINE
  5
151
100
AcDbEntity
  8
Layer_1
 62
7
100
AcDbSpline
 70
8
 71
3
 72
8
 73
4
 74
0
 40
0
 40
0
 40
0
 40
0
 40
1
 40
1
 40
1
 40
1
 10
33.450473
 20
192.116300
 30
0.0
 10
35.328403
 20
190.663160
 30
0.0
 10
37.283313
 20
189.242050
 30
0.0
 10
39.382413
 20
187.959450
 30
0.0
  0
SPLINE
  5
152
100
AcDbEntity
  8
Layer_1
 62
7
100
AcDbSpline
 70
8
 71
3
 72
8
 73
4
 74
0
 40
0
 40
0
 40
0
 40
0
 40
1
 40
1
 40
1
 40
1
 10
39.382413
 20
187.959450
 30
0.0
 10
37.340603
 20
189.360120
 30
0.0
 10
35.342573
 20
190.765380
 30
0.0
 10
33.450473
 20
192.116300
 30
0.0
  0
LWPOLYLINE
  5
153
100
AcDbEntity
  8
Layer_1
 62
7
100
AcDbPolyline
 90
2
 70
0
 10
33.180503
 20
192.331270
 30
0.0
 10
33.180203
 20
192.331270
 30
0.0
  0
SPLINE
  5
154
100
AcDbEntity
  8
Layer_1
 62
7
100
AcDbSpline
 70
8
 71
3
 72
8
 73
4
 74
0
 40
0
 40
0
 40
0
 40
0
 40
1
 40
1
 40
1
 40
1
 10
166.128440
 20
200.051068
 30
0.0
 10
146.798525
 20
200.051030
 30
0.0
 10
131.128543
 20
184.381045
 30
0.0
 10
131.128510
 20
165.051130
 30
0.0
  0
SPLINE
  5
155
100
AcDbEntity
  8
Layer_1
 62
7
100
AcDbSpline
 70
8
 71
3
 72
8
 73
4
 74
0
 40
0
 40
0
 40
0
 40
0
 40
1
 40
1
 40
1
 40
1
 10
131.128510
 20
165.051130
 30
0.0
 10
131.128548
 20
145.721218
 30
0.0
 10
146.798528
 20
130.051238
 30
0.0
 10
166.128440
 20
130.051200
 30
0.0
  0
SPLINE
  5
156
100
AcDbEntity
  8
Layer_1
 62
7
100
AcDbSpline
 70
8
 71
3
 72
8
 73
4
 74
0
 40
0
 40
0
 40
0
 40
0
 40
1
 40
1
 40
1
 40
1
 10
166.128440
 20
130.051200
 30
0.0
 10
173.409850
 20
130.058130
 30
0.0
 10
180.507816
 20
132.335844
 30
0.0
 10
186.433660
 20
136.567080
 30
0.0
  0
SPLINE
  5
157
100
AcDbEntity
  8
Layer_1
 62
7
100
AcDbSpline
 70
8
 71
3
 72
8
 73
4
 74
0
 40
0
 40
0
 40
0
 40
0
 40
1
 40
1
 40
1
 40
1
 10
186.433660
 20
136.567080
 30
0.0
 10
187.680800
 20
137.341850
 30
0.0
 10
188.979070
 20
137.960090
 30
0.0
 10
190.285100
 20
138.286870
 30
0.0
  0
SPLINE
  5
158
100
AcDbEntity
  8
Layer_1
 62
7
100
AcDbSpline
 70
8
 71
3
 72
8
 73
4
 74
0
 40
0
 40
0
 40
0
 40
0
 40
1
 40
1
 40
1
 40
1
 10
190.285100
 20
138.286870
 30
0.0
 10
195.623800
 20
139.622700
 30
0.0
 10
201.193050
 20
136.767210
 30
0.0
 10
205.913600
 20
135.735090
 30
0.0
  0
LWPOLYLINE
  5
159
100
AcDbEntity
  8
Layer_1
 62
7
100
AcDbPolyline
 90
1
 70
1
 10
33.450473
 20
192.116300
 30
0.0
  0
SPLINE
  5
15a
100
AcDbEntity
  8
Layer_1
 62
7
100
AcDbSpline
 70
8
 71
3
 72
8
 73
4
 74
0
 40
0
 40
0
 40
0
 40
0
 40
1
 40
1
 40
1
 40
1
 10
205.756510
 20
136.064270
 30
0.0
 10
208.110020
 20
135.475670
 30
0.0
 10
210.549300
 20
135.168940
 30
0.0
 10
213.025320
 20
135.168200
 30
0.0
  0
SPLINE
  5
15b
100
AcDbEntity
  8
Layer_1
 62
7
100
AcDbSpline
 70
8
 71
3
 72
8
 73
4
 74
0
 40
0
 40
0
 40
0
 40
0
 40
1
 40
1
 40
1
 40
1
 10
213.025320
 20
135.168200
 30
0.0
 10
229.594040
 20
135.168070
 30
0.0
 10
243.025670
 20
148.599710
 30
0.0
 10
243.025550
 20
165.168440
 30
0.0
  0
SPLINE
  5
15c
100
AcDbEntity
  8
Layer_1
 62
7
100
AcDbSpline
 70
8
 71
3
 72
8
 73
4
 74
0
 40
0
 40
0
 40
0
 40
0
 40
1
 40
1
 40
1
 40
1
 10
243.025550
 20
165.168440
 30
0.0
 10
243.025390
 20
181.736960
 30
0.0
 10
229.593830
 20
195.168290
 30
0.0
 10
213.025320
 20
195.168160
 30
0.0
  0
SPLINE
  5
15d
100
AcDbEntity
  8
Layer_1
 62
7
100
AcDbSpline
 70
8
 71
3
 72
8
 73
4
 74
0
 40
0
 40
0
 40
0
 40
0
 40
1
 40
1
 40
1
 40
1
 10
213.025320
 20
195.168160
 30
0.0
 10
210.654390
 20
195.168030
 30
0.0
 10
208.317380
 20
194.887630
 30
0.0
 10
206.056750
 20
194.347540
 30
0.0
  0
LWPOLYLINE
  5
15e
100
AcDbEntity
  8
Layer_1
 62
7
100
AcDbPolyline
 90
2
 70
0
 10
205.913600
 20
135.735090
 30
0.0
 10
205.756510
 20
136.064270
 30
0.0
  0
SPLINE
  5
15f
100
AcDbEntity
  8
Layer_1
 62
7
100
AcDbSpline
 70
8
 71
3
 72
8
 73
4
 74
0
 40
0
 40
0
 40
0
 40
0
 40
1
 40
1
 40
1
 40
1
 10
205.913600
 20
194.558380
 30
0.0
 10
201.865210
 20
193.274200
 30
0.0
 10
195.623800
 20
190.670780
 30
0.0
 10
190.285100
 20
192.006600
 30
0.0
  0
SPLINE
  5
160
100
AcDbEntity
  8
Layer_1
 62
7
100
AcDbSpline
 70
8
 71
3
 72
8
 73
4
 74
0
 40
0
 40
0
 40
0
 40
0
 40
1
 40
1
 40
1
 40
1
 10
190.285100
 20
192.006600
 30
0.0
 10
188.579050
 20
192.433480
 30
0.0
 10
186.910580
 20
193.293490
 30
0.0
 10
185.341730
 20
194.354260
 30
0.0
  0
LWPOLYLINE
  5
161
100
AcDbEntity
  8
Layer_1
 62
7
100
AcDbPolyline
 90
2
 70
0
 10
206.056750
 20
194.347540
 30
0.0
 10
205.913600
 20
194.558380
 30
0.0
  0
SPLINE
  5
162
100
AcDbEntity
  8
Layer_1
 62
7
100
AcDbSpline
 70
8
 71
3
 72
8
 73
4
 74
0
 40
0
 40
0
 40
0
 40
0
 40
1
 40
1
 40
1
 40
1
 10
185.342250
 20
194.302560
 30
0.0
 10
179.635507
 20
198.051932
 30
0.0
 10
172.956668
 20
200.050142
 30
0.0
 10
166.128440
 20
200.051048
 30
0.0
  0
LWPOLYLINE
  5
163
100
AcDbEntity
  8
Layer_1
 62
7
100
AcDbPolyline
 90
2
 70
0
 10
185.341730
 20
194.354260
 30
0.0
 10
185.342250
 20
194.302560
 30
0.0
  0
SPLINE
  5
164
100
AcDbEntity
  8
Layer_1
 62
7
100
AcDbSpline
 70
8
 71
3
 72
8
 73
4
 74
0
 40
0
 40
0
 40
0
 40
0
 40
1
 40
1
 40
1
 40
1
 10
605.127005
 20
235.113698
 30
0.0
 10
551.623338
 20
235.113698
 30
0.0
 10
503.387986
 20
202.883867
 30
0.0
 10
482.913019
 20
153.452924
 30
0.0
  0
SPLINE
  5
165
100
AcDbEntity
  8
Layer_1
 62
7
100
AcDbSpline
 70
8
 71
3
 72
8
 73
4
 74
0
 40
0
 40
0
 40
0
 40
0
 40
1
 40
1
 40
1
 40
1
 10
482.913019
 20
153.452924
 30
0.0
 10
462.438052
 20
104.021981
 30
0.0
 10
473.755664
 20
47.124505
 30
0.0
 10
511.588470
 20
9.291699
 30
0.0
  0
SPLINE
  5
166
100
AcDbEntity
  8
Layer_1
 62
7
100
AcDbSpline
 70
8
 71
3
 72
8
 73
4
 74
0
 40
0
 40
0
 40
0
 40
0
 40
1
 40
1
 40
1
 40
1
 10
511.588470
 20
9.291699
 30
0.0
 10
549.421276
 20
-28.541107
 30
0.0
 10
606.318752
 20
-39.858719
 30
0.0
 10
655.749695
 20
-19.383752
 30
0.0
  0
SPLINE
  5
167
100
AcDbEntity
  8
Layer_1
 62
7
100
AcDbSpline
 70
8
 71
3
 72
8
 73
4
 74
0
 40
0
 40
0
 40
0
 40
0
 40
1
 40
1
 40
1
 40
1
 10
655.749695
 20
-19.383752
 30
0.0
 10
705.180638
 20
1.091215
 30
0.0
 10
737.410469
 20
49.326567
 30
0.0
 10
737.410469
 20
102.830234
 30
0.0
  0
SPLINE
  5
168
100
AcDbEntity
  8
Layer_1
 62
7
100
AcDbSpline
 70
8
 71
3
 72
8
 73
4
 74
0
 40
0
 40
0
 40
0
 40
0
 40
1
 40
1
 40
1
 40
1
 10
737.410469
 20
102.830234
 30
0.0
 10
737.410469
 20
137.913990
 30
0.0
 10
723.473501
 20
171.560807
 30
0.0
 10
698.665540
 20
196.368769
 30
0.0
  0
SPLINE
  5
169
100
AcDbEntity
  8
Layer_1
 62
7
100
AcDbSpline
 70
8
 71
3
 72
8
 73
4
 74
0
 40
0
 40
0
 40
0
 40
0
 40
1
 40
1
 40
1
 40
1
 10
698.665540
 20
196.368769
 30
0.0
 10
673.857578
 20
221.176730
 30
0.0
 10
640.210761
 20
235.113698
 30
0.0
 10
605.127005
 20
235.113698
 30
0.0
  0
LWPOLYLINE
  5
16a
100
AcDbEntity
  8
Layer_1
 62
7
100
AcDbPolyline
 90
1
 70
1
 10
166.128440
 20
200.051048
 30
0.0
  0
SPLINE
  5
16b
100
AcDbEntity
  8
Layer_1
 62
7
100
AcDbSpline
 70
8
 71
3
 72
8
 73
4
 74
0
 40
0
 40
0
 40
0
 40
0
 40
1
 40
1
 40
1
 40
1
 10
47.804606
 20
261.594835
 30
0.0
 10
46.548330
 20
262.469267
 30
0.0
 10
45.887861
 20
262.790051
 30
0.0
 10
45.343746
 20
262.790051
 30
0.0
  0
SPLINE
  5
16c
100
AcDbEntity
  8
Layer_1
 62
7
100
AcDbSpline
 70
8
 71
3
 72
8
 73
4
 74
0
 40
0
 40
0
 40
0
 40
0
 40
1
 40
1
 40
1
 40
1
 10
45.343746
 20
262.790051
 30
0.0
 10
44.721388
 20
262.790051
 30
0.0
 10
44.620939
 20
262.855956
 30
0.0
 10
44.728203
 20
263.193916
 30
0.0
  0
SPLINE
  5
16d
100
AcDbEntity
  8
Layer_1
 62
7
100
AcDbSpline
 70
8
 71
3
 72
8
 73
4
 74
0
 40
0
 40
0
 40
0
 40
0
 40
1
 40
1
 40
1
 40
1
 10
44.728203
 20
263.193916
 30
0.0
 10
44.830200
 20
263.515282
 30
0.0
 10
44.360369
 20
263.945280
 30
0.0
 10
42.428212
 20
265.298893
 30
0.0
  0
LWPOLYLINE
  5
16e
100
AcDbEntity
  8
Layer_1
 62
7
100
AcDbPolyline
 90
1
 70
1
 10
605.127005
 20
235.113698
 30
0.0
  0
SPLINE
  5
16f
100
AcDbEntity
  8
Layer_1
 62
7
100
AcDbSpline
 70
8
 71
3
 72
8
 73
4
 74
0
 40
0
 40
0
 40
0
 40
0
 40
1
 40
1
 40
1
 40
1
 10
41.184663
 20
268.351317
 30
0.0
 10
43.838502
 20
271.378590
 30
0.0
 10
48.295056
 20
274.705161
 30
0.0
 10
51.973564
 20
276.404637
 30
0.0
  0
SPLINE
  5
170
100
AcDbEntity
  8
Layer_1
 62
7
100
AcDbSpline
 70
8
 71
3
 72
8
 73
4
 74
0
 40
0
 40
0
 40
0
 40
0
 40
1
 40
1
 40
1
 40
1
 10
51.973564
 20
276.404637
 30
0.0
 10
53.007987
 20
276.882542
 30
0.0
 10
53.888581
 20
277.273555
 30
0.0
 10
53.930435
 20
277.273555
 30
0.0
  0
SPLINE
  5
171
100
AcDbEntity
  8
Layer_1
 62
7
100
AcDbSpline
 70
8
 71
3
 72
8
 73
4
 74
0
 40
0
 40
0
 40
0
 40
0
 40
1
 40
1
 40
1
 40
1
 10
53.930435
 20
277.273555
 30
0.0
 10
54.148034
 20
277.273555
 30
0.0
 10
57.691768
 20
266.333488
 30
0.0
 10
57.523953
 20
266.179808
 30
0.0
  0
SPLINE
  5
172
100
AcDbEntity
  8
Layer_1
 62
7
100
AcDbSpline
 70
8
 71
3
 72
8
 73
4
 74
0
 40
0
 40
0
 40
0
 40
0
 40
1
 40
1
 40
1
 40
1
 10
57.523953
 20
266.179808
 30
0.0
 10
57.492767
 20
266.151249
 30
0.0
 10
57.080504
 20
265.967551
 30
0.0
 10
56.607817
 20
265.771593
 30
0.0
  0
SPLINE
  5
173
100
AcDbEntity
  8
Layer_1
 62
7
100
AcDbSpline
 70
8
 71
3
 72
8
 73
4
 74
0
 40
0
 40
0
 40
0
 40
0
 40
1
 40
1
 40
1
 40
1
 10
56.607817
 20
265.771593
 30
0.0
 10
55.190468
 20
265.184011
 30
0.0
 10
52.289000
 20
263.141872
 30
0.0
 10
50.861134
 20
261.726907
 30
0.0
  0
LWPOLYLINE
  5
174
100
AcDbEntity
  8
Layer_1
 62
7
100
AcDbPolyline
 90
3
 70
0
 10
42.428212
 20
265.298893
 30
0.0
 10
40.000041
 20
267.000003
 30
0.0
 10
41.184663
 20
268.351317
 30
0.0
  0
SPLINE
  5
175
100
AcDbEntity
  8
Layer_1
 62
7
100
AcDbSpline
 70
8
 71
3
 72
8
 73
4
 74
0
 40
0
 40
0
 40
0
 40
0
 40
1
 40
1
 40
1
 40
1
 10
59.915675
 20
270.294423
 30
0.0
 10
58.463769
 20
274.455338
 30
0.0
 10
57.352897
 20
278.236110
 30
0.0
 10
57.532711
 20
278.404661
 30
0.0
  0
SPLINE
  5
176
100
AcDbEntity
  8
Layer_1
 62
7
100
AcDbSpline
 70
8
 71
3
 72
8
 73
4
 74
0
 40
0
 40
0
 40
0
 40
0
 40
1
 40
1
 40
1
 40
1
 10
57.532711
 20
278.404661
 30
0.0
 10
57.833971
 20
278.687053
 30
0.0
 10
61.253594
 20
279.261450
 30
0.0
 10
63.675449
 20
279.436462
 30
0.0
  0
SPLINE
  5
177
100
AcDbEntity
  8
Layer_1
 62
7
100
AcDbSpline
 70
8
 71
3
 72
8
 73
4
 74
0
 40
0
 40
0
 40
0
 40
0
 40
1
 40
1
 40
1
 40
1
 10
63.675449
 20
279.436462
 30
0.0
 10
66.510828
 20
279.641356
 30
0.0
 10
70.098125
 20
279.430805
 30
0.0
 10
72.615741
 20
278.911727
 30
0.0
  0
SPLINE
  5
178
100
AcDbEntity
  8
Layer_1
 62
7
100
AcDbSpline
 70
8
 71
3
 72
8
 73
4
 74
0
 40
0
 40
0
 40
0
 40
0
 40
1
 40
1
 40
1
 40
1
 10
72.615741
 20
278.911727
 30
0.0
 10
73.577655
 20
278.713401
 30
0.0
 10
74.397469
 20
278.518908
 30
0.0
 10
74.437551
 20
278.479520
 30
0.0
  0
SPLINE
  5
179
100
AcDbEntity
  8
Layer_1
 62
7
100
AcDbSpline
 70
8
 71
3
 72
8
 73
4
 74
0
 40
0
 40
0
 40
0
 40
0
 40
1
 40
1
 40
1
 40
1
 10
74.437551
 20
278.479520
 30
0.0
 10
74.545848
 20
278.373102
 30
0.0
 10
72.849480
 20
272.842305
 30
0.0
 10
71.811038
 20
269.916105
 30
0.0
  0
LWPOLYLINE
  5
17a
100
AcDbEntity
  8
Layer_1
 62
7
100
AcDbPolyline
 90
3
 70
0
 10
50.861134
 20
261.726907
 30
0.0
 10
49.521747
 20
260.399622
 30
0.0
 10
47.804606
 20
261.594835
 30
0.0
  0
SPLINE
  5
17b
100
AcDbEntity
  8
Layer_1
 62
7
100
AcDbSpline
 70
8
 71
3
 72
8
 73
4
 74
0
 40
0
 40
0
 40
0
 40
0
 40
1
 40
1
 40
1
 40
1
 10
69.782408
 20
267.546383
 30
0.0
 10
68.347438
 20
267.777878
 30
0.0
 10
63.763579
 20
267.780857
 30
0.0
 10
62.163337
 20
267.551331
 30
0.0
  0
LWPOLYLINE
  5
17c
100
AcDbEntity
  8
Layer_1
 62
7
100
AcDbPolyline
 90
3
 70
0
 10
71.811038
 20
269.916105
 30
0.0
 10
70.905766
 20
267.365157
 30
0.0
 10
69.782408
 20
267.546383
 30
0.0
  0
SPLINE
  5
17d
100
AcDbEntity
  8
Layer_1
 62
7
100
AcDbSpline
 70
8
 71
3
 72
8
 73
4
 74
0
 40
0
 40
0
 40
0
 40
0
 40
1
 40
1
 40
1
 40
1
 10
80.891315
 20
261.811616
 30
0.0
 10
79.395136
 20
263.294765
 30
0.0
 10
77.187643
 20
264.863495
 30
0.0
 10
75.461909
 20
265.669963
 30
0.0
  0
SPLINE
  5
17e
100
AcDbEntity
  8
Layer_1
 62
7
100
AcDbSpline
 70
8
 71
3
 72
8
 73
4
 74
0
 40
0
 40
0
 40
0
 40
0
 40
1
 40
1
 40
1
 40
1
 10
75.461909
 20
265.669963
 30
0.0
 10
74.858429
 20
265.951983
 30
0.0
 10
74.344103
 20
266.188803
 30
0.0
 10
74.318965
 20
266.196236
 30
0.0
  0
SPLINE
  5
17f
100
AcDbEntity
  8
Layer_1
 62
7
100
AcDbSpline
 70
8
 71
3
 72
8
 73
4
 74
0
 40
0
 40
0
 40
0
 40
0
 40
1
 40
1
 40
1
 40
1
 10
74.318965
 20
266.196236
 30
0.0
 10
74.220664
 20
266.225295
 30
0.0
 10
76.018921
 20
272.040699
 30
0.0
 10
76.913064
 20
274.585329
 30
0.0
  0
SPLINE
  5
180
100
AcDbEntity
  8
Layer_1
 62
7
100
AcDbSpline
 70
8
 71
3
 72
8
 73
4
 74
0
 40
0
 40
0
 40
0
 40
0
 40
1
 40
1
 40
1
 40
1
 10
76.913064
 20
274.585329
 30
0.0
 10
77.550609
 20
276.399713
 30
0.0
 10
77.964071
 20
277.273555
 30
0.0
 10
78.185003
 20
277.273555
 30
0.0
  0
SPLINE
  5
181
100
AcDbEntity
  8
Layer_1
 62
7
100
AcDbSpline
 70
8
 71
3
 72
8
 73
4
 74
0
 40
0
 40
0
 40
0
 40
0
 40
1
 40
1
 40
1
 40
1
 10
78.185003
 20
277.273555
 30
0.0
 10
78.837651
 20
277.273555
 30
0.0
 10
83.411191
 20
274.813564
 30
0.0
 10
85.437121
 20
273.372823
 30
0.0
  0
SPLINE
  5
182
100
AcDbEntity
  8
Layer_1
 62
7
100
AcDbSpline
 70
8
 71
3
 72
8
 73
4
 74
0
 40
0
 40
0
 40
0
 40
0
 40
1
 40
1
 40
1
 40
1
 10
85.437121
 20
273.372823
 30
0.0
 10
87.555783
 20
271.866138
 30
0.0
 10
91.903234
 20
267.774240
 30
0.0
 10
91.773035
 20
267.409345
 30
0.0
  0
SPLINE
  5
183
100
AcDbEntity
  8
Layer_1
 62
7
100
AcDbSpline
 70
8
 71
3
 72
8
 73
4
 74
0
 40
0
 40
0
 40
0
 40
0
 40
1
 40
1
 40
1
 40
1
 10
91.773035
 20
267.409345
 30
0.0
 10
91.634473
 20
267.021005
 30
0.0
 10
83.668104
 20
261.145882
 30
0.0
 10
82.484215
 20
260.558928
 30
0.0
  0
SPLINE
  5
184
100
AcDbEntity
  8
Layer_1
 62
7
100
AcDbSpline
 70
8
 71
3
 72
8
 73
4
 74
0
 40
0
 40
0
 40
0
 40
0
 40
1
 40
1
 40
1
 40
1
 10
82.484215
 20
260.558928
 30
0.0
 10
82.363518
 20
260.499087
 30
0.0
 10
81.646714
 20
261.062798
 30
0.0
 10
80.891315
 20
261.811616
 30
0.0
  0
LWPOLYLINE
  5
185
100
AcDbEntity
  8
Layer_1
 62
7
100
AcDbPolyline
 90
3
 70
0
 10
62.163337
 20
267.551331
 30
0.0
 10
60.934353
 20
267.375058
 30
0.0
 10
59.915675
 20
270.294423
 30
0.0
  0
LWPOLYLINE
  5
186
100
AcDbEntity
  8
Layer_1
 62
7
100
AcDbPolyline
 90
1
 70
1
 10
80.891315
 20
261.811616
 30
0.0
  0
SPLINE
  5
187
100
AcDbEntity
  8
Layer_1
 62
7
100
AcDbSpline
 70
8
 71
3
 72
8
 73
4
 74
0
 40
0
 40
0
 40
0
 40
0
 40
1
 40
1
 40
1
 40
1
 10
87.304455
 20
249.249999
 30
0.0
 10
87.033017
 20
251.241816
 30
0.0
 10
86.318351
 20
253.621109
 30
0.0
 10
85.393809
 20
255.611000
 30
0.0
  0
SPLINE
  5
188
100
AcDbEntity
  8
Layer_1
 62
7
100
AcDbSpline
 70
8
 71
3
 72
8
 73
4
 74
0
 40
0
 40
0
 40
0
 40
0
 40
1
 40
1
 40
1
 40
1
 10
85.393809
 20
255.611000
 30
0.0
 10
84.874001
 20
256.729783
 30
0.0
 10
84.581745
 20
257.613697
 30
0.0
 10
84.697891
 20
257.715774
 30
0.0
  0
SPLINE
  5
189
100
AcDbEntity
  8
Layer_1
 62
7
100
AcDbSpline
 70
8
 71
3
 72
8
 73
4
 74
0
 40
0
 40
0
 40
0
 40
0
 40
1
 40
1
 40
1
 40
1
 10
84.697891
 20
257.715774
 30
0.0
 10
86.765163
 20
259.532628
 30
0.0
 10
93.754854
 20
264.384985
 30
0.0
 10
94.108972
 20
264.249098
 30
0.0
  0
SPLINE
  5
18a
100
AcDbEntity
  8
Layer_1
 62
7
100
AcDbSpline
 70
8
 71
3
 72
8
 73
4
 74
0
 40
0
 40
0
 40
0
 40
0
 40
1
 40
1
 40
1
 40
1
 10
94.108972
 20
264.249098
 30
0.0
 10
94.508237
 20
264.095886
 30
0.0
 10
97.164404
 20
258.662252
 30
0.0
 10
97.825887
 20
256.645531
 30
0.0
  0
SPLINE
  5
18b
100
AcDbEntity
  8
Layer_1
 62
7
100
AcDbSpline
 70
8
 71
3
 72
8
 73
4
 74
0
 40
0
 40
0
 40
0
 40
0
 40
1
 40
1
 40
1
 40
1
 10
97.825887
 20
256.645531
 30
0.0
 10
98.408774
 20
254.868431
 30
0.0
 10
99.148740
 20
251.359416
 30
0.0
 10
99.357665
 20
249.381642
 30
0.0
  0
LWPOLYLINE
  5
18c
100
AcDbEntity
  8
Layer_1
 62
7
100
AcDbPolyline
 90
3
 70
0
 10
88.592976
 20
248.028772
 30
0.0
 10
87.459985
 20
248.108708
 30
0.0
 10
87.304455
 20
249.249999
 30
0.0
  0
SPLINE
  5
18d
100
AcDbEntity
  8
Layer_1
 62
7
100
AcDbSpline
 70
8
 71
3
 72
8
 73
4
 74
0
 40
0
 40
0
 40
0
 40
0
 40
1
 40
1
 40
1
 40
1
 10
97.480695
 20
248.010098
 30
0.0
 10
95.475953
 20
247.867797
 30
0.0
 10
90.733381
 20
247.877761
 30
0.0
 10
88.592976
 20
248.028777
 30
0.0
  0
LWPOLYLINE
  5
18e
100
AcDbEntity
  8
Layer_1
 62
7
100
AcDbPolyline
 90
3
 70
0
 10
99.357665
 20
249.381642
 30
0.0
 10
99.487502
 20
248.152544
 30
0.0
 10
97.480695
 20
248.010098
 30
0.0
  0
SPLINE
  5
18f
100
AcDbEntity
  8
Layer_1
 62
7
100
AcDbSpline
 70
8
 71
3
 72
8
 73
4
 74
0
 40
0
 40
0
 40
0
 40
0
 40
1
 40
1
 40
1
 40
1
 10
91.152373
 20
230.060032
 30
0.0
 10
89.643674
 20
231.118828
 30
0.0
 10
87.511783
 20
232.674144
 30
0.0
 10
86.414839
 20
233.516294
 30
0.0
  0
LWPOLYLINE
  5
190
100
AcDbEntity
  8
Layer_1
 62
7
100
AcDbPolyline
 90
1
 70
1
 10
88.592976
 20
248.028777
 30
0.0
  0
SPLINE
  5
191
100
AcDbEntity
  8
Layer_1
 62
7
100
AcDbSpline
 70
8
 71
3
 72
8
 73
4
 74
0
 40
0
 40
0
 40
0
 40
0
 40
1
 40
1
 40
1
 40
1
 10
85.251360
 20
236.696861
 30
0.0
 10
86.181979
 20
238.544047
 30
0.0
 10
87.077689
 20
241.417237
 30
0.0
 10
87.314967
 20
243.316350
 30
0.0
  0
LWPOLYLINE
  5
192
100
AcDbEntity
  8
Layer_1
 62
7
100
AcDbPolyline
 90
3
 70
0
 10
86.414839
 20
233.516294
 30
0.0
 10
84.420391
 20
235.047473
 30
0.0
 10
85.251360
 20
236.696861
 30
0.0
  0
SPLINE
  5
193
100
AcDbEntity
  8
Layer_1
 62
7
100
AcDbSpline
 70
8
 71
3
 72
8
 73
4
 74
0
 40
0
 40
0
 40
0
 40
0
 40
1
 40
1
 40
1
 40
1
 10
99.383063
 20
243.204399
 30
0.0
 10
99.116035
 20
240.785245
 30
0.0
 10
98.449147
 20
237.672883
 30
0.0
 10
97.751883
 20
235.591683
 30
0.0
  0
SPLINE
  5
194
100
AcDbEntity
  8
Layer_1
 62
7
100
AcDbSpline
 70
8
 71
3
 72
8
 73
4
 74
0
 40
0
 40
0
 40
0
 40
0
 40
1
 40
1
 40
1
 40
1
 10
97.751883
 20
235.591683
 30
0.0
 10
96.861160
 20
232.933063
 30
0.0
 10
94.460127
 20
228.101200
 30
0.0
 10
94.042149
 20
228.126182
 30
0.0
  0
SPLINE
  5
195
100
AcDbEntity
  8
Layer_1
 62
7
100
AcDbSpline
 70
8
 71
3
 72
8
 73
4
 74
0
 40
0
 40
0
 40
0
 40
0
 40
1
 40
1
 40
1
 40
1
 10
94.042149
 20
228.126182
 30
0.0
 10
93.961470
 20
228.130997
 30
0.0
 10
92.661072
 20
229.001238
 30
0.0
 10
91.152373
 20
230.060032
 30
0.0
  0
LWPOLYLINE
  5
196
100
AcDbEntity
  8
Layer_1
 62
7
100
AcDbPolyline
 90
5
 70
0
 10
87.314967
 20
243.316350
 30
0.0
 10
87.472344
 20
244.575944
 30
0.0
 10
93.503399
 20
244.575944
 30
0.0
 10
99.534455
 20
244.575944
 30
0.0
 10
99.383063
 20
243.204399
 30
0.0
  0
SPLINE
  5
197
100
AcDbEntity
  8
Layer_1
 62
7
100
AcDbSpline
 70
8
 71
3
 72
8
 73
4
 74
0
 40
0
 40
0
 40
0
 40
0
 40
1
 40
1
 40
1
 40
1
 10
77.875909
 20
215.224662
 30
0.0
 10
77.823085
 20
215.375662
 30
0.0
 10
77.378794
 20
216.634849
 30
0.0
 10
76.888598
 20
218.022850
 30
0.0
  0
SPLINE
  5
198
100
AcDbEntity
  8
Layer_1
 62
7
100
AcDbSpline
 70
8
 71
3
 72
8
 73
4
 74
0
 40
0
 40
0
 40
0
 40
0
 40
1
 40
1
 40
1
 40
1
 10
76.888598
 20
218.022850
 30
0.0
 10
76.398405
 20
219.410854
 30
0.0
 10
75.645969
 20
221.721424
 30
0.0
 10
75.216521
 20
223.157455
 30
0.0
  0
SPLINE
  5
199
100
AcDbEntity
  8
Layer_1
 62
7
100
AcDbSpline
 70
8
 71
3
 72
8
 73
4
 74
0
 40
0
 40
0
 40
0
 40
0
 40
1
 40
1
 40
1
 40
1
 10
75.216521
 20
223.157455
 30
0.0
 10
74.787076
 20
224.593484
 30
0.0
 10
74.389889
 20
225.887828
 30
0.0
 10
74.333882
 20
226.033775
 30
0.0
  0
SPLINE
  5
19a
100
AcDbEntity
  8
Layer_1
 62
7
100
AcDbSpline
 70
8
 71
3
 72
8
 73
4
 74
0
 40
0
 40
0
 40
0
 40
0
 40
1
 40
1
 40
1
 40
1
 10
74.333882
 20
226.033775
 30
0.0
 10
74.275047
 20
226.187098
 30
0.0
 10
74.730752
 20
226.543121
 30
0.0
 10
75.413221
 20
226.877023
 30
0.0
  0
SPLINE
  5
19b
100
AcDbEntity
  8
Layer_1
 62
7
100
AcDbSpline
 70
8
 71
3
 72
8
 73
4
 74
0
 40
0
 40
0
 40
0
 40
0
 40
1
 40
1
 40
1
 40
1
 10
75.413221
 20
226.877023
 30
0.0
 10
77.358099
 20
227.828562
 30
0.0
 10
79.152333
 20
229.081005
 30
0.0
 10
80.807588
 20
230.642488
 30
0.0
  0
LWPOLYLINE
  5
19c
100
AcDbEntity
  8
Layer_1
 62
7
100
AcDbPolyline
 90
1
 70
1
 10
91.152373
 20
230.060032
 30
0.0
  0
SPLINE
  5
19d
100
AcDbEntity
  8
Layer_1
 62
7
100
AcDbSpline
 70
8
 71
3
 72
8
 73
4
 74
0
 40
0
 40
0
 40
0
 40
0
 40
1
 40
1
 40
1
 40
1
 10
84.402781
 20
230.735582
 30
0.0
 10
85.520095
 20
229.975463
 30
0.0
 10
87.706159
 20
228.383849
 30
0.0
 10
89.260700
 20
227.198658
 30
0.0
  0
LWPOLYLINE
  5
19e
100
AcDbEntity
  8
Layer_1
 62
7
100
AcDbPolyline
 90
3
 70
0
 10
80.807588
 20
230.642488
 30
0.0
 10
82.371299
 20
232.117612
 30
0.0
 10
84.402781
 20
230.735582
 30
0.0
  0
SPLINE
  5
19f
100
AcDbEntity
  8
Layer_1
 62
7
100
AcDbSpline
 70
8
 71
3
 72
8
 73
4
 74
0
 40
0
 40
0
 40
0
 40
0
 40
1
 40
1
 40
1
 40
1
 10
89.694489
 20
222.685406
 30
0.0
 10
86.375651
 20
219.414133
 30
0.0
 10
83.299693
 20
217.302948
 30
0.0
 10
79.240575
 20
215.510362
 30
0.0
  0
SPLINE
  5
1a0
100
AcDbEntity
  8
Layer_1
 62
7
100
AcDbSpline
 70
8
 71
3
 72
8
 73
4
 74
0
 40
0
 40
0
 40
0
 40
0
 40
1
 40
1
 40
1
 40
1
 10
79.240575
 20
215.510362
 30
0.0
 10
78.310829
 20
215.099768
 30
0.0
 10
77.946302
 20
215.023452
 30
0.0
 10
77.875909
 20
215.224662
 30
0.0
  0
LWPOLYLINE
  5
1a1
100
AcDbEntity
  8
Layer_1
 62
7
100
AcDbPolyline
 90
3
 70
0
 10
89.260700
 20
227.198658
 30
0.0
 10
92.087138
 20
225.043767
 30
0.0
 10
89.694489
 20
222.685406
 30
0.0
  0
SPLINE
  5
1a2
100
AcDbEntity
  8
Layer_1
 62
7
100
AcDbSpline
 70
8
 71
3
 72
8
 73
4
 74
0
 40
0
 40
0
 40
0
 40
0
 40
1
 40
1
 40
1
 40
1
 10
62.733980
 20
212.989740
 30
0.0
 10
60.786512
 20
213.212786
 30
0.0
 10
57.357528
 20
213.871485
 30
0.0
 10
57.357528
 20
214.022541
 30
0.0
  0
SPLINE
  5
1a3
100
AcDbEntity
  8
Layer_1
 62
7
100
AcDbSpline
 70
8
 71
3
 72
8
 73
4
 74
0
 40
0
 40
0
 40
0
 40
0
 40
1
 40
1
 40
1
 40
1
 10
57.357528
 20
214.022541
 30
0.0
 10
57.357528
 20
214.360625
 30
0.0
 10
59.061317
 20
219.844274
 30
0.0
 10
59.950270
 20
222.367279
 30
0.0
  0
SPLINE
  5
1a4
100
AcDbEntity
  8
Layer_1
 62
7
100
AcDbSpline
 70
8
 71
3
 72
8
 73
4
 74
0
 40
0
 40
0
 40
0
 40
0
 40
1
 40
1
 40
1
 40
1
 10
59.950270
 20
222.367279
 30
0.0
 10
60.864482
 20
224.961974
 30
0.0
 10
61.027034
 20
225.271939
 30
0.0
 10
61.417297
 20
225.164698
 30
0.0
  0
SPLINE
  5
1a5
100
AcDbEntity
  8
Layer_1
 62
7
100
AcDbSpline
 70
8
 71
3
 72
8
 73
4
 74
0
 40
0
 40
0
 40
0
 40
0
 40
1
 40
1
 40
1
 40
1
 10
61.417297
 20
225.164698
 30
0.0
 10
61.658689
 20
225.098367
 30
0.0
 10
62.811172
 20
224.937333
 30
0.0
 10
63.978371
 20
224.806851
 30
0.0
  0
SPLINE
  5
1a6
100
AcDbEntity
  8
Layer_1
 62
7
100
AcDbSpline
 70
8
 71
3
 72
8
 73
4
 74
0
 40
0
 40
0
 40
0
 40
0
 40
1
 40
1
 40
1
 40
1
 10
63.978371
 20
224.806851
 30
0.0
 10
65.960140
 20
224.585308
 30
0.0
 10
68.875308
 20
224.750919
 30
0.0
 10
70.436474
 20
225.173739
 30
0.0
  0
SPLINE
  5
1a7
100
AcDbEntity
  8
Layer_1
 62
7
100
AcDbSpline
 70
8
 71
3
 72
8
 73
4
 74
0
 40
0
 40
0
 40
0
 40
0
 40
1
 40
1
 40
1
 40
1
 10
70.436474
 20
225.173739
 30
0.0
 10
70.856945
 20
225.287618
 30
0.0
 10
70.995605
 20
225.014123
 30
0.0
 10
72.022879
 20
222.044721
 30
0.0
  0
SPLINE
  5
1a8
100
AcDbEntity
  8
Layer_1
 62
7
100
AcDbSpline
 70
8
 71
3
 72
8
 73
4
 74
0
 40
0
 40
0
 40
0
 40
0
 40
1
 40
1
 40
1
 40
1
 10
72.022879
 20
222.044721
 30
0.0
 10
73.404623
 20
218.050698
 30
0.0
 10
74.565011
 20
214.090269
 30
0.0
 10
74.401427
 20
213.926685
 30
0.0
  0
SPLINE
  5
1a9
100
AcDbEntity
  8
Layer_1
 62
7
100
AcDbSpline
 70
8
 71
3
 72
8
 73
4
 74
0
 40
0
 40
0
 40
0
 40
0
 40
1
 40
1
 40
1
 40
1
 10
74.401427
 20
213.926685
 30
0.0
 10
74.194333
 20
213.719590
 30
0.0
 10
71.616111
 20
213.239655
 30
0.0
 10
69.380903
 20
212.992116
 30
0.0
  0
SPLINE
  5
1aa
100
AcDbEntity
  8
Layer_1
 62
7
100
AcDbSpline
 70
8
 71
3
 72
8
 73
4
 74
0
 40
0
 40
0
 40
0
 40
0
 40
1
 40
1
 40
1
 40
1
 10
69.380903
 20
212.992116
 30
0.0
 10
67.001386
 20
212.728596
 30
0.0
 10
65.020258
 20
212.727887
 30
0.0
 10
62.733980
 20
212.989734
 30
0.0
  0
LWPOLYLINE
  5
1ab
100
AcDbEntity
  8
Layer_1
 62
7
100
AcDbPolyline
 90
1
 70
1
 10
77.875909
 20
215.224662
 30
0.0
  0
SPLINE
  5
1ac
100
AcDbEntity
  8
Layer_1
 62
7
100
AcDbSpline
 70
8
 71
3
 72
8
 73
4
 74
0
 40
0
 40
0
 40
0
 40
0
 40
1
 40
1
 40
1
 40
1
 10
51.670023
 20
216.160382
 30
0.0
 10
47.860073
 20
218.014725
 30
0.0
 10
44.631405
 20
220.388048
 30
0.0
 10
41.812720
 20
223.406266
 30
0.0
  0
SPLINE
  5
1ad
100
AcDbEntity
  8
Layer_1
 62
7
100
AcDbSpline
 70
8
 71
3
 72
8
 73
4
 74
0
 40
0
 40
0
 40
0
 40
0
 40
1
 40
1
 40
1
 40
1
 10
41.812720
 20
223.406266
 30
0.0
 10
40.948085
 20
224.332110
 30
0.0
 10
40.240656
 20
225.166738
 30
0.0
 10
40.240656
 20
225.260993
 30
0.0
  0
SPLINE
  5
1ae
100
AcDbEntity
  8
Layer_1
 62
7
100
AcDbSpline
 70
8
 71
3
 72
8
 73
4
 74
0
 40
0
 40
0
 40
0
 40
0
 40
1
 40
1
 40
1
 40
1
 10
40.240656
 20
225.260993
 30
0.0
 10
40.240656
 20
225.468249
 30
0.0
 10
45.380801
 20
229.353060
 30
0.0
 10
47.773901
 20
230.954456
 30
0.0
  0
LWPOLYLINE
  5
1af
100
AcDbEntity
  8
Layer_1
 62
7
100
AcDbPolyline
 90
1
 70
1
 10
62.733980
 20
212.989734
 30
0.0
  0
SPLINE
  5
1b0
100
AcDbEntity
  8
Layer_1
 62
7
100
AcDbSpline
 70
8
 71
3
 72
8
 73
4
 74
0
 40
0
 40
0
 40
0
 40
0
 40
1
 40
1
 40
1
 40
1
 10
50.846161
 20
230.817121
 30
0.0
 10
52.603759
 20
229.147061
 30
0.0
 10
54.044233
 20
228.114148
 30
0.0
 10
56.004377
 20
227.118344
 30
0.0
  0
SPLINE
  5
1b1
100
AcDbEntity
  8
Layer_1
 62
7
100
AcDbSpline
 70
8
 71
3
 72
8
 73
4
 74
0
 40
0
 40
0
 40
0
 40
0
 40
1
 40
1
 40
1
 40
1
 10
56.004377
 20
227.118344
 30
0.0
 10
57.189459
 20
226.516293
 30
0.0
 10
57.562908
 20
226.221470
 30
0.0
 10
57.480413
 20
225.953074
 30
0.0
  0
SPLINE
  5
1b2
100
AcDbEntity
  8
Layer_1
 62
7
100
AcDbSpline
 70
8
 71
3
 72
8
 73
4
 74
0
 40
0
 40
0
 40
0
 40
0
 40
1
 40
1
 40
1
 40
1
 10
57.480413
 20
225.953074
 30
0.0
 10
57.419670
 20
225.755459
 30
0.0
 10
57.165789
 20
224.902517
 30
0.0
 10
56.916229
 20
224.057644
 30
0.0
  0
SPLINE
  5
1b3
100
AcDbEntity
  8
Layer_1
 62
7
100
AcDbSpline
 70
8
 71
3
 72
8
 73
4
 74
0
 40
0
 40
0
 40
0
 40
0
 40
1
 40
1
 40
1
 40
1
 10
56.916229
 20
224.057644
 30
0.0
 10
56.115415
 20
221.346538
 30
0.0
 10
53.976438
 20
215.170039
 30
0.0
 10
53.838371
 20
215.170039
 30
0.0
  0
SPLINE
  5
1b4
100
AcDbEntity
  8
Layer_1
 62
7
100
AcDbSpline
 70
8
 71
3
 72
8
 73
4
 74
0
 40
0
 40
0
 40
0
 40
0
 40
1
 40
1
 40
1
 40
1
 10
53.838371
 20
215.170039
 30
0.0
 10
53.764904
 20
215.170039
 30
0.0
 10
52.789147
 20
215.615695
 30
0.0
 10
51.670023
 20
216.160382
 30
0.0
  0
LWPOLYLINE
  5
1b5
100
AcDbEntity
  8
Layer_1
 62
7
100
AcDbPolyline
 90
3
 70
0
 10
47.773901
 20
230.954456
 30
0.0
 10
49.491801
 20
232.104028
 30
0.0
 10
50.846161
 20
230.817121
 30
0.0
  0
SPLINE
  5
1b6
100
AcDbEntity
  8
Layer_1
 62
7
100
AcDbSpline
 70
8
 71
3
 72
8
 73
4
 74
0
 40
0
 40
0
 40
0
 40
0
 40
1
 40
1
 40
1
 40
1
 10
37.002693
 20
229.927854
 30
0.0
 10
35.879653
 20
231.908027
 30
0.0
 10
34.720598
 20
234.712187
 30
0.0
 10
34.006205
 20
237.177411
 30
0.0
  0
SPLINE
  5
1b7
100
AcDbEntity
  8
Layer_1
 62
7
100
AcDbSpline
 70
8
 71
3
 72
8
 73
4
 74
0
 40
0
 40
0
 40
0
 40
0
 40
1
 40
1
 40
1
 40
1
 10
34.006205
 20
237.177411
 30
0.0
 10
33.503869
 20
238.910868
 30
0.0
 10
32.779456
 20
243.004866
 30
0.0
 10
32.779456
 20
244.110351
 30
0.0
  0
SPLINE
  5
1b8
100
AcDbEntity
  8
Layer_1
 62
7
100
AcDbSpline
 70
8
 71
3
 72
8
 73
4
 74
0
 40
0
 40
0
 40
0
 40
0
 40
1
 40
1
 40
1
 40
1
 10
32.779456
 20
244.110351
 30
0.0
 10
32.779456
 20
244.573070
 30
0.0
 10
32.815175
 20
244.575944
 30
0.0
 10
38.564695
 20
244.575944
 30
0.0
  0
LWPOLYLINE
  5
1b9
100
AcDbEntity
  8
Layer_1
 62
7
100
AcDbPolyline
 90
1
 70
1
 10
51.670023
 20
216.160382
 30
0.0
  0
SPLINE
  5
1ba
100
AcDbEntity
  8
Layer_1
 62
7
100
AcDbSpline
 70
8
 71
3
 72
8
 73
4
 74
0
 40
0
 40
0
 40
0
 40
0
 40
1
 40
1
 40
1
 40
1
 10
44.623944
 20
242.875229
 30
0.0
 10
44.992194
 20
240.589578
 30
0.0
 10
45.609551
 20
238.656765
 30
0.0
 10
46.604083
 20
236.675851
 30
0.0
  0
LWPOLYLINE
  5
1bb
100
AcDbEntity
  8
Layer_1
 62
7
100
AcDbPolyline
 90
3
 70
0
 10
38.564695
 20
244.575944
 30
0.0
 10
44.349934
 20
244.575944
 30
0.0
 10
44.623944
 20
242.875229
 30
0.0
  0
SPLINE
  5
1bc
100
AcDbEntity
  8
Layer_1
 62
7
100
AcDbSpline
 70
8
 71
3
 72
8
 73
4
 74
0
 40
0
 40
0
 40
0
 40
0
 40
1
 40
1
 40
1
 40
1
 10
44.768174
 20
233.015909
 30
0.0
 10
41.999976
 20
230.921642
 30
0.0
 10
38.285536
 20
228.336861
 30
0.0
 10
38.044180
 20
228.336861
 30
0.0
  0
SPLINE
  5
1bd
100
AcDbEntity
  8
Layer_1
 62
7
100
AcDbSpline
 70
8
 71
3
 72
8
 73
4
 74
0
 40
0
 40
0
 40
0
 40
0
 40
1
 40
1
 40
1
 40
1
 10
38.044180
 20
228.336861
 30
0.0
 10
37.967636
 20
228.336861
 30
0.0
 10
37.498966
 20
229.052808
 30
0.0
 10
37.002693
 20
229.927854
 30
0.0
  0
LWPOLYLINE
  5
1be
100
AcDbEntity
  8
Layer_1
 62
7
100
AcDbPolyline
 90
3
 70
0
 10
46.604083
 20
236.675851
 30
0.0
 10
47.430393
 20
235.029997
 30
0.0
 10
44.768174
 20
233.015909
 30
0.0
  0
LWPOLYLINE
  5
1bf
100
AcDbEntity
  8
Layer_1
 62
7
100
AcDbPolyline
 90
1
 70
1
 10
37.002693
 20
229.927854
 30
0.0
  0
SPLINE
  5
1c0
100
AcDbEntity
  8
Layer_1
 62
7
100
AcDbSpline
 70
8
 71
3
 72
8
 73
4
 74
0
 40
0
 40
0
 40
0
 40
0
 40
1
 40
1
 40
1
 40
1
 10
32.887001
 20
249.470807
 30
0.0
 10
33.407421
 20
254.256820
 30
0.0
 10
35.002030
 20
259.024607
 30
0.0
 10
37.541543
 20
263.387609
 30
0.0
  0
LWPOLYLINE
  5
1c1
100
AcDbEntity
  8
Layer_1
 62
7
100
AcDbPolyline
 90
3
 70
0
 10
33.911418
 20
248.030135
 30
0.0
 10
32.739186
 20
248.111431
 30
0.0
 10
32.887001
 20
249.470807
 30
0.0
  0
SPLINE
  5
1c2
100
AcDbEntity
  8
Layer_1
 62
7
100
AcDbSpline
 70
8
 71
3
 72
8
 73
4
 74
0
 40
0
 40
0
 40
0
 40
0
 40
1
 40
1
 40
1
 40
1
 10
39.247407
 20
263.452628
 30
0.0
 10
39.888958
 20
262.978688
 30
0.0
 10
41.031059
 20
262.192005
 30
0.0
 10
41.785412
 20
261.704444
 30
0.0
  0
SPLINE
  5
1c3
100
AcDbEntity
  8
Layer_1
 62
7
100
AcDbSpline
 70
8
 71
3
 72
8
 73
4
 74
0
 40
0
 40
0
 40
0
 40
0
 40
1
 40
1
 40
1
 40
1
 10
41.785412
 20
261.704444
 30
0.0
 10
43.018265
 20
260.907612
 30
0.0
 10
43.183600
 20
260.854404
 30
0.0
 10
43.420429
 20
261.178286
 30
0.0
  0
SPLINE
  5
1c4
100
AcDbEntity
  8
Layer_1
 62
7
100
AcDbSpline
 70
8
 71
3
 72
8
 73
4
 74
0
 40
0
 40
0
 40
0
 40
0
 40
1
 40
1
 40
1
 40
1
 10
43.420429
 20
261.178286
 30
0.0
 10
43.651410
 20
261.494172
 30
0.0
 10
43.699860
 20
261.460165
 30
0.0
 10
43.813332
 20
260.902505
 30
0.0
  0
SPLINE
  5
1c5
100
AcDbEntity
  8
Layer_1
 62
7
100
AcDbSpline
 70
8
 71
3
 72
8
 73
4
 74
0
 40
0
 40
0
 40
0
 40
0
 40
1
 40
1
 40
1
 40
1
 10
43.813332
 20
260.902505
 30
0.0
 10
43.907050
 20
260.441916
 30
0.0
 10
44.424811
 20
259.887159
 30
0.0
 10
45.689866
 20
258.891884
 30
0.0
  0
LWPOLYLINE
  5
1c6
100
AcDbEntity
  8
Layer_1
 62
7
100
AcDbPolyline
 90
3
 70
0
 10
37.541543
 20
263.387609
 30
0.0
 10
38.080952
 20
264.314339
 30
0.0
 10
39.247407
 20
263.452628
 30
0.0
  0
SPLINE
  5
1c7
100
AcDbEntity
  8
Layer_1
 62
7
100
AcDbSpline
 70
8
 71
3
 72
8
 73
4
 74
0
 40
0
 40
0
 40
0
 40
0
 40
1
 40
1
 40
1
 40
1
 10
46.780573
 20
256.305457
 30
0.0
 10
45.890706
 20
254.662493
 30
0.0
 10
44.955364
 20
251.842198
 30
0.0
 10
44.628990
 20
249.817877
 30
0.0
  0
LWPOLYLINE
  5
1c8
100
AcDbEntity
  8
Layer_1
 62
7
100
AcDbPolyline
 90
3
 70
0
 10
45.689866
 20
258.891884
 30
0.0
 10
47.436968
 20
257.517360
 30
0.0
 10
46.780573
 20
256.305457
 30
0.0
  0
SPLINE
  5
1c9
100
AcDbEntity
  8
Layer_1
 62
7
100
AcDbSpline
 70
8
 71
3
 72
8
 73
4
 74
0
 40
0
 40
0
 40
0
 40
0
 40
1
 40
1
 40
1
 40
1
 10
42.705929
 20
248.007439
 30
0.0
 10
41.040052
 20
247.866620
 30
0.0
 10
36.084771
 20
247.879407
 30
0.0
 10
33.911418
 20
248.030140
 30
0.0
  0
LWPOLYLINE
  5
1ca
100
AcDbEntity
  8
Layer_1
 62
7
100
AcDbPolyline
 90
3
 70
0
 10
44.628990
 20
249.817877
 30
0.0
 10
44.359636
 20
248.147229
 30
0.0
 10
42.705929
 20
248.007439
 30
0.0
  0
SPLINE
  5
1cb
100
AcDbEntity
  8
Layer_1
 62
7
100
AcDbSpline
 70
8
 71
3
 72
8
 73
4
 74
0
 40
0
 40
0
 40
0
 40
0
 40
1
 40
1
 40
1
 40
1
 10
60.214836
 20
121.315970
 30
0.0
 10
40.884924
 20
121.315932
 30
0.0
 10
25.214945
 20
105.645952
 30
0.0
 10
25.214907
 20
86.316040
 30
0.0
  0
SPLINE
  5
1cc
100
AcDbEntity
  8
Layer_1
 62
7
100
AcDbSpline
 70
8
 71
3
 72
8
 73
4
 74
0
 40
0
 40
0
 40
0
 40
0
 40
1
 40
1
 40
1
 40
1
 10
25.214907
 20
86.316040
 30
0.0
 10
25.214945
 20
66.986128
 30
0.0
 10
40.884924
 20
51.316148
 30
0.0
 10
60.214836
 20
51.316110
 30
0.0
  0
SPLINE
  5
1cd
100
AcDbEntity
  8
Layer_1
 62
7
100
AcDbSpline
 70
8
 71
3
 72
8
 73
4
 74
0
 40
0
 40
0
 40
0
 40
0
 40
1
 40
1
 40
1
 40
1
 10
60.214836
 20
51.316110
 30
0.0
 10
67.496246
 20
51.323040
 30
0.0
 10
74.594212
 20
53.600754
 30
0.0
 10
80.520056
 20
57.831990
 30
0.0
  0
SPLINE
  5
1ce
100
AcDbEntity
  8
Layer_1
 62
7
100
AcDbSpline
 70
8
 71
3
 72
8
 73
4
 74
0
 40
0
 40
0
 40
0
 40
0
 40
1
 40
1
 40
1
 40
1
 10
80.520056
 20
57.831990
 30
0.0
 10
81.767204
 20
58.606760
 30
0.0
 10
83.065472
 20
59.225000
 30
0.0
 10
84.371501
 20
59.551780
 30
0.0
  0
SPLINE
  5
1cf
100
AcDbEntity
  8
Layer_1
 62
7
100
AcDbSpline
 70
8
 71
3
 72
8
 73
4
 74
0
 40
0
 40
0
 40
0
 40
0
 40
1
 40
1
 40
1
 40
1
 10
84.371501
 20
59.551780
 30
0.0
 10
89.710200
 20
60.887610
 30
0.0
 10
95.279454
 20
58.032120
 30
0.0
 10
100.000000
 20
57.000000
 30
0.0
  0
LWPOLYLINE
  5
1d0
100
AcDbEntity
  8
Layer_1
 62
7
100
AcDbPolyline
 90
1
 70
1
 10
33.911418
 20
248.030140
 30
0.0
  0
SPLINE
  5
1d1
100
AcDbEntity
  8
Layer_1
 62
7
100
AcDbSpline
 70
8
 71
3
 72
8
 73
4
 74
0
 40
0
 40
0
 40
0
 40
0
 40
1
 40
1
 40
1
 40
1
 10
99.842910
 20
57.329180
 30
0.0
 10
102.196420
 20
56.740580
 30
0.0
 10
104.635700
 20
56.433850
 30
0.0
 10
107.111720
 20
56.433110
 30
0.0
  0
SPLINE
  5
1d2
100
AcDbEntity
  8
Layer_1
 62
7
100
AcDbSpline
 70
8
 71
3
 72
8
 73
4
 74
0
 40
0
 40
0
 40
0
 40
0
 40
1
 40
1
 40
1
 40
1
 10
107.111720
 20
56.433110
 30
0.0
 10
123.680440
 20
56.432980
 30
0.0
 10
137.112070
 20
69.864620
 30
0.0
 10
137.111950
 20
86.433350
 30
0.0
  0
SPLINE
  5
1d3
100
AcDbEntity
  8
Layer_1
 62
7
100
AcDbSpline
 70
8
 71
3
 72
8
 73
4
 74
0
 40
0
 40
0
 40
0
 40
0
 40
1
 40
1
 40
1
 40
1
 10
137.111950
 20
86.433350
 30
0.0
 10
137.111790
 20
103.001870
 30
0.0
 10
123.680230
 20
116.433200
 30
0.0
 10
107.111720
 20
116.433070
 30
0.0
  0
SPLINE
  5
1d4
100
AcDbEntity
  8
Layer_1
 62
7
100
AcDbSpline
 70
8
 71
3
 72
8
 73
4
 74
0
 40
0
 40
0
 40
0
 40
0
 40
1
 40
1
 40
1
 40
1
 10
107.111720
 20
116.433070
 30
0.0
 10
104.740790
 20
116.432940
 30
0.0
 10
102.403780
 20
116.152540
 30
0.0
 10
100.143150
 20
115.612450
 30
0.0
  0
LWPOLYLINE
  5
1d5
100
AcDbEntity
  8
Layer_1
 62
7
100
AcDbPolyline
 90
2
 70
0
 10
100.000000
 20
57.000000
 30
0.0
 10
99.842910
 20
57.329180
 30
0.0
  0
SPLINE
  5
1d6
100
AcDbEntity
  8
Layer_1
 62
7
100
AcDbSpline
 70
8
 71
3
 72
8
 73
4
 74
0
 40
0
 40
0
 40
0
 40
0
 40
1
 40
1
 40
1
 40
1
 10
100.000000
 20
115.823290
 30
0.0
 10
95.951614
 20
114.539110
 30
0.0
 10
89.710200
 20
111.935680
 30
0.0
 10
84.371501
 20
113.271500
 30
0.0
  0
SPLINE
  5
1d7
100
AcDbEntity
  8
Layer_1
 62
7
100
AcDbSpline
 70
8
 71
3
 72
8
 73
4
 74
0
 40
0
 40
0
 40
0
 40
0
 40
1
 40
1
 40
1
 40
1
 10
84.371501
 20
113.271500
 30
0.0
 10
82.665451
 20
113.698380
 30
0.0
 10
80.996984
 20
114.558390
 30
0.0
 10
79.428134
 20
115.619160
 30
0.0
  0
LWPOLYLINE
  5
1d8
100
AcDbEntity
  8
Layer_1
 62
7
100
AcDbPolyline
 90
2
 70
0
 10
100.143150
 20
115.612450
 30
0.0
 10
100.000000
 20
115.823290
 30
0.0
  0
SPLINE
  5
1d9
100
AcDbEntity
  8
Layer_1
 62
7
100
AcDbSpline
 70
8
 71
3
 72
8
 73
4
 74
0
 40
0
 40
0
 40
0
 40
0
 40
1
 40
1
 40
1
 40
1
 10
79.428650
 20
115.567460
 30
0.0
 10
73.721907
 20
119.316833
 30
0.0
 10
67.043066
 20
121.315044
 30
0.0
 10
60.214836
 20
121.315950
 30
0.0
  0
LWPOLYLINE
  5
1da
100
AcDbEntity
  8
Layer_1
 62
7
100
AcDbPolyline
 90
2
 70
0
 10
79.428134
 20
115.619160
 30
0.0
 10
79.428650
 20
115.567460
 30
0.0
  0
LWPOLYLINE
  5
1db
100
AcDbEntity
  8
Layer_1
 62
7
100
AcDbPolyline
 90
1
 70
1
 10
60.214836
 20
121.315950
 30
0.0
  0
ENDSEC
  0
SECTION
  2
OBJECTS
  0
DICTIONARY
  5
C
330
0
100
AcDbDictionary
  3
ACAD_GROUP
350
D
  3
ACAD_MLINESTYLE
350
17
  0
DICTIONARY
  5
D
330
C
100
AcDbDictionary
  0
DICTIONARY
  5
1A
330
C
100
AcDbDictionary
  0
DICTIONARY
  5
17
330
C
100
AcDbDictionary
  3
STANDARD
350
18
  0
DICTIONARY
  5
19
330
C
100
AcDbDictionary
  0
ENDSEC
  0
EOF
