<?xml version="1.0" encoding="UTF-8" standalone="no"?>
<svg
   width="210mm"
   height="297mm"
   viewBox="0 0 210 297"
   version="1.1"
   id="svg8"
   inkscape:version="1.1 (c4e8f9e, 2021-05-24)"
   sodipodi:docname="edge_circle.svg"
   xmlns:inkscape="http://www.inkscape.org/namespaces/inkscape"
   xmlns:sodipodi="http://sodipodi.sourceforge.net/DTD/sodipodi-0.dtd"
   xmlns="http://www.w3.org/2000/svg"
   xmlns:svg="http://www.w3.org/2000/svg"
   xmlns:rdf="http://www.w3.org/1999/02/22-rdf-syntax-ns#"
   xmlns:cc="http://creativecommons.org/ns#"
   xmlns:dc="http://purl.org/dc/elements/1.1/">
  <defs
     id="defs2">
    <marker
       inkscape:isstock="true"
       inkscape:stockid="Arrow1Lstart"
       orient="auto"
       refY="0.0"
       refX="0.0"
       id="marker5368"
       style="overflow:visible">
      <path
         id="path5366"
         d="M 0.0,0.0 L 5.0,-5.0 L -12.5,0.0 L 5.0,5.0 L 0.0,0.0 z "
         style="fill-rule:evenodd;stroke:#000000;stroke-width:1pt;stroke-opacity:1;fill:#000000;fill-opacity:1"
         transform="scale(0.8) translate(12.5,0)" />
    </marker>
    <marker
       style="overflow:visible"
       id="marker1629"
       refX="0.0"
       refY="0.0"
       orient="auto"
       inkscape:stockid="Arrow1Lstart"
       inkscape:isstock="true">
      <path
         transform="scale(0.8) translate(12.5,0)"
         style="fill-rule:evenodd;stroke:#000000;stroke-width:1pt;stroke-opacity:1;fill:#000000;fill-opacity:1"
         d="M 0.0,0.0 L 5.0,-5.0 L -12.5,0.0 L 5.0,5.0 L 0.0,0.0 z "
         id="path1627" />
    </marker>
    <marker
       style="overflow:visible"
       id="marker3329"
       refX="0.0"
       refY="0.0"
       orient="auto"
       inkscape:stockid="Arrow1Lstart"
       inkscape:isstock="true">
      <path
         transform="scale(0.8) translate(12.5,0)"
         style="fill-rule:evenodd;stroke:#000000;stroke-width:1pt;stroke-opacity:1;fill:#000000;fill-opacity:1"
         d="M 0.0,0.0 L 5.0,-5.0 L -12.5,0.0 L 5.0,5.0 L 0.0,0.0 z "
         id="path3327" />
    </marker>
    <marker
       style="overflow:visible"
       id="marker3319"
       refX="0.0"
       refY="0.0"
       orient="auto"
       inkscape:stockid="Arrow1Lstart"
       inkscape:isstock="true">
      <path
         transform="scale(0.8) translate(12.5,0)"
         style="fill-rule:evenodd;stroke:#000000;stroke-width:1pt;stroke-opacity:1;fill:#000000;fill-opacity:1"
         d="M 0.0,0.0 L 5.0,-5.0 L -12.5,0.0 L 5.0,5.0 L 0.0,0.0 z "
         id="path3317" />
    </marker>
    <marker
       style="overflow:visible"
       id="marker2419"
       refX="0.0"
       refY="0.0"
       orient="auto"
       inkscape:stockid="Arrow1Lstart"
       inkscape:isstock="true">
      <path
         transform="scale(0.8) translate(12.5,0)"
         style="fill-rule:evenodd;stroke:#000000;stroke-width:1pt;stroke-opacity:1;fill:#000000;fill-opacity:1"
         d="M 0.0,0.0 L 5.0,-5.0 L -12.5,0.0 L 5.0,5.0 L 0.0,0.0 z "
         id="path2417" />
    </marker>
    <marker
       style="overflow:visible"
       id="marker2409"
       refX="0.0"
       refY="0.0"
       orient="auto"
       inkscape:stockid="Arrow1Lstart"
       inkscape:isstock="true">
      <path
         transform="scale(0.8) translate(12.5,0)"
         style="fill-rule:evenodd;stroke:#000000;stroke-width:1pt;stroke-opacity:1;fill:#000000;fill-opacity:1"
         d="M 0.0,0.0 L 5.0,-5.0 L -12.5,0.0 L 5.0,5.0 L 0.0,0.0 z "
         id="path2407" />
    </marker>
  </defs>
  <sodipodi:namedview
     id="base"
     pagecolor="#ffffff"
     bordercolor="#666666"
     borderopacity="1.0"
     inkscape:pageopacity="0.0"
     inkscape:pageshadow="2"
     inkscape:zoom="1.1770888"
     inkscape:cx="263.36161"
     inkscape:cy="193.69821"
     inkscape:document-units="mm"
     inkscape:current-layer="layer1"
     inkscape:document-rotation="0"
     showgrid="true"
     inkscape:snap-global="false"
     inkscape:window-width="1375"
     inkscape:window-height="760"
     inkscape:window-x="168"
     inkscape:window-y="25"
     inkscape:window-maximized="0"
     inkscape:pagecheckerboard="0"
     inkscape:snap-bbox="true"
     showguides="false">
    <inkscape:grid
       spacingy="10"
       spacingx="10"
       units="mm"
       id="grid5023"
       type="xygrid" />
  </sodipodi:namedview>
  <metadata
     id="metadata5">
    <rdf:RDF>
      <cc:Work
         rdf:about="">
        <dc:format>image/svg+xml</dc:format>
        <dc:type
           rdf:resource="http://purl.org/dc/dcmitype/StillImage" />
      </cc:Work>
    </rdf:RDF>
  </metadata>
  <g
     inkscape:label="Layer 1"
     inkscape:groupmode="layer"
     id="layer1">
    <path
       id="path4505"
       style="color:#000000;fill:none;stroke:#000000;stroke-width:3;stroke-miterlimit:4;stroke-dasharray:none;stroke-opacity:1"
       d="m 72.003673,91.686054 c -0.7165,2.391509 -1.46276,4.905684 -2.2226,7.47913 0.89828,-2.529639 1.77302,-5.002982 2.59932,-7.359757 -0.125348,-0.0405 -0.250923,-0.08029 -0.37672,-0.119373 z m -2.2226,7.47913 c -0.81771,2.302756 -1.60111,4.519726 -2.40295,6.781496 -1.943999,-0.61252 -3.970206,-0.92429 -6.00842,-0.92449 -2.031845,0.001 -4.051634,0.31213 -5.98982,0.92191 -0.80179,-2.26163 -1.58479,-4.47845 -2.40243,-6.780983 0.69275,2.346243 1.36284,4.602923 2.04432,6.906563 -3.880137,1.30087 -7.267819,3.76074 -9.70587,7.04763 -8.510973,-5.96526 -8.853051,-5.97544 -0.22531,0.3054 -2.376668,3.3336 -3.673026,7.31629 -3.71399,11.41016 -2.39833,0.0637 -4.74823,0.12357 -7.19026,0.18965 2.44203,0.0661 4.79193,0.12547 7.19026,0.18914 0.04086,4.09405 1.337223,8.07692 3.71399,11.41067 -1.90378,1.4619 -3.77035,2.89252 -5.70818,4.38216 2.01635,-1.3832 3.9541,-2.71739 5.93349,-4.07675 2.438051,3.28689 5.825733,5.74676 9.70587,7.04763 2.045612,0.68927 4.189319,1.04283 6.34793,1.04696 2.164848,-0.004 4.314649,-0.35991 6.3655,-1.05316 3.876387,-1.30376 7.259904,-3.76456 9.6945,-7.05073 1.98233,1.36139 3.92365,2.698 5.94331,4.08347 -1.94103,-1.49211 -3.81134,-2.92478 -5.718,-4.38888 2.412231,-3.38378 3.710534,-7.43493 3.7145,-11.59051 -4.58e-4,-0.0527 -0.0011,-0.10542 -0.002,-0.15813 l 0.003,0.15813 c -0.002,0.0632 -0.005,0.12645 -0.007,0.18966 2.40443,-0.0638 4.76078,-0.1234 7.20938,-0.18966 -2.44722,-0.0662 -4.8021,-0.12639 -7.20524,-0.19017 -0.03864,-4.09172 -1.331398,-8.07312 -3.70386,-11.40705 1.90391,-1.46199 3.77116,-2.89235 5.70922,-4.38216 -2.01612,1.38304 -3.9539,2.71709 -5.93297,4.07623 -2.435973,-3.2887 -5.822229,-5.75092 -9.70174,-7.05435 0.68085,-2.30151 1.35067,-4.5558 2.04277,-6.899836 z m 13.59194,9.877956 c 2.24912,-1.54289 4.44949,-3.05678 6.5319,-4.49792 -0.07861,-0.1088 -0.157851,-0.21716 -0.23771,-0.32505 -2.00823,1.53078 -4.13941,3.16654 -6.29419,4.82297 z m 5.19916,15.97938 c 2.75061,0.0744 5.44694,0.14419 7.99796,0.20258 0.0017,-0.0438 0.0034,-0.0875 0.005,-0.13126 -9.71e-4,-0.092 -0.0023,-0.18398 -0.004,-0.27596 -2.54742,0.0589 -5.26185,0.13056 -7.99951,0.20464 z m -5.19916,15.97939 c 2.17899,1.67503 4.3167,3.31437 6.34431,4.85965 0.08073,-0.10806 0.160828,-0.21658 0.2403,-0.32556 -2.0969,-1.45134 -4.31736,-2.97877 -6.58461,-4.53409 z m -15.63781,2.96726 c -0.11897,0.043 -0.23835,0.0849 -0.35812,0.12557 0.80203,2.26229 1.58555,4.47971 2.40347,6.78305 -0.693,-2.34707 -1.36367,-4.60433 -2.04535,-6.90862 z m 2.04535,6.90862 c 0.77302,2.61807 1.53322,5.18124 2.26085,7.60884 0.126686,-0.0435 0.253122,-0.0878 0.3793,-0.13281 -0.83742,-2.38936 -1.72768,-4.90646 -2.64015,-7.47603 z m -14.75878,-6.90242 c -0.68129,2.30299 -1.35124,4.55888 -2.04381,6.90449 0.81742,-2.30192 1.60034,-4.5179 2.40192,-6.77892 -0.11976,-0.0407 -0.23913,-0.0826 -0.35811,-0.12557 z m -2.04381,6.90449 c -0.89493,2.52021 -1.77412,5.00257 -2.59777,7.35149 0.123263,0.0439 0.246772,0.0872 0.37052,0.12971 0.34376,-1.147 0.67031,-2.22373 1.02784,-3.42822 0.39513,-1.33116 0.7961,-2.68704 1.19941,-4.05298 z m -13.59555,-9.87537 c -2.1767,1.49321 -4.29769,2.95275 -6.32158,4.35271 0.07625,0.10481 0.153074,0.2092 0.23048,0.31316 1.95626,-1.49179 3.99904,-3.05767 6.0911,-4.66587 z m -5.19607,-15.98197 c -2.60148,-0.0704 -5.16549,-0.13767 -7.6016,-0.19482 -0.0037,0.0887 -0.007,0.17741 -0.01,0.26614 0.0016,0.0405 0.0033,0.081 0.005,0.12144 2.4416,-0.0567 4.9907,-0.12197 7.60677,-0.19276 z m 18.79111,-25.859403 c -0.74657,-2.528496 -1.47909,-4.996567 -2.18437,-7.351489 -0.122363,0.04204 -0.244491,0.08476 -0.36638,0.128157 0.81319,2.318276 1.66912,4.740602 2.55075,7.223332 z m -19.79725,5.505613 0.04067,-0.0522 c 0.0993,0.071 0.130001,0.19581 0.229901,0.26714 -0.0931,-0.0721 -0.217255,-0.0931 -0.310005,-0.1653 z m 0.27027,0.21497 c 1.87793,1.45314 3.83284,2.87425 5.93194,4.15685 -2.04181,-1.40067 -4.03984,-2.80593 -5.93194,-4.15685 z"
       inkscape:export-filename="/Users/test/Dropbox/kicad/555_ Roulette/v1/path4505.png"
       inkscape:export-xdpi="302.09399"
       inkscape:export-ydpi="302.09399"
       sodipodi:nodetypes="cccccccccccccccccccccccccccccccccccccccsccccscccccccccccccccccccscccccsccccscccccccccccc" />
    <path
       id="path6735"
       style="fill:none;stroke:#000000;stroke-width:0.2;stroke-miterlimit:4;stroke-dasharray:none"
       d="m 166.12844,96.948932 a 34.999998,34.999998 0 0 0 -34.99993,34.999938 34.999998,34.999998 0 0 0 34.99993,34.99993 34.999998,34.999998 0 0 0 20.30522,-6.51588 c 1.24714,-0.77477 2.54541,-1.39301 3.85144,-1.71979 5.3387,-1.33583 10.90795,1.51966 15.6285,2.55178 l -0.15709,-0.32918 c 2.35351,0.5886 4.79279,0.89533 7.26881,0.89607 16.56872,1.3e-4 30.00035,-13.43151 30.00023,-30.00024 -1.6e-4,-16.56852 -13.43172,-29.99985 -30.00023,-29.99972 -2.37093,1.3e-4 -4.70794,0.28053 -6.96857,0.82062 l -0.14315,-0.21084 c -4.04839,1.28418 -10.2898,3.8876 -15.6285,2.55178 -1.70605,-0.42688 -3.37452,-1.28689 -4.94337,-2.34766 l 5.2e-4,0.0517 a 34.999998,34.999998 0 0 0 -19.21381,-5.748488 z" />
    <circle
       style="fill:none;fill-opacity:1;stroke:#000000;stroke-width:3;stroke-miterlimit:4;stroke-dasharray:none;stroke-opacity:1"
       id="path4994"
       cx="160.10652"
       cy="51.374084"
       r="35" />
    <g
       id="g5667"
       transform="translate(-84.076141,1.8415127)"
       inkscape:export-filename="/Users/test/Dropbox/kicad/555_ Roulette/v1/g5667.png"
       inkscape:export-xdpi="302.09399"
       inkscape:export-ydpi="302.09399">
      <path
         style="fill:#000000;fill-opacity:1;stroke:none;stroke-width:9.40429;stroke-miterlimit:4;stroke-dasharray:none;stroke-opacity:1"
         d="m 498.44677,126.85476 c -4.74813,-3.30494 -8.55753,-5.73858 -8.55753,-5.73858 l -2.32646,-1.52642 c 0,0 -2.1336,-1.61857 -9.43624,-6.73459 l -9.17734,-6.42939 4.47731,-5.10733 c 10.03026,-11.441662 26.87393,-24.01453 40.77695,-30.437743 3.90963,-1.806256 7.23786,-3.284102 7.39605,-3.284102 0.82242,0 14.21606,41.348285 13.5818,41.929125 -0.11787,0.10794 -1.67603,0.80223 -3.46256,1.54286 -5.35691,2.22078 -16.32309,9.9391 -21.71975,15.287 l -5.06225,5.01651 z"
         id="path5113"
         transform="scale(0.26458333)"
         sodipodi:nodetypes="sccscsssssscs" />
      <path
         style="fill:#000000;fill-opacity:1;stroke:none;stroke-width:9.40429;stroke-miterlimit:4;stroke-dasharray:none;stroke-opacity:1"
         d="m 544.22089,93.974427 c -5.48752,-15.726294 -9.68609,-30.015823 -9.00648,-30.652868 1.13862,-1.067309 14.06318,-3.238258 23.21665,-3.89972 10.71639,-0.774404 24.27468,0.02138 33.79008,1.983251 3.63558,0.749578 6.73409,1.484671 6.88558,1.633539 0.40931,0.402208 -6.00216,21.30601 -9.92698,32.365663 l -3.4215,9.641378 -4.24576,-0.68495 c -5.42351,-0.87494 -22.74833,-0.8862 -28.79649,-0.0187 l -4.64498,0.66623 z"
         id="path5226"
         transform="scale(0.26458333)" />
      <path
         style="fill:#000000;fill-opacity:1;stroke:none;stroke-width:9.40429;stroke-miterlimit:4;stroke-dasharray:none;stroke-opacity:1"
         d="m 623.4989,126.03543 c -5.65485,-5.6056 -13.99813,-11.53466 -20.52059,-14.58273 -2.28087,-1.0659 -4.22478,-1.96097 -4.31979,-1.98906 -0.37153,-0.10983 6.42503,-22.08931 9.80447,-31.706809 2.40962,-6.857517 3.97231,-10.160226 4.80733,-10.160226 2.4667,0 19.75252,9.297605 27.40958,14.742924 8.00754,5.694557 24.43885,21.160001 23.94676,22.539131 -0.5237,1.46774 -30.63281,23.67293 -35.10735,25.89134 -0.45618,0.22617 -3.16536,-1.90439 -6.02041,-4.73457 z"
         id="path5265"
         transform="scale(0.26458333)" />
      <path
         style="fill:#000000;fill-opacity:1;stroke:none;stroke-width:9.40429;stroke-miterlimit:4;stroke-dasharray:none;stroke-opacity:1"
         d="m 652.60754,178.12807 -4.28217,-0.30212 -0.58783,-4.31354 c -1.02591,-7.52813 -3.72701,-16.52073 -7.22134,-24.04158 -1.96463,-4.22847 -3.06922,-7.56925 -2.63024,-7.95505 7.81331,-6.86685 34.23104,-25.20647 35.56944,-24.69288 1.50903,0.57907 11.54809,21.11564 14.04818,28.73789 2.20304,6.7166 4.99976,19.97902 5.7894,27.45407 l 0.49072,4.64541 -7.58478,0.53838 c -7.57698,0.53783 -25.50166,0.50017 -33.59138,-0.0706 z"
         id="path5304"
         transform="scale(0.26458333)" />
      <path
         style="fill:#000000;fill-opacity:1;stroke:none;stroke-width:9.40429;stroke-miterlimit:4;stroke-dasharray:none;stroke-opacity:1"
         d="m 662.28085,246.04142 c -5.70217,-4.00175 -13.75971,-9.88011 -17.90564,-13.06304 l -7.53807,-5.78713 3.14067,-6.23391 c 3.5173,-6.98149 6.90266,-17.84079 7.79946,-25.01854 l 0.59481,-4.76067 h 22.79454 22.79454 l -0.57219,5.18379 c -1.00924,9.14326 -3.52976,20.90652 -6.16509,28.77247 -3.36651,10.04833 -12.44128,28.31049 -14.02104,28.21607 -0.30493,-0.0182 -5.21982,-3.3073 -10.92199,-7.30904 z"
         id="path5343"
         transform="scale(0.26458333)" />
      <path
         style="fill:#000000;fill-opacity:1;stroke:none;stroke-width:9.40429;stroke-miterlimit:4;stroke-dasharray:none;stroke-opacity:1"
         d="m 612.10209,302.11211 c -0.19965,-0.57071 -1.87886,-5.32984 -3.73157,-10.57583 -1.8527,-5.246 -4.69655,-13.97886 -6.31966,-19.40638 -1.6231,-5.42751 -3.12428,-10.31952 -3.33596,-10.87113 -0.22237,-0.57949 1.49998,-1.92509 4.07939,-3.18708 7.35072,-3.59637 14.13208,-8.33001 20.38816,-14.23168 l 5.91009,-5.57527 7.67804,5.22342 c 4.22292,2.87289 12.48521,8.88844 18.36064,13.3679 l 10.6826,8.14447 -9.04308,8.91349 c -12.54364,12.36387 -24.16931,20.34315 -39.51086,27.11828 -3.514,1.55185 -4.89174,1.84029 -5.15779,1.07981 z"
         id="path5382"
         transform="scale(0.26458333)" />
      <path
         style="fill:#000000;fill-opacity:1;stroke:none;stroke-width:9.40429;stroke-miterlimit:4;stroke-dasharray:none;stroke-opacity:1"
         d="m 554.87275,310.55906 c -7.36051,-0.84301 -20.32045,-3.33258 -20.32045,-3.9035 0,-1.2778 6.43952,-22.0034 9.79934,-31.53917 3.45529,-9.80672 4.06966,-10.97824 5.54467,-10.57292 0.91235,0.2507 5.26819,0.85933 9.67965,1.35249 7.49015,0.83733 18.50811,0.2114 24.40858,-1.38666 1.58918,-0.43041 2.11325,0.60327 5.99586,11.82621 5.22234,15.09552 9.60806,30.06407 8.98979,30.68234 -0.78272,0.78272 -10.52718,2.59665 -18.97521,3.53223 -8.99345,0.99598 -16.48118,0.99866 -25.12223,0.009 z"
         id="path5421"
         transform="scale(0.26458333)" />
      <path
         style="fill:#000000;fill-opacity:1;stroke:none;stroke-width:9.40429;stroke-miterlimit:4;stroke-dasharray:none;stroke-opacity:1"
         d="m 513.05622,298.57553 c -14.39981,-7.00854 -26.60265,-15.97858 -37.25595,-27.38602 -3.26791,-3.49925 -5.94166,-6.65375 -5.94166,-7.00999 0,-0.78333 19.42732,-15.46608 28.47211,-21.5186 l 6.49285,-4.34484 5.11884,4.8639 c 6.64289,6.31204 12.0872,10.21596 19.49562,13.97963 4.47905,2.27547 5.89051,3.38976 5.57872,4.40417 -0.22958,0.74689 -1.18913,3.97061 -2.13235,7.16383 -3.0267,10.2467 -11.11102,33.59095 -11.63285,33.59095 -0.27767,0 -3.96557,-1.68437 -8.19533,-3.74303 z"
         id="path5460"
         transform="scale(0.26458333)" />
      <path
         style="fill:#000000;fill-opacity:1;stroke:none;stroke-width:9.40429;stroke-miterlimit:4;stroke-dasharray:none;stroke-opacity:1"
         d="m 457.62064,246.54099 c -4.24456,-7.48412 -8.62524,-18.08252 -11.32531,-27.3999 -1.89859,-6.55165 -4.63653,-22.02503 -4.63653,-26.20324 0,-1.74886 0.135,-1.75972 21.86547,-1.75972 h 21.86547 l 1.03563,6.4279 c 1.39181,8.63868 3.72513,15.9438 7.48399,23.43072 l 3.12306,6.22055 -10.06193,7.6123 c -10.46248,7.91534 -24.50131,17.68459 -25.41352,17.68459 -0.2893,0 -2.06065,-2.70594 -3.93633,-6.0132 z"
         id="path5499"
         transform="scale(0.26458333)" />
      <path
         style="fill:#000000;fill-opacity:1;stroke:none;stroke-width:9.40429;stroke-miterlimit:4;stroke-dasharray:none;stroke-opacity:1"
         d="m 445.93708,178.12292 -4.43048,-0.30726 0.55867,-5.1378 c 1.96694,-18.08887 7.99381,-36.10885 17.59197,-52.59894 l 2.03871,-3.5026 4.40865,3.25686 c 2.42476,1.79127 6.74136,4.76456 9.59246,6.60731 4.6596,3.01165 5.64862,3.58154 5.64862,3.58154 l 1.48499,1.04232 c 0,0 2.84207,2.24462 7.62338,6.00629 l 6.60322,5.19505 -2.48086,4.58042 c -3.36328,6.20963 -6.89843,16.86901 -8.13197,24.51999 l -1.01803,6.31426 -6.25023,0.52834 c -6.29623,0.53223 -25.02485,0.4839 -33.2391,-0.0858 z"
         id="path5538"
         transform="scale(0.26458333)"
         sodipodi:nodetypes="ccsscssccscsscssc" />
    </g>
    <path
       id="path5829"
       style="fill:none;stroke:#000000;stroke-width:0.2;stroke-miterlimit:4;stroke-dasharray:none"
       d="m 60.214836,175.68403 a 34.999998,34.999998 0 0 0 -34.999929,34.99993 34.999998,34.999998 0 0 0 34.999929,34.99993 34.999998,34.999998 0 0 0 20.30522,-6.51588 c 1.247148,-0.77477 2.545416,-1.39301 3.851445,-1.71979 C 89.7102,236.11239 95.279454,238.96788 100,240 l -0.15709,-0.32918 c 2.35351,0.5886 4.79279,0.89533 7.26881,0.89607 16.56872,1.3e-4 30.00035,-13.43151 30.00023,-30.00024 -1.6e-4,-16.56852 -13.43172,-29.99985 -30.00023,-29.99972 -2.37093,1.3e-4 -4.70794,0.28053 -6.96857,0.82062 L 100,181.17671 c -4.048386,1.28418 -10.2898,3.88761 -15.628499,2.55179 -1.70605,-0.42688 -3.374517,-1.28689 -4.943367,-2.34766 l 5.16e-4,0.0517 a 34.999998,34.999998 0 0 0 -19.213814,-5.74849 z" />
  </g>
</svg>
