%TF.GenerationSoftware,KiCad,Pcbnew,(5.1.9-0-10_14)*%
%TF.CreationDate,2021-08-25T11:14:01+08:00*%
%TF.ProjectId,osc_bjt_4017,6f73635f-626a-4745-9f34-3031372e6b69,rev?*%
%TF.SameCoordinates,Original*%
%TF.FileFunction,Copper,L1,Top*%
%TF.FilePolarity,Positive*%
%FSLAX46Y46*%
G04 Gerber Fmt 4.6, Leading zero omitted, Abs format (unit mm)*
G04 Created by KiCad (PCBNEW (5.1.9-0-10_14)) date 2021-08-25 11:14:01*
%MOMM*%
%LPD*%
G01*
G04 APERTURE LIST*
%TA.AperFunction,ComponentPad*%
%ADD10O,2.200000X3.500000*%
%TD*%
%TA.AperFunction,ComponentPad*%
%ADD11O,1.500000X2.500000*%
%TD*%
%TA.AperFunction,ComponentPad*%
%ADD12R,1.500000X2.500000*%
%TD*%
%TA.AperFunction,ComponentPad*%
%ADD13O,1.600000X1.600000*%
%TD*%
%TA.AperFunction,ComponentPad*%
%ADD14C,1.600000*%
%TD*%
%TA.AperFunction,ComponentPad*%
%ADD15C,0.100000*%
%TD*%
%TA.AperFunction,ComponentPad*%
%ADD16C,1.700000*%
%TD*%
%TA.AperFunction,ComponentPad*%
%ADD17C,1.800000*%
%TD*%
%TA.AperFunction,ComponentPad*%
%ADD18R,1.800000X1.800000*%
%TD*%
%TA.AperFunction,ComponentPad*%
%ADD19R,1.800000X1.100000*%
%TD*%
%TA.AperFunction,ComponentPad*%
%ADD20C,3.000000*%
%TD*%
%TA.AperFunction,ComponentPad*%
%ADD21R,3.000000X3.000000*%
%TD*%
%TA.AperFunction,ComponentPad*%
%ADD22O,2.400000X1.600000*%
%TD*%
%TA.AperFunction,ComponentPad*%
%ADD23R,2.400000X1.600000*%
%TD*%
%TA.AperFunction,ComponentPad*%
%ADD24C,2.000000*%
%TD*%
%TA.AperFunction,Conductor*%
%ADD25C,0.250000*%
%TD*%
G04 APERTURE END LIST*
D10*
%TO.P,SW4,*%
%TO.N,*%
X111750000Y-111300000D03*
X119950000Y-111300000D03*
D11*
%TO.P,SW4,3*%
%TO.N,Net-(SW4-Pad3)*%
X113850000Y-111300000D03*
%TO.P,SW4,2*%
%TO.N,+3V0*%
X115850000Y-111300000D03*
D12*
%TO.P,SW4,1*%
%TO.N,Net-(BT1-Pad1)*%
X117850000Y-111300000D03*
%TD*%
D10*
%TO.P,SW3,*%
%TO.N,*%
X119850000Y-159150000D03*
X111650000Y-159150000D03*
D11*
%TO.P,SW3,3*%
%TO.N,Net-(LS1-Pad1)*%
X117750000Y-159150000D03*
%TO.P,SW3,2*%
%TO.N,Net-(C2-Pad2)*%
X115750000Y-159150000D03*
D12*
%TO.P,SW3,1*%
%TO.N,Net-(R5-Pad1)*%
X113750000Y-159150000D03*
%TD*%
D13*
%TO.P,R5,2*%
%TO.N,GNDREF*%
X123400000Y-157960000D03*
D14*
%TO.P,R5,1*%
%TO.N,Net-(R5-Pad1)*%
X123400000Y-160500000D03*
%TD*%
D13*
%TO.P,R4,2*%
%TO.N,GNDREF*%
X92260000Y-135900000D03*
D14*
%TO.P,R4,1*%
%TO.N,Net-(D1-Pad1)*%
X94800000Y-135900000D03*
%TD*%
%TO.P,R3,2*%
%TO.N,Net-(C1-Pad2)*%
%TA.AperFunction,ComponentPad*%
G36*
G01*
X142030366Y-112530366D02*
X142030366Y-112530366D01*
G75*
G02*
X143161736Y-112530366I565685J-565685D01*
G01*
X143161736Y-112530366D01*
G75*
G02*
X143161736Y-113661736I-565685J-565685D01*
G01*
X143161736Y-113661736D01*
G75*
G02*
X142030366Y-113661736I-565685J565685D01*
G01*
X142030366Y-113661736D01*
G75*
G02*
X142030366Y-112530366I565685J565685D01*
G01*
G37*
%TD.AperFunction*%
%TO.P,R3,1*%
%TO.N,Net-(C2-Pad1)*%
X140800000Y-111300000D03*
%TD*%
%TO.P,R2,2*%
%TO.N,Net-(C3-Pad2)*%
%TA.AperFunction,ComponentPad*%
G36*
G01*
X147330366Y-115130366D02*
X147330366Y-115130366D01*
G75*
G02*
X148461736Y-115130366I565685J-565685D01*
G01*
X148461736Y-115130366D01*
G75*
G02*
X148461736Y-116261736I-565685J-565685D01*
G01*
X148461736Y-116261736D01*
G75*
G02*
X147330366Y-116261736I-565685J565685D01*
G01*
X147330366Y-116261736D01*
G75*
G02*
X147330366Y-115130366I565685J565685D01*
G01*
G37*
%TD.AperFunction*%
%TO.P,R2,1*%
%TO.N,Net-(C1-Pad2)*%
X146100000Y-113900000D03*
%TD*%
D13*
%TO.P,R1,2*%
%TO.N,Net-(C3-Pad1)*%
X137900000Y-158160000D03*
D14*
%TO.P,R1,1*%
%TO.N,+3V0*%
X137900000Y-160700000D03*
%TD*%
%TO.P,C3,2*%
%TO.N,Net-(C3-Pad2)*%
X144517767Y-155982233D03*
%TA.AperFunction,ComponentPad*%
D15*
%TO.P,C3,1*%
%TO.N,Net-(C3-Pad1)*%
G36*
X142750000Y-158881371D02*
G01*
X141618629Y-157750000D01*
X142750000Y-156618629D01*
X143881371Y-157750000D01*
X142750000Y-158881371D01*
G37*
%TD.AperFunction*%
%TD*%
D16*
%TO.P,SW1,1*%
%TO.N,Net-(C3-Pad2)*%
X123500000Y-131700000D03*
%TO.P,SW1,2*%
%TO.N,Net-(C3-Pad1)*%
X123500000Y-138200000D03*
%TO.P,SW1,3*%
%TO.N,N/C*%
X119000000Y-131700000D03*
%TO.P,SW1,4*%
X119000000Y-138200000D03*
%TD*%
D17*
%TO.P,D10,2*%
%TO.N,Net-(D10-Pad2)*%
X90796051Y-122096051D03*
%TA.AperFunction,ComponentPad*%
D15*
%TO.P,D10,1*%
%TO.N,Net-(D1-Pad1)*%
G36*
X87727208Y-120300000D02*
G01*
X89000000Y-119027208D01*
X90272792Y-120300000D01*
X89000000Y-121572792D01*
X87727208Y-120300000D01*
G37*
%TD.AperFunction*%
%TD*%
D17*
%TO.P,D9,2*%
%TO.N,Net-(D9-Pad2)*%
X96000000Y-129540000D03*
D18*
%TO.P,D9,1*%
%TO.N,Net-(D1-Pad1)*%
X96000000Y-127000000D03*
%TD*%
D17*
%TO.P,D8,2*%
%TO.N,Net-(D8-Pad2)*%
X95600000Y-144640000D03*
D18*
%TO.P,D8,1*%
%TO.N,Net-(D1-Pad1)*%
X95600000Y-142100000D03*
%TD*%
D17*
%TO.P,D7,2*%
%TO.N,Net-(D7-Pad2)*%
X88703949Y-150696051D03*
%TA.AperFunction,ComponentPad*%
D15*
%TO.P,D7,1*%
%TO.N,Net-(D1-Pad1)*%
G36*
X90500000Y-147627208D02*
G01*
X91772792Y-148900000D01*
X90500000Y-150172792D01*
X89227208Y-148900000D01*
X90500000Y-147627208D01*
G37*
%TD.AperFunction*%
%TD*%
D17*
%TO.P,D6,2*%
%TO.N,Net-(D6-Pad2)*%
X79060000Y-151900000D03*
D18*
%TO.P,D6,1*%
%TO.N,Net-(D1-Pad1)*%
X81600000Y-151900000D03*
%TD*%
D17*
%TO.P,D5,2*%
%TO.N,Net-(D5-Pad2)*%
X70503949Y-148503949D03*
%TA.AperFunction,ComponentPad*%
D15*
%TO.P,D5,1*%
%TO.N,Net-(D1-Pad1)*%
G36*
X73572792Y-150300000D02*
G01*
X72300000Y-151572792D01*
X71027208Y-150300000D01*
X72300000Y-149027208D01*
X73572792Y-150300000D01*
G37*
%TD.AperFunction*%
%TD*%
D17*
%TO.P,D4,2*%
%TO.N,Net-(D4-Pad2)*%
X65900000Y-142560000D03*
D18*
%TO.P,D4,1*%
%TO.N,Net-(D1-Pad1)*%
X65900000Y-145100000D03*
%TD*%
D17*
%TO.P,D3,2*%
%TO.N,Net-(D3-Pad2)*%
X66000000Y-126560000D03*
D18*
%TO.P,D3,1*%
%TO.N,Net-(D1-Pad1)*%
X66000000Y-129100000D03*
%TD*%
D17*
%TO.P,D2,2*%
%TO.N,Net-(D2-Pad2)*%
X73796051Y-119903949D03*
%TA.AperFunction,ComponentPad*%
D15*
%TO.P,D2,1*%
%TO.N,Net-(D1-Pad1)*%
G36*
X72000000Y-122972792D02*
G01*
X70727208Y-121700000D01*
X72000000Y-120427208D01*
X73272792Y-121700000D01*
X72000000Y-122972792D01*
G37*
%TD.AperFunction*%
%TD*%
D17*
%TO.P,D1,2*%
%TO.N,Net-(D1-Pad2)*%
X81640000Y-118200000D03*
D18*
%TO.P,D1,1*%
%TO.N,Net-(D1-Pad1)*%
X79100000Y-118200000D03*
%TD*%
D19*
%TO.P,Q2,1*%
%TO.N,+3V0*%
X132300000Y-159000000D03*
%TO.P,Q2,3*%
%TO.N,Net-(C2-Pad2)*%
%TA.AperFunction,ComponentPad*%
G36*
G01*
X131675000Y-160990000D02*
X132925000Y-160990000D01*
G75*
G02*
X133200000Y-161265000I0J-275000D01*
G01*
X133200000Y-161815000D01*
G75*
G02*
X132925000Y-162090000I-275000J0D01*
G01*
X131675000Y-162090000D01*
G75*
G02*
X131400000Y-161815000I0J275000D01*
G01*
X131400000Y-161265000D01*
G75*
G02*
X131675000Y-160990000I275000J0D01*
G01*
G37*
%TD.AperFunction*%
%TO.P,Q2,2*%
%TO.N,Net-(C1-Pad1)*%
%TA.AperFunction,ComponentPad*%
G36*
G01*
X133745000Y-159720000D02*
X134995000Y-159720000D01*
G75*
G02*
X135270000Y-159995000I0J-275000D01*
G01*
X135270000Y-160545000D01*
G75*
G02*
X134995000Y-160820000I-275000J0D01*
G01*
X133745000Y-160820000D01*
G75*
G02*
X133470000Y-160545000I0J275000D01*
G01*
X133470000Y-159995000D01*
G75*
G02*
X133745000Y-159720000I275000J0D01*
G01*
G37*
%TD.AperFunction*%
%TD*%
%TO.P,Q1,1*%
%TO.N,GNDREF*%
X127000000Y-159700000D03*
%TO.P,Q1,3*%
%TO.N,Net-(C1-Pad1)*%
%TA.AperFunction,ComponentPad*%
G36*
G01*
X126375000Y-161690000D02*
X127625000Y-161690000D01*
G75*
G02*
X127900000Y-161965000I0J-275000D01*
G01*
X127900000Y-162515000D01*
G75*
G02*
X127625000Y-162790000I-275000J0D01*
G01*
X126375000Y-162790000D01*
G75*
G02*
X126100000Y-162515000I0J275000D01*
G01*
X126100000Y-161965000D01*
G75*
G02*
X126375000Y-161690000I275000J0D01*
G01*
G37*
%TD.AperFunction*%
%TO.P,Q1,2*%
%TO.N,Net-(C1-Pad2)*%
%TA.AperFunction,ComponentPad*%
G36*
G01*
X128445000Y-160420000D02*
X129695000Y-160420000D01*
G75*
G02*
X129970000Y-160695000I0J-275000D01*
G01*
X129970000Y-161245000D01*
G75*
G02*
X129695000Y-161520000I-275000J0D01*
G01*
X128445000Y-161520000D01*
G75*
G02*
X128170000Y-161245000I0J275000D01*
G01*
X128170000Y-160695000D01*
G75*
G02*
X128445000Y-160420000I275000J0D01*
G01*
G37*
%TD.AperFunction*%
%TD*%
D20*
%TO.P,LS1,2*%
%TO.N,GNDREF*%
X133300000Y-147850000D03*
D21*
%TO.P,LS1,1*%
%TO.N,Net-(LS1-Pad1)*%
X133300000Y-122450000D03*
%TD*%
D22*
%TO.P,U1,16*%
%TO.N,+3V0*%
X79520000Y-126200000D03*
%TO.P,U1,8*%
%TO.N,GNDREF*%
X71900000Y-143980000D03*
%TO.P,U1,15*%
X79520000Y-128740000D03*
%TO.P,U1,7*%
%TO.N,Net-(D4-Pad2)*%
X71900000Y-141440000D03*
%TO.P,U1,14*%
%TO.N,Net-(C2-Pad2)*%
X79520000Y-131280000D03*
%TO.P,U1,6*%
%TO.N,Net-(D8-Pad2)*%
X71900000Y-138900000D03*
%TO.P,U1,13*%
%TO.N,GNDREF*%
X79520000Y-133820000D03*
%TO.P,U1,5*%
%TO.N,Net-(D7-Pad2)*%
X71900000Y-136360000D03*
%TO.P,U1,12*%
%TO.N,Net-(U1-Pad12)*%
X79520000Y-136360000D03*
%TO.P,U1,4*%
%TO.N,Net-(D3-Pad2)*%
X71900000Y-133820000D03*
%TO.P,U1,11*%
%TO.N,Net-(D10-Pad2)*%
X79520000Y-138900000D03*
%TO.P,U1,3*%
%TO.N,Net-(D1-Pad2)*%
X71900000Y-131280000D03*
%TO.P,U1,10*%
%TO.N,Net-(D5-Pad2)*%
X79520000Y-141440000D03*
%TO.P,U1,2*%
%TO.N,Net-(D2-Pad2)*%
X71900000Y-128740000D03*
%TO.P,U1,9*%
%TO.N,Net-(D9-Pad2)*%
X79520000Y-143980000D03*
D23*
%TO.P,U1,1*%
%TO.N,Net-(D6-Pad2)*%
X71900000Y-126200000D03*
%TD*%
D24*
%TO.P,C2,2*%
%TO.N,Net-(C2-Pad2)*%
X131400000Y-110800000D03*
%TO.P,C2,1*%
%TO.N,Net-(C2-Pad1)*%
X136400000Y-110800000D03*
%TD*%
%TO.P,C1,2*%
%TO.N,Net-(C1-Pad2)*%
X128100000Y-110200000D03*
%TO.P,C1,1*%
%TO.N,Net-(C1-Pad1)*%
X123100000Y-110200000D03*
%TD*%
D25*
%TO.N,Net-(C2-Pad2)*%
X83020000Y-131280000D02*
X79520000Y-131280000D01*
X93000000Y-125100000D02*
X86820000Y-131280000D01*
X97900000Y-125100000D02*
X93000000Y-125100000D01*
X98900000Y-126100000D02*
X97900000Y-125100000D01*
X98900000Y-131300000D02*
X98900000Y-126100000D01*
X86820000Y-131280000D02*
X83020000Y-131280000D01*
X102200000Y-134600000D02*
X98900000Y-131300000D01*
X117200000Y-134600000D02*
X102200000Y-134600000D01*
X117200000Y-126800000D02*
X117200000Y-134600000D01*
X131400000Y-112600000D02*
X117200000Y-126800000D01*
X131400000Y-110800000D02*
X131400000Y-112600000D01*
X131160000Y-161540000D02*
X128600000Y-164100000D01*
X132700000Y-161540000D02*
X131160000Y-161540000D01*
X124500000Y-164100000D02*
X128600000Y-164100000D01*
X117200000Y-141700000D02*
X117200000Y-134600000D01*
X121000000Y-153950000D02*
X121000000Y-145500000D01*
X121000000Y-145500000D02*
X117200000Y-141700000D01*
X119950000Y-155000000D02*
X121000000Y-153950000D01*
X117050000Y-155000000D02*
X119950000Y-155000000D01*
X122500000Y-162100000D02*
X124500000Y-164100000D01*
X115750000Y-156300000D02*
X116225000Y-155825000D01*
X115750000Y-159150000D02*
X115750000Y-156300000D01*
X116225000Y-155825000D02*
X117050000Y-155000000D01*
X116100000Y-155950000D02*
X116225000Y-155825000D01*
X115750000Y-159150000D02*
X115750000Y-160800000D01*
X117050000Y-162100000D02*
X118650000Y-162100000D01*
X115750000Y-160800000D02*
X117050000Y-162100000D01*
X118650000Y-162100000D02*
X122500000Y-162100000D01*
X118100000Y-162100000D02*
X118650000Y-162100000D01*
%TO.N,Net-(D1-Pad2)*%
X81640000Y-119460000D02*
X81640000Y-118200000D01*
X76700000Y-120100000D02*
X81000000Y-120100000D01*
X81000000Y-120100000D02*
X81640000Y-119460000D01*
X74900000Y-121900000D02*
X76700000Y-120100000D01*
X74900000Y-128700000D02*
X74900000Y-121900000D01*
X72320000Y-131280000D02*
X74900000Y-128700000D01*
X71900000Y-131280000D02*
X72320000Y-131280000D01*
%TO.N,Net-(D2-Pad2)*%
X71900000Y-128740000D02*
X72760000Y-128740000D01*
X73796051Y-127703949D02*
X73796051Y-119903949D01*
X72760000Y-128740000D02*
X73796051Y-127703949D01*
%TO.N,Net-(D3-Pad2)*%
X66000000Y-126560000D02*
X67460000Y-126560000D01*
X67460000Y-126560000D02*
X68000000Y-127100000D01*
X68000000Y-127100000D02*
X68000000Y-132400000D01*
X69420000Y-133820000D02*
X71900000Y-133820000D01*
X68000000Y-132400000D02*
X69420000Y-133820000D01*
%TO.N,Net-(D4-Pad2)*%
X65900000Y-142560000D02*
X67940000Y-142560000D01*
X69060000Y-141440000D02*
X71900000Y-141440000D01*
X67940000Y-142560000D02*
X69060000Y-141440000D01*
%TO.N,Net-(D5-Pad2)*%
X77567898Y-141440000D02*
X70503949Y-148503949D01*
X79520000Y-141440000D02*
X77567898Y-141440000D01*
%TO.N,Net-(D6-Pad2)*%
X70200000Y-126200000D02*
X71900000Y-126200000D01*
X68600000Y-124600000D02*
X70200000Y-126200000D01*
X63900000Y-146100000D02*
X63900000Y-125800000D01*
X71400000Y-153600000D02*
X63900000Y-146100000D01*
X65100000Y-124600000D02*
X68600000Y-124600000D01*
X75300000Y-153600000D02*
X71400000Y-153600000D01*
X77000000Y-151900000D02*
X75300000Y-153600000D01*
X63900000Y-125800000D02*
X65100000Y-124600000D01*
X79060000Y-151900000D02*
X77000000Y-151900000D01*
%TO.N,Net-(D7-Pad2)*%
X69300000Y-137300000D02*
X70240000Y-136360000D01*
X70400000Y-140200000D02*
X69300000Y-139100000D01*
X73200000Y-140200000D02*
X70400000Y-140200000D01*
X73600000Y-140600000D02*
X73200000Y-140200000D01*
X73600000Y-142400000D02*
X73600000Y-140600000D01*
X73145010Y-142854990D02*
X73600000Y-142400000D01*
X70240000Y-136360000D02*
X71900000Y-136360000D01*
X69300000Y-139100000D02*
X69300000Y-137300000D01*
X70554990Y-142854990D02*
X73145010Y-142854990D01*
X68700000Y-149400000D02*
X68700000Y-146900000D01*
X69509980Y-143900000D02*
X70554990Y-142854990D01*
X69509980Y-146090020D02*
X69509980Y-143900000D01*
X68700000Y-146900000D02*
X69509980Y-146090020D01*
X88703949Y-150696051D02*
X87107898Y-149100000D01*
X87107898Y-149100000D02*
X77400000Y-149100000D01*
X74000000Y-152500000D02*
X71800000Y-152500000D01*
X71800000Y-152500000D02*
X68700000Y-149400000D01*
X77400000Y-149100000D02*
X74000000Y-152500000D01*
%TO.N,Net-(D8-Pad2)*%
X75800000Y-140200000D02*
X81100000Y-140200000D01*
X74500000Y-138900000D02*
X75800000Y-140200000D01*
X85540000Y-144640000D02*
X95600000Y-144640000D01*
X81100000Y-140200000D02*
X85540000Y-144640000D01*
X71900000Y-138900000D02*
X74500000Y-138900000D01*
%TO.N,Net-(D9-Pad2)*%
X94600000Y-147200000D02*
X96000000Y-147200000D01*
X83080000Y-143980000D02*
X85300000Y-146200000D01*
X93600000Y-146200000D02*
X94600000Y-147200000D01*
X96000000Y-147200000D02*
X97800000Y-145400000D01*
X85300000Y-146200000D02*
X93600000Y-146200000D01*
X79520000Y-143980000D02*
X83080000Y-143980000D01*
X96000000Y-132600000D02*
X97800000Y-134400000D01*
X96000000Y-129540000D02*
X96000000Y-132600000D01*
X97800000Y-145400000D02*
X97800000Y-134400000D01*
%TO.N,Net-(D10-Pad2)*%
X82303949Y-122096051D02*
X90796051Y-122096051D01*
X77900000Y-138900000D02*
X76000000Y-137000000D01*
X76000000Y-125200000D02*
X79103949Y-122096051D01*
X79520000Y-138900000D02*
X77900000Y-138900000D01*
X76000000Y-137000000D02*
X76000000Y-125200000D01*
X79103949Y-122096051D02*
X82303949Y-122096051D01*
%TO.N,GNDREF*%
X126280000Y-159700000D02*
X124540000Y-157960000D01*
X127400000Y-159700000D02*
X126280000Y-159700000D01*
X123400000Y-157960000D02*
X124540000Y-157960000D01*
%TO.N,+3V0*%
X136200000Y-159000000D02*
X135300000Y-159000000D01*
X137900000Y-160700000D02*
X136200000Y-159000000D01*
X132700000Y-159000000D02*
X135300000Y-159000000D01*
X121500000Y-140700000D02*
X132700000Y-151900000D01*
X123600000Y-127300000D02*
X121500000Y-129400000D01*
X136700000Y-124700000D02*
X134100000Y-127300000D01*
X136700000Y-119600000D02*
X136700000Y-124700000D01*
X133900000Y-108700000D02*
X133900000Y-116800000D01*
X122000000Y-107400000D02*
X132600000Y-107400000D01*
X132700000Y-151900000D02*
X132700000Y-159000000D01*
X121400000Y-108000000D02*
X122000000Y-107400000D01*
X121500000Y-129400000D02*
X121500000Y-140700000D01*
X133900000Y-116800000D02*
X136700000Y-119600000D01*
X132600000Y-107400000D02*
X133900000Y-108700000D01*
X134100000Y-127300000D02*
X123600000Y-127300000D01*
X91805104Y-122900000D02*
X88505104Y-126200000D01*
X106450000Y-114850000D02*
X98400000Y-122900000D01*
X88505104Y-126200000D02*
X79520000Y-126200000D01*
X98400000Y-122900000D02*
X91805104Y-122900000D01*
X115850000Y-113000000D02*
X114000000Y-114850000D01*
X114000000Y-114850000D02*
X106450000Y-114850000D01*
X115850000Y-111300000D02*
X115850000Y-113000000D01*
X115850000Y-111300000D02*
X115850000Y-109500000D01*
X117350000Y-108000000D02*
X121400000Y-108000000D01*
X115850000Y-109500000D02*
X117350000Y-108000000D01*
%TO.N,Net-(C3-Pad2)*%
X143567767Y-155032233D02*
X144517767Y-155982233D01*
X143567767Y-143832233D02*
X143567767Y-155032233D01*
X131435534Y-131700000D02*
X143567767Y-143832233D01*
X123500000Y-131700000D02*
X131435534Y-131700000D01*
%TO.N,Net-(C3-Pad1)*%
X137900000Y-158160000D02*
X140460000Y-158160000D01*
X132100000Y-138200000D02*
X123500000Y-138200000D01*
X137900000Y-144000000D02*
X132100000Y-138200000D01*
X137900000Y-158160000D02*
X137900000Y-144000000D01*
X140870000Y-157750000D02*
X140460000Y-158160000D01*
X142750000Y-157750000D02*
X140870000Y-157750000D01*
%TO.N,Net-(LS1-Pad1)*%
X117750000Y-159150000D02*
X117750000Y-157150000D01*
X117750000Y-156650000D02*
X117750000Y-159150000D01*
X118150000Y-156250000D02*
X117750000Y-156650000D01*
X123000000Y-143300000D02*
X123000000Y-154850000D01*
X120600000Y-140900000D02*
X123000000Y-143300000D01*
X120600000Y-127600000D02*
X120600000Y-140900000D01*
X125750000Y-122450000D02*
X120600000Y-127600000D01*
X121600000Y-156250000D02*
X118150000Y-156250000D01*
X123000000Y-154850000D02*
X121600000Y-156250000D01*
X133300000Y-122450000D02*
X125750000Y-122450000D01*
%TD*%
M02*
