%TF.GenerationSoftware,KiCad,Pcbnew,(5.1.9-0-10_14)*%
%TF.CreationDate,2021-08-25T11:14:01+08:00*%
%TF.ProjectId,osc_bjt_4017,6f73635f-626a-4745-9f34-3031372e6b69,rev?*%
%TF.SameCoordinates,Original*%
%TF.FileFunction,Soldermask,Top*%
%TF.FilePolarity,Negative*%
%FSLAX46Y46*%
G04 Gerber Fmt 4.6, Leading zero omitted, Abs format (unit mm)*
G04 Created by KiCad (PCBNEW (5.1.9-0-10_14)) date 2021-08-25 11:14:01*
%MOMM*%
%LPD*%
G01*
G04 APERTURE LIST*
%ADD10C,0.010000*%
%ADD11O,2.200000X3.500000*%
%ADD12O,1.500000X2.500000*%
%ADD13R,1.500000X2.500000*%
%ADD14C,3.200000*%
%ADD15O,1.600000X1.600000*%
%ADD16C,1.600000*%
%ADD17C,0.100000*%
%ADD18C,1.700000*%
%ADD19C,1.800000*%
%ADD20R,1.800000X1.800000*%
%ADD21R,1.800000X1.100000*%
%ADD22C,3.000000*%
%ADD23R,3.000000X3.000000*%
%ADD24O,2.400000X1.600000*%
%ADD25R,2.400000X1.600000*%
%ADD26C,2.000000*%
G04 APERTURE END LIST*
D10*
%TO.C,G\u002A\u002A\u002A*%
G36*
X82722218Y-101837851D02*
G01*
X84731540Y-102026275D01*
X86673652Y-102324447D01*
X87951630Y-102592372D01*
X88312526Y-102682492D01*
X88536830Y-102755844D01*
X88654504Y-102826232D01*
X88695505Y-102907460D01*
X88697334Y-102935970D01*
X88671135Y-103109555D01*
X88596072Y-103426504D01*
X88477441Y-103869742D01*
X88320540Y-104422197D01*
X88130666Y-105066793D01*
X87913117Y-105786458D01*
X87673191Y-106564116D01*
X87416184Y-107382696D01*
X87147394Y-108225121D01*
X86872119Y-109074320D01*
X86595656Y-109913217D01*
X86323303Y-110724739D01*
X86060356Y-111491813D01*
X85904806Y-111936373D01*
X85713113Y-112476959D01*
X85539346Y-112962448D01*
X85391575Y-113370661D01*
X85277872Y-113679416D01*
X85206306Y-113866533D01*
X85185398Y-113913491D01*
X85093824Y-113914235D01*
X84868879Y-113891836D01*
X84544349Y-113850232D01*
X84154017Y-113793360D01*
X84151993Y-113793050D01*
X83837734Y-113749180D01*
X83513354Y-113714273D01*
X83155448Y-113687429D01*
X82740614Y-113667749D01*
X82245448Y-113654335D01*
X81646547Y-113646288D01*
X80920506Y-113642709D01*
X80230667Y-113642461D01*
X79422656Y-113646255D01*
X78672197Y-113655579D01*
X78000763Y-113669839D01*
X77429824Y-113688442D01*
X76980853Y-113710794D01*
X76675322Y-113736303D01*
X76632334Y-113741871D01*
X76248838Y-113796468D01*
X75873860Y-113849805D01*
X75583729Y-113891027D01*
X75565500Y-113893614D01*
X75175999Y-113948878D01*
X74731529Y-112690272D01*
X74302169Y-111461624D01*
X73895586Y-110272867D01*
X73514966Y-109134622D01*
X73163497Y-108057506D01*
X72844368Y-107052139D01*
X72560765Y-106129138D01*
X72315876Y-105299122D01*
X72112889Y-104572710D01*
X71954992Y-103960520D01*
X71845371Y-103473171D01*
X71787215Y-103121281D01*
X71783711Y-102915469D01*
X71790147Y-102891985D01*
X71898270Y-102813089D01*
X72156137Y-102719735D01*
X72545120Y-102615504D01*
X73046595Y-102503977D01*
X73641933Y-102388735D01*
X74312510Y-102273360D01*
X75039699Y-102161433D01*
X75804873Y-102056535D01*
X76589406Y-101962248D01*
X76674667Y-101952833D01*
X78655414Y-101798955D01*
X80684053Y-101761353D01*
X82722218Y-101837851D01*
G37*
X82722218Y-101837851D02*
X84731540Y-102026275D01*
X86673652Y-102324447D01*
X87951630Y-102592372D01*
X88312526Y-102682492D01*
X88536830Y-102755844D01*
X88654504Y-102826232D01*
X88695505Y-102907460D01*
X88697334Y-102935970D01*
X88671135Y-103109555D01*
X88596072Y-103426504D01*
X88477441Y-103869742D01*
X88320540Y-104422197D01*
X88130666Y-105066793D01*
X87913117Y-105786458D01*
X87673191Y-106564116D01*
X87416184Y-107382696D01*
X87147394Y-108225121D01*
X86872119Y-109074320D01*
X86595656Y-109913217D01*
X86323303Y-110724739D01*
X86060356Y-111491813D01*
X85904806Y-111936373D01*
X85713113Y-112476959D01*
X85539346Y-112962448D01*
X85391575Y-113370661D01*
X85277872Y-113679416D01*
X85206306Y-113866533D01*
X85185398Y-113913491D01*
X85093824Y-113914235D01*
X84868879Y-113891836D01*
X84544349Y-113850232D01*
X84154017Y-113793360D01*
X84151993Y-113793050D01*
X83837734Y-113749180D01*
X83513354Y-113714273D01*
X83155448Y-113687429D01*
X82740614Y-113667749D01*
X82245448Y-113654335D01*
X81646547Y-113646288D01*
X80920506Y-113642709D01*
X80230667Y-113642461D01*
X79422656Y-113646255D01*
X78672197Y-113655579D01*
X78000763Y-113669839D01*
X77429824Y-113688442D01*
X76980853Y-113710794D01*
X76675322Y-113736303D01*
X76632334Y-113741871D01*
X76248838Y-113796468D01*
X75873860Y-113849805D01*
X75583729Y-113891027D01*
X75565500Y-113893614D01*
X75175999Y-113948878D01*
X74731529Y-112690272D01*
X74302169Y-111461624D01*
X73895586Y-110272867D01*
X73514966Y-109134622D01*
X73163497Y-108057506D01*
X72844368Y-107052139D01*
X72560765Y-106129138D01*
X72315876Y-105299122D01*
X72112889Y-104572710D01*
X71954992Y-103960520D01*
X71845371Y-103473171D01*
X71787215Y-103121281D01*
X71783711Y-102915469D01*
X71790147Y-102891985D01*
X71898270Y-102813089D01*
X72156137Y-102719735D01*
X72545120Y-102615504D01*
X73046595Y-102503977D01*
X73641933Y-102388735D01*
X74312510Y-102273360D01*
X75039699Y-102161433D01*
X75804873Y-102056535D01*
X76589406Y-101962248D01*
X76674667Y-101952833D01*
X78655414Y-101798955D01*
X80684053Y-101761353D01*
X82722218Y-101837851D01*
G36*
X92828495Y-104091841D02*
G01*
X92863519Y-104102090D01*
X93182967Y-104219133D01*
X93623785Y-104413205D01*
X94163404Y-104672146D01*
X94779255Y-104983792D01*
X95448768Y-105335984D01*
X96149373Y-105716558D01*
X96858502Y-106113353D01*
X97553585Y-106514209D01*
X98212051Y-106906962D01*
X98811333Y-107279451D01*
X99069000Y-107445944D01*
X99777957Y-107938741D01*
X100569431Y-108537745D01*
X101416540Y-109219914D01*
X102292399Y-109962206D01*
X103170126Y-110741579D01*
X104022839Y-111534990D01*
X104823654Y-112319399D01*
X105178217Y-112682311D01*
X105563969Y-113090995D01*
X105837859Y-113402928D01*
X106011631Y-113637097D01*
X106097028Y-113812489D01*
X106105795Y-113948093D01*
X106049675Y-114062894D01*
X106039829Y-114075332D01*
X105884052Y-114231985D01*
X105611126Y-114469062D01*
X105235255Y-114776221D01*
X104770639Y-115143121D01*
X104231482Y-115559420D01*
X103631986Y-116014777D01*
X102986353Y-116498850D01*
X102308786Y-117001298D01*
X101613487Y-117511780D01*
X100914659Y-118019953D01*
X100226504Y-118515476D01*
X99563223Y-118988008D01*
X98939021Y-119427207D01*
X98368099Y-119822732D01*
X97864659Y-120164242D01*
X97442904Y-120441393D01*
X97117036Y-120643847D01*
X96901258Y-120761259D01*
X96821984Y-120787334D01*
X96661128Y-120738397D01*
X96458032Y-120618841D01*
X96434585Y-120601474D01*
X96285418Y-120477976D01*
X96041931Y-120265243D01*
X95733651Y-119989521D01*
X95390104Y-119677055D01*
X95259000Y-119556495D01*
X94044745Y-118488339D01*
X92868807Y-117562630D01*
X91708961Y-116763670D01*
X90542984Y-116075765D01*
X89771197Y-115680704D01*
X88686060Y-115157000D01*
X88733125Y-114851420D01*
X88786598Y-114600655D01*
X88889186Y-114209500D01*
X89034553Y-113697563D01*
X89216362Y-113084451D01*
X89428278Y-112389771D01*
X89663964Y-111633130D01*
X89917085Y-110834136D01*
X90181305Y-110012395D01*
X90450288Y-109187516D01*
X90717697Y-108379105D01*
X90977197Y-107606770D01*
X91222453Y-106890118D01*
X91447127Y-106248756D01*
X91644884Y-105702291D01*
X91809389Y-105270331D01*
X91901870Y-105045418D01*
X92092057Y-104615346D01*
X92239724Y-104321414D01*
X92366037Y-104142859D01*
X92492159Y-104058920D01*
X92639257Y-104048834D01*
X92828495Y-104091841D01*
G37*
X92828495Y-104091841D02*
X92863519Y-104102090D01*
X93182967Y-104219133D01*
X93623785Y-104413205D01*
X94163404Y-104672146D01*
X94779255Y-104983792D01*
X95448768Y-105335984D01*
X96149373Y-105716558D01*
X96858502Y-106113353D01*
X97553585Y-106514209D01*
X98212051Y-106906962D01*
X98811333Y-107279451D01*
X99069000Y-107445944D01*
X99777957Y-107938741D01*
X100569431Y-108537745D01*
X101416540Y-109219914D01*
X102292399Y-109962206D01*
X103170126Y-110741579D01*
X104022839Y-111534990D01*
X104823654Y-112319399D01*
X105178217Y-112682311D01*
X105563969Y-113090995D01*
X105837859Y-113402928D01*
X106011631Y-113637097D01*
X106097028Y-113812489D01*
X106105795Y-113948093D01*
X106049675Y-114062894D01*
X106039829Y-114075332D01*
X105884052Y-114231985D01*
X105611126Y-114469062D01*
X105235255Y-114776221D01*
X104770639Y-115143121D01*
X104231482Y-115559420D01*
X103631986Y-116014777D01*
X102986353Y-116498850D01*
X102308786Y-117001298D01*
X101613487Y-117511780D01*
X100914659Y-118019953D01*
X100226504Y-118515476D01*
X99563223Y-118988008D01*
X98939021Y-119427207D01*
X98368099Y-119822732D01*
X97864659Y-120164242D01*
X97442904Y-120441393D01*
X97117036Y-120643847D01*
X96901258Y-120761259D01*
X96821984Y-120787334D01*
X96661128Y-120738397D01*
X96458032Y-120618841D01*
X96434585Y-120601474D01*
X96285418Y-120477976D01*
X96041931Y-120265243D01*
X95733651Y-119989521D01*
X95390104Y-119677055D01*
X95259000Y-119556495D01*
X94044745Y-118488339D01*
X92868807Y-117562630D01*
X91708961Y-116763670D01*
X90542984Y-116075765D01*
X89771197Y-115680704D01*
X88686060Y-115157000D01*
X88733125Y-114851420D01*
X88786598Y-114600655D01*
X88889186Y-114209500D01*
X89034553Y-113697563D01*
X89216362Y-113084451D01*
X89428278Y-112389771D01*
X89663964Y-111633130D01*
X89917085Y-110834136D01*
X90181305Y-110012395D01*
X90450288Y-109187516D01*
X90717697Y-108379105D01*
X90977197Y-107606770D01*
X91222453Y-106890118D01*
X91447127Y-106248756D01*
X91644884Y-105702291D01*
X91809389Y-105270331D01*
X91901870Y-105045418D01*
X92092057Y-104615346D01*
X92239724Y-104321414D01*
X92366037Y-104142859D01*
X92492159Y-104058920D01*
X92639257Y-104048834D01*
X92828495Y-104091841D01*
G36*
X68132371Y-104083171D02*
G01*
X68199866Y-104204919D01*
X68311505Y-104471767D01*
X68461805Y-104866918D01*
X68645289Y-105373572D01*
X68856475Y-105974932D01*
X69089884Y-106654197D01*
X69340037Y-107394570D01*
X69601453Y-108179253D01*
X69868653Y-108991446D01*
X70136157Y-109814350D01*
X70398485Y-110631168D01*
X70650157Y-111425101D01*
X70885694Y-112179349D01*
X71099615Y-112877115D01*
X71286441Y-113501600D01*
X71440692Y-114036005D01*
X71556888Y-114463532D01*
X71629549Y-114767381D01*
X71645630Y-114853222D01*
X71671047Y-115061538D01*
X71636618Y-115180643D01*
X71506463Y-115265604D01*
X71329774Y-115337946D01*
X70553156Y-115688074D01*
X69695172Y-116155251D01*
X68778971Y-116723296D01*
X67827701Y-117376030D01*
X66864514Y-118097272D01*
X65912558Y-118870841D01*
X64994984Y-119680558D01*
X64639450Y-120014110D01*
X64305361Y-120331377D01*
X64015964Y-120602343D01*
X63792381Y-120807542D01*
X63655731Y-120927508D01*
X63623450Y-120950545D01*
X63546348Y-120901277D01*
X63365945Y-120774949D01*
X63115314Y-120594877D01*
X63001000Y-120511705D01*
X62767403Y-120345230D01*
X62419519Y-120102713D01*
X61983775Y-119802307D01*
X61486597Y-119462171D01*
X60954411Y-119100460D01*
X60503334Y-118795710D01*
X59875265Y-118369861D01*
X59181064Y-117894499D01*
X58467549Y-117401992D01*
X57781535Y-116924708D01*
X57169839Y-116495015D01*
X56943815Y-116334717D01*
X56440957Y-115977692D01*
X55948710Y-115629873D01*
X55495489Y-115311212D01*
X55109709Y-115041664D01*
X54819788Y-114841182D01*
X54723996Y-114776000D01*
X54460756Y-114593090D01*
X54262121Y-114444621D01*
X54161861Y-114356183D01*
X54156015Y-114345638D01*
X54208799Y-114270012D01*
X54357456Y-114088414D01*
X54584844Y-113820975D01*
X54873825Y-113487826D01*
X55207256Y-113109098D01*
X55246912Y-113064393D01*
X56579146Y-111662703D01*
X58053933Y-110292579D01*
X59644828Y-108974941D01*
X61325383Y-107730708D01*
X63069154Y-106580800D01*
X64528007Y-105722745D01*
X64953076Y-105493886D01*
X65427103Y-105251238D01*
X65926229Y-105005654D01*
X66426597Y-104767987D01*
X66904347Y-104549089D01*
X67335621Y-104359813D01*
X67696561Y-104211012D01*
X67963308Y-104113540D01*
X68112003Y-104078249D01*
X68132371Y-104083171D01*
G37*
X68132371Y-104083171D02*
X68199866Y-104204919D01*
X68311505Y-104471767D01*
X68461805Y-104866918D01*
X68645289Y-105373572D01*
X68856475Y-105974932D01*
X69089884Y-106654197D01*
X69340037Y-107394570D01*
X69601453Y-108179253D01*
X69868653Y-108991446D01*
X70136157Y-109814350D01*
X70398485Y-110631168D01*
X70650157Y-111425101D01*
X70885694Y-112179349D01*
X71099615Y-112877115D01*
X71286441Y-113501600D01*
X71440692Y-114036005D01*
X71556888Y-114463532D01*
X71629549Y-114767381D01*
X71645630Y-114853222D01*
X71671047Y-115061538D01*
X71636618Y-115180643D01*
X71506463Y-115265604D01*
X71329774Y-115337946D01*
X70553156Y-115688074D01*
X69695172Y-116155251D01*
X68778971Y-116723296D01*
X67827701Y-117376030D01*
X66864514Y-118097272D01*
X65912558Y-118870841D01*
X64994984Y-119680558D01*
X64639450Y-120014110D01*
X64305361Y-120331377D01*
X64015964Y-120602343D01*
X63792381Y-120807542D01*
X63655731Y-120927508D01*
X63623450Y-120950545D01*
X63546348Y-120901277D01*
X63365945Y-120774949D01*
X63115314Y-120594877D01*
X63001000Y-120511705D01*
X62767403Y-120345230D01*
X62419519Y-120102713D01*
X61983775Y-119802307D01*
X61486597Y-119462171D01*
X60954411Y-119100460D01*
X60503334Y-118795710D01*
X59875265Y-118369861D01*
X59181064Y-117894499D01*
X58467549Y-117401992D01*
X57781535Y-116924708D01*
X57169839Y-116495015D01*
X56943815Y-116334717D01*
X56440957Y-115977692D01*
X55948710Y-115629873D01*
X55495489Y-115311212D01*
X55109709Y-115041664D01*
X54819788Y-114841182D01*
X54723996Y-114776000D01*
X54460756Y-114593090D01*
X54262121Y-114444621D01*
X54161861Y-114356183D01*
X54156015Y-114345638D01*
X54208799Y-114270012D01*
X54357456Y-114088414D01*
X54584844Y-113820975D01*
X54873825Y-113487826D01*
X55207256Y-113109098D01*
X55246912Y-113064393D01*
X56579146Y-111662703D01*
X58053933Y-110292579D01*
X59644828Y-108974941D01*
X61325383Y-107730708D01*
X63069154Y-106580800D01*
X64528007Y-105722745D01*
X64953076Y-105493886D01*
X65427103Y-105251238D01*
X65926229Y-105005654D01*
X66426597Y-104767987D01*
X66904347Y-104549089D01*
X67335621Y-104359813D01*
X67696561Y-104211012D01*
X67963308Y-104113540D01*
X68112003Y-104078249D01*
X68132371Y-104083171D01*
G36*
X108705213Y-117317705D02*
G01*
X108858886Y-117532291D01*
X109069569Y-117881532D01*
X109327034Y-118344669D01*
X109621055Y-118900946D01*
X109941403Y-119529604D01*
X110277851Y-120209885D01*
X110620172Y-120921033D01*
X110958139Y-121642288D01*
X111281523Y-122352895D01*
X111580098Y-123032094D01*
X111843635Y-123659129D01*
X111907867Y-123817817D01*
X112178907Y-124563090D01*
X112453579Y-125446978D01*
X112725129Y-126439081D01*
X112986807Y-127509000D01*
X113231857Y-128626336D01*
X113453528Y-129760688D01*
X113645067Y-130881657D01*
X113799720Y-131958844D01*
X113889201Y-132737158D01*
X113945726Y-133299317D01*
X113450030Y-133353557D01*
X112836600Y-133408039D01*
X112080646Y-133454551D01*
X111208801Y-133492760D01*
X110247701Y-133522328D01*
X109223983Y-133542922D01*
X108164282Y-133554206D01*
X107095233Y-133555844D01*
X106043473Y-133547501D01*
X105035635Y-133528842D01*
X104098357Y-133499531D01*
X103598667Y-133477573D01*
X103118574Y-133452895D01*
X102689103Y-133429064D01*
X102342636Y-133408014D01*
X102111554Y-133391678D01*
X102037955Y-133384413D01*
X101965899Y-133354475D01*
X101908063Y-133270602D01*
X101856441Y-133105602D01*
X101803028Y-132832280D01*
X101739817Y-132423442D01*
X101725113Y-132321754D01*
X101448073Y-130781845D01*
X101056572Y-129245961D01*
X100541093Y-127681220D01*
X99950974Y-126192138D01*
X99662498Y-125505868D01*
X99440886Y-124957485D01*
X99280632Y-124531787D01*
X99176229Y-124213572D01*
X99122172Y-123987638D01*
X99111334Y-123874018D01*
X99131283Y-123787825D01*
X99200313Y-123679388D01*
X99332195Y-123536417D01*
X99540702Y-123346622D01*
X99839604Y-123097713D01*
X100242675Y-122777402D01*
X100763687Y-122373398D01*
X100974000Y-122211831D01*
X101496236Y-121818194D01*
X102095744Y-121377986D01*
X102753224Y-120904442D01*
X103449373Y-120410798D01*
X104164891Y-119910287D01*
X104880477Y-119416146D01*
X105576828Y-118941608D01*
X106234644Y-118499908D01*
X106834623Y-118104283D01*
X107357464Y-117767965D01*
X107783866Y-117504191D01*
X108094528Y-117326195D01*
X108113912Y-117316000D01*
X108520093Y-117104334D01*
X108705213Y-117317705D01*
G37*
X108705213Y-117317705D02*
X108858886Y-117532291D01*
X109069569Y-117881532D01*
X109327034Y-118344669D01*
X109621055Y-118900946D01*
X109941403Y-119529604D01*
X110277851Y-120209885D01*
X110620172Y-120921033D01*
X110958139Y-121642288D01*
X111281523Y-122352895D01*
X111580098Y-123032094D01*
X111843635Y-123659129D01*
X111907867Y-123817817D01*
X112178907Y-124563090D01*
X112453579Y-125446978D01*
X112725129Y-126439081D01*
X112986807Y-127509000D01*
X113231857Y-128626336D01*
X113453528Y-129760688D01*
X113645067Y-130881657D01*
X113799720Y-131958844D01*
X113889201Y-132737158D01*
X113945726Y-133299317D01*
X113450030Y-133353557D01*
X112836600Y-133408039D01*
X112080646Y-133454551D01*
X111208801Y-133492760D01*
X110247701Y-133522328D01*
X109223983Y-133542922D01*
X108164282Y-133554206D01*
X107095233Y-133555844D01*
X106043473Y-133547501D01*
X105035635Y-133528842D01*
X104098357Y-133499531D01*
X103598667Y-133477573D01*
X103118574Y-133452895D01*
X102689103Y-133429064D01*
X102342636Y-133408014D01*
X102111554Y-133391678D01*
X102037955Y-133384413D01*
X101965899Y-133354475D01*
X101908063Y-133270602D01*
X101856441Y-133105602D01*
X101803028Y-132832280D01*
X101739817Y-132423442D01*
X101725113Y-132321754D01*
X101448073Y-130781845D01*
X101056572Y-129245961D01*
X100541093Y-127681220D01*
X99950974Y-126192138D01*
X99662498Y-125505868D01*
X99440886Y-124957485D01*
X99280632Y-124531787D01*
X99176229Y-124213572D01*
X99122172Y-123987638D01*
X99111334Y-123874018D01*
X99131283Y-123787825D01*
X99200313Y-123679388D01*
X99332195Y-123536417D01*
X99540702Y-123346622D01*
X99839604Y-123097713D01*
X100242675Y-122777402D01*
X100763687Y-122373398D01*
X100974000Y-122211831D01*
X101496236Y-121818194D01*
X102095744Y-121377986D01*
X102753224Y-120904442D01*
X103449373Y-120410798D01*
X104164891Y-119910287D01*
X104880477Y-119416146D01*
X105576828Y-118941608D01*
X106234644Y-118499908D01*
X106834623Y-118104283D01*
X107357464Y-117767965D01*
X107783866Y-117504191D01*
X108094528Y-117326195D01*
X108113912Y-117316000D01*
X108520093Y-117104334D01*
X108705213Y-117317705D01*
G36*
X52968326Y-117670402D02*
G01*
X53260062Y-117880112D01*
X53664489Y-118162888D01*
X54152692Y-118498934D01*
X54695763Y-118868455D01*
X55264787Y-119251658D01*
X55762000Y-119583121D01*
X56241713Y-119908084D01*
X56794458Y-120293981D01*
X57398493Y-120724632D01*
X58032081Y-121183857D01*
X58673482Y-121655476D01*
X59300956Y-122123309D01*
X59892764Y-122571176D01*
X60427167Y-122982897D01*
X60882425Y-123342292D01*
X61236800Y-123633182D01*
X61423268Y-123796631D01*
X61455629Y-123858981D01*
X61446697Y-123967699D01*
X61388243Y-124144362D01*
X61272037Y-124410546D01*
X61089848Y-124787827D01*
X60903040Y-125160459D01*
X60100845Y-126931699D01*
X59443761Y-128782397D01*
X58936939Y-130696698D01*
X58689070Y-131976318D01*
X58613601Y-132420618D01*
X58545689Y-132802177D01*
X58490837Y-133091454D01*
X58454548Y-133258908D01*
X58444668Y-133288221D01*
X58324040Y-133326200D01*
X58051689Y-133362114D01*
X57645215Y-133395632D01*
X57122221Y-133426420D01*
X56500308Y-133454145D01*
X55797076Y-133478474D01*
X55030127Y-133499075D01*
X54217062Y-133515614D01*
X53375483Y-133527758D01*
X52522990Y-133535175D01*
X51677185Y-133537532D01*
X50855670Y-133534495D01*
X50076044Y-133525731D01*
X49355910Y-133510908D01*
X48712869Y-133489693D01*
X48442504Y-133477430D01*
X47940932Y-133451346D01*
X47501437Y-133426754D01*
X47150426Y-133405276D01*
X46914308Y-133388533D01*
X46819492Y-133378145D01*
X46818906Y-133377795D01*
X46821873Y-133291740D01*
X46842358Y-133066156D01*
X46877431Y-132729610D01*
X46924161Y-132310668D01*
X46959737Y-132004847D01*
X47266714Y-129884229D01*
X47679962Y-127856151D01*
X48211590Y-125872417D01*
X48873703Y-123884830D01*
X49245888Y-122903919D01*
X49458218Y-122394480D01*
X49735221Y-121774246D01*
X50058821Y-121080161D01*
X50410942Y-120349167D01*
X50773507Y-119618208D01*
X51128441Y-118924226D01*
X51457668Y-118304165D01*
X51743111Y-117794967D01*
X51758848Y-117768070D01*
X52164318Y-117077140D01*
X52968326Y-117670402D01*
G37*
X52968326Y-117670402D02*
X53260062Y-117880112D01*
X53664489Y-118162888D01*
X54152692Y-118498934D01*
X54695763Y-118868455D01*
X55264787Y-119251658D01*
X55762000Y-119583121D01*
X56241713Y-119908084D01*
X56794458Y-120293981D01*
X57398493Y-120724632D01*
X58032081Y-121183857D01*
X58673482Y-121655476D01*
X59300956Y-122123309D01*
X59892764Y-122571176D01*
X60427167Y-122982897D01*
X60882425Y-123342292D01*
X61236800Y-123633182D01*
X61423268Y-123796631D01*
X61455629Y-123858981D01*
X61446697Y-123967699D01*
X61388243Y-124144362D01*
X61272037Y-124410546D01*
X61089848Y-124787827D01*
X60903040Y-125160459D01*
X60100845Y-126931699D01*
X59443761Y-128782397D01*
X58936939Y-130696698D01*
X58689070Y-131976318D01*
X58613601Y-132420618D01*
X58545689Y-132802177D01*
X58490837Y-133091454D01*
X58454548Y-133258908D01*
X58444668Y-133288221D01*
X58324040Y-133326200D01*
X58051689Y-133362114D01*
X57645215Y-133395632D01*
X57122221Y-133426420D01*
X56500308Y-133454145D01*
X55797076Y-133478474D01*
X55030127Y-133499075D01*
X54217062Y-133515614D01*
X53375483Y-133527758D01*
X52522990Y-133535175D01*
X51677185Y-133537532D01*
X50855670Y-133534495D01*
X50076044Y-133525731D01*
X49355910Y-133510908D01*
X48712869Y-133489693D01*
X48442504Y-133477430D01*
X47940932Y-133451346D01*
X47501437Y-133426754D01*
X47150426Y-133405276D01*
X46914308Y-133388533D01*
X46819492Y-133378145D01*
X46818906Y-133377795D01*
X46821873Y-133291740D01*
X46842358Y-133066156D01*
X46877431Y-132729610D01*
X46924161Y-132310668D01*
X46959737Y-132004847D01*
X47266714Y-129884229D01*
X47679962Y-127856151D01*
X48211590Y-125872417D01*
X48873703Y-123884830D01*
X49245888Y-122903919D01*
X49458218Y-122394480D01*
X49735221Y-121774246D01*
X50058821Y-121080161D01*
X50410942Y-120349167D01*
X50773507Y-119618208D01*
X51128441Y-118924226D01*
X51457668Y-118304165D01*
X51743111Y-117794967D01*
X51758848Y-117768070D01*
X52164318Y-117077140D01*
X52968326Y-117670402D01*
G36*
X58555615Y-137567583D02*
G01*
X58746603Y-138686063D01*
X58934173Y-139667780D01*
X59128057Y-140544792D01*
X59337988Y-141349159D01*
X59573697Y-142112938D01*
X59844919Y-142868188D01*
X60161384Y-143646968D01*
X60532826Y-144481337D01*
X60875465Y-145209067D01*
X61114538Y-145714707D01*
X61282817Y-146089622D01*
X61387578Y-146353351D01*
X61436094Y-146525433D01*
X61435642Y-146625407D01*
X61415171Y-146658651D01*
X61245169Y-146801859D01*
X60953440Y-147031194D01*
X60556313Y-147334733D01*
X60070122Y-147700557D01*
X59511197Y-148116742D01*
X58895871Y-148571370D01*
X58240474Y-149052517D01*
X57561338Y-149548263D01*
X56874796Y-150046688D01*
X56197178Y-150535868D01*
X55544816Y-151003885D01*
X54934043Y-151438815D01*
X54381188Y-151828739D01*
X53902584Y-152161735D01*
X53514563Y-152425882D01*
X53510939Y-152428307D01*
X53042957Y-152741619D01*
X52695279Y-152970663D01*
X52446293Y-153123550D01*
X52274386Y-153208388D01*
X52157946Y-153233288D01*
X52075361Y-153206359D01*
X52005017Y-153135710D01*
X51925304Y-153029452D01*
X51921667Y-153024645D01*
X51558075Y-152493628D01*
X51161755Y-151823427D01*
X50743328Y-151038549D01*
X50313412Y-150163502D01*
X49882627Y-149222793D01*
X49461591Y-148240928D01*
X49060924Y-147242416D01*
X48691246Y-146251764D01*
X48363174Y-145293479D01*
X48087328Y-144392069D01*
X47934961Y-143823933D01*
X47789466Y-143209159D01*
X47640210Y-142519240D01*
X47491880Y-141781505D01*
X47349159Y-141023282D01*
X47216734Y-140271900D01*
X47099289Y-139554687D01*
X47001508Y-138898973D01*
X46928078Y-138332086D01*
X46883682Y-137881355D01*
X46872219Y-137624708D01*
X46880457Y-137346115D01*
X46916396Y-137189697D01*
X46996382Y-137108679D01*
X47062500Y-137080217D01*
X47178125Y-137068165D01*
X47448507Y-137055848D01*
X47859070Y-137043515D01*
X48395238Y-137031419D01*
X49042436Y-137019808D01*
X49786087Y-137008934D01*
X50611615Y-136999046D01*
X51504446Y-136990395D01*
X52450002Y-136983231D01*
X52853688Y-136980758D01*
X58454375Y-136948832D01*
X58555615Y-137567583D01*
G37*
X58555615Y-137567583D02*
X58746603Y-138686063D01*
X58934173Y-139667780D01*
X59128057Y-140544792D01*
X59337988Y-141349159D01*
X59573697Y-142112938D01*
X59844919Y-142868188D01*
X60161384Y-143646968D01*
X60532826Y-144481337D01*
X60875465Y-145209067D01*
X61114538Y-145714707D01*
X61282817Y-146089622D01*
X61387578Y-146353351D01*
X61436094Y-146525433D01*
X61435642Y-146625407D01*
X61415171Y-146658651D01*
X61245169Y-146801859D01*
X60953440Y-147031194D01*
X60556313Y-147334733D01*
X60070122Y-147700557D01*
X59511197Y-148116742D01*
X58895871Y-148571370D01*
X58240474Y-149052517D01*
X57561338Y-149548263D01*
X56874796Y-150046688D01*
X56197178Y-150535868D01*
X55544816Y-151003885D01*
X54934043Y-151438815D01*
X54381188Y-151828739D01*
X53902584Y-152161735D01*
X53514563Y-152425882D01*
X53510939Y-152428307D01*
X53042957Y-152741619D01*
X52695279Y-152970663D01*
X52446293Y-153123550D01*
X52274386Y-153208388D01*
X52157946Y-153233288D01*
X52075361Y-153206359D01*
X52005017Y-153135710D01*
X51925304Y-153029452D01*
X51921667Y-153024645D01*
X51558075Y-152493628D01*
X51161755Y-151823427D01*
X50743328Y-151038549D01*
X50313412Y-150163502D01*
X49882627Y-149222793D01*
X49461591Y-148240928D01*
X49060924Y-147242416D01*
X48691246Y-146251764D01*
X48363174Y-145293479D01*
X48087328Y-144392069D01*
X47934961Y-143823933D01*
X47789466Y-143209159D01*
X47640210Y-142519240D01*
X47491880Y-141781505D01*
X47349159Y-141023282D01*
X47216734Y-140271900D01*
X47099289Y-139554687D01*
X47001508Y-138898973D01*
X46928078Y-138332086D01*
X46883682Y-137881355D01*
X46872219Y-137624708D01*
X46880457Y-137346115D01*
X46916396Y-137189697D01*
X46996382Y-137108679D01*
X47062500Y-137080217D01*
X47178125Y-137068165D01*
X47448507Y-137055848D01*
X47859070Y-137043515D01*
X48395238Y-137031419D01*
X49042436Y-137019808D01*
X49786087Y-137008934D01*
X50611615Y-136999046D01*
X51504446Y-136990395D01*
X52450002Y-136983231D01*
X52853688Y-136980758D01*
X58454375Y-136948832D01*
X58555615Y-137567583D01*
G36*
X113971715Y-137191500D02*
G01*
X113946765Y-137374991D01*
X113909840Y-137677048D01*
X113866923Y-138047859D01*
X113842061Y-138271000D01*
X113664697Y-139629303D01*
X113429415Y-141027391D01*
X113144591Y-142429699D01*
X112818604Y-143800663D01*
X112459829Y-145104718D01*
X112076643Y-146306300D01*
X111728456Y-147244325D01*
X111391763Y-148059689D01*
X111039486Y-148871160D01*
X110679651Y-149663297D01*
X110320287Y-150420657D01*
X109969421Y-151127800D01*
X109635081Y-151769283D01*
X109325294Y-152329665D01*
X109048088Y-152793504D01*
X108811491Y-153145359D01*
X108623530Y-153369787D01*
X108502280Y-153450119D01*
X108399011Y-153410440D01*
X108177408Y-153285511D01*
X107857359Y-153087903D01*
X107458750Y-152830189D01*
X107001469Y-152524939D01*
X106554947Y-152219103D01*
X105922803Y-151777772D01*
X105238120Y-151293932D01*
X104517106Y-150779489D01*
X103775967Y-150246348D01*
X103030910Y-149706415D01*
X102298140Y-149171595D01*
X101593865Y-148653792D01*
X100934291Y-148164914D01*
X100335625Y-147716864D01*
X99814072Y-147321549D01*
X99385840Y-146990873D01*
X99067135Y-146736743D01*
X98905602Y-146599854D01*
X98914681Y-146501976D01*
X98994446Y-146271525D01*
X99137595Y-145926231D01*
X99336823Y-145483824D01*
X99554369Y-145024869D01*
X100099846Y-143816229D01*
X100588239Y-142572490D01*
X101008677Y-141328022D01*
X101350291Y-140117196D01*
X101602212Y-138974383D01*
X101730453Y-138144000D01*
X101777032Y-137771346D01*
X101821126Y-137444943D01*
X101855992Y-137213636D01*
X101867801Y-137149167D01*
X101908560Y-136958667D01*
X114008434Y-136958667D01*
X113971715Y-137191500D01*
G37*
X113971715Y-137191500D02*
X113946765Y-137374991D01*
X113909840Y-137677048D01*
X113866923Y-138047859D01*
X113842061Y-138271000D01*
X113664697Y-139629303D01*
X113429415Y-141027391D01*
X113144591Y-142429699D01*
X112818604Y-143800663D01*
X112459829Y-145104718D01*
X112076643Y-146306300D01*
X111728456Y-147244325D01*
X111391763Y-148059689D01*
X111039486Y-148871160D01*
X110679651Y-149663297D01*
X110320287Y-150420657D01*
X109969421Y-151127800D01*
X109635081Y-151769283D01*
X109325294Y-152329665D01*
X109048088Y-152793504D01*
X108811491Y-153145359D01*
X108623530Y-153369787D01*
X108502280Y-153450119D01*
X108399011Y-153410440D01*
X108177408Y-153285511D01*
X107857359Y-153087903D01*
X107458750Y-152830189D01*
X107001469Y-152524939D01*
X106554947Y-152219103D01*
X105922803Y-151777772D01*
X105238120Y-151293932D01*
X104517106Y-150779489D01*
X103775967Y-150246348D01*
X103030910Y-149706415D01*
X102298140Y-149171595D01*
X101593865Y-148653792D01*
X100934291Y-148164914D01*
X100335625Y-147716864D01*
X99814072Y-147321549D01*
X99385840Y-146990873D01*
X99067135Y-146736743D01*
X98905602Y-146599854D01*
X98914681Y-146501976D01*
X98994446Y-146271525D01*
X99137595Y-145926231D01*
X99336823Y-145483824D01*
X99554369Y-145024869D01*
X100099846Y-143816229D01*
X100588239Y-142572490D01*
X101008677Y-141328022D01*
X101350291Y-140117196D01*
X101602212Y-138974383D01*
X101730453Y-138144000D01*
X101777032Y-137771346D01*
X101821126Y-137444943D01*
X101855992Y-137213636D01*
X101867801Y-137149167D01*
X101908560Y-136958667D01*
X114008434Y-136958667D01*
X113971715Y-137191500D01*
G36*
X63676416Y-149650830D02*
G01*
X63869599Y-149793101D01*
X64140671Y-150017675D01*
X64467909Y-150306643D01*
X64785278Y-150600158D01*
X65614549Y-151364728D01*
X66374682Y-152022924D01*
X67101601Y-152601166D01*
X67831233Y-153125879D01*
X68599502Y-153623484D01*
X69442334Y-154120405D01*
X69970427Y-154413770D01*
X70406750Y-154658212D01*
X70807849Y-154894636D01*
X71142108Y-155103525D01*
X71377907Y-155265363D01*
X71461363Y-155334073D01*
X71709059Y-155575982D01*
X71260654Y-157083491D01*
X71083971Y-157663269D01*
X70863803Y-158363130D01*
X70609685Y-159154506D01*
X70331150Y-160008829D01*
X70037731Y-160897530D01*
X69738965Y-161792043D01*
X69444384Y-162663799D01*
X69163522Y-163484229D01*
X68905915Y-164224766D01*
X68681095Y-164856843D01*
X68521122Y-165292223D01*
X68331345Y-165775822D01*
X68168906Y-166146795D01*
X68041420Y-166389110D01*
X67956502Y-166486740D01*
X67953223Y-166487593D01*
X67845338Y-166457767D01*
X67608139Y-166361175D01*
X67263313Y-166207683D01*
X66832547Y-166007157D01*
X66337527Y-165769466D01*
X65878890Y-165543812D01*
X64251599Y-164697771D01*
X62764397Y-163843712D01*
X61388511Y-162960998D01*
X60095167Y-162028993D01*
X58855593Y-161027062D01*
X57641014Y-159934567D01*
X56522997Y-158833848D01*
X55898682Y-158189945D01*
X55391871Y-157655288D01*
X54996682Y-157223149D01*
X54707236Y-156886799D01*
X54517650Y-156639510D01*
X54422043Y-156474554D01*
X54407334Y-156413492D01*
X54474411Y-156311677D01*
X54666867Y-156122461D01*
X54971541Y-155855813D01*
X55375270Y-155521698D01*
X55864893Y-155130082D01*
X56427248Y-154690932D01*
X57049173Y-154214214D01*
X57717505Y-153709895D01*
X58419083Y-153187939D01*
X59140745Y-152658315D01*
X59869329Y-152130988D01*
X60591673Y-151615924D01*
X61294614Y-151123089D01*
X61964993Y-150662451D01*
X62307166Y-150431711D01*
X62704270Y-150167723D01*
X63056837Y-149936701D01*
X63338912Y-149755390D01*
X63524537Y-149640533D01*
X63582843Y-149608771D01*
X63676416Y-149650830D01*
G37*
X63676416Y-149650830D02*
X63869599Y-149793101D01*
X64140671Y-150017675D01*
X64467909Y-150306643D01*
X64785278Y-150600158D01*
X65614549Y-151364728D01*
X66374682Y-152022924D01*
X67101601Y-152601166D01*
X67831233Y-153125879D01*
X68599502Y-153623484D01*
X69442334Y-154120405D01*
X69970427Y-154413770D01*
X70406750Y-154658212D01*
X70807849Y-154894636D01*
X71142108Y-155103525D01*
X71377907Y-155265363D01*
X71461363Y-155334073D01*
X71709059Y-155575982D01*
X71260654Y-157083491D01*
X71083971Y-157663269D01*
X70863803Y-158363130D01*
X70609685Y-159154506D01*
X70331150Y-160008829D01*
X70037731Y-160897530D01*
X69738965Y-161792043D01*
X69444384Y-162663799D01*
X69163522Y-163484229D01*
X68905915Y-164224766D01*
X68681095Y-164856843D01*
X68521122Y-165292223D01*
X68331345Y-165775822D01*
X68168906Y-166146795D01*
X68041420Y-166389110D01*
X67956502Y-166486740D01*
X67953223Y-166487593D01*
X67845338Y-166457767D01*
X67608139Y-166361175D01*
X67263313Y-166207683D01*
X66832547Y-166007157D01*
X66337527Y-165769466D01*
X65878890Y-165543812D01*
X64251599Y-164697771D01*
X62764397Y-163843712D01*
X61388511Y-162960998D01*
X60095167Y-162028993D01*
X58855593Y-161027062D01*
X57641014Y-159934567D01*
X56522997Y-158833848D01*
X55898682Y-158189945D01*
X55391871Y-157655288D01*
X54996682Y-157223149D01*
X54707236Y-156886799D01*
X54517650Y-156639510D01*
X54422043Y-156474554D01*
X54407334Y-156413492D01*
X54474411Y-156311677D01*
X54666867Y-156122461D01*
X54971541Y-155855813D01*
X55375270Y-155521698D01*
X55864893Y-155130082D01*
X56427248Y-154690932D01*
X57049173Y-154214214D01*
X57717505Y-153709895D01*
X58419083Y-153187939D01*
X59140745Y-152658315D01*
X59869329Y-152130988D01*
X60591673Y-151615924D01*
X61294614Y-151123089D01*
X61964993Y-150662451D01*
X62307166Y-150431711D01*
X62704270Y-150167723D01*
X63056837Y-149936701D01*
X63338912Y-149755390D01*
X63524537Y-149640533D01*
X63582843Y-149608771D01*
X63676416Y-149650830D01*
G36*
X96881010Y-149623466D02*
G01*
X97118439Y-149765879D01*
X97465974Y-149992258D01*
X97911058Y-150293625D01*
X98441134Y-150661001D01*
X99043644Y-151085407D01*
X99706031Y-151557862D01*
X100415736Y-152069390D01*
X101160203Y-152611009D01*
X101926873Y-153173741D01*
X102703189Y-153748608D01*
X103476593Y-154326629D01*
X104234529Y-154898825D01*
X104566117Y-155151189D01*
X106507233Y-156632511D01*
X104894527Y-158212960D01*
X103756184Y-159309169D01*
X102698910Y-160285126D01*
X101703214Y-161156823D01*
X100749605Y-161940250D01*
X99818594Y-162651398D01*
X98890690Y-163306257D01*
X97946401Y-163920816D01*
X97908511Y-163944477D01*
X97365942Y-164271039D01*
X96766975Y-164611329D01*
X96133060Y-164954973D01*
X95485649Y-165291596D01*
X94846193Y-165610822D01*
X94236146Y-165902276D01*
X93676957Y-166155583D01*
X93190080Y-166360368D01*
X92796965Y-166506256D01*
X92519065Y-166582872D01*
X92434457Y-166592000D01*
X92270147Y-166523789D01*
X92212258Y-166443834D01*
X92104168Y-166158739D01*
X91952035Y-165736825D01*
X91764060Y-165202344D01*
X91548444Y-164579548D01*
X91313388Y-163892690D01*
X91067092Y-163166023D01*
X90817759Y-162423800D01*
X90573588Y-161690273D01*
X90342780Y-160989694D01*
X90133537Y-160346318D01*
X89954058Y-159784395D01*
X89875284Y-159532656D01*
X89601370Y-158648823D01*
X89373482Y-157912516D01*
X89187398Y-157309555D01*
X89038901Y-156825760D01*
X88923771Y-156446949D01*
X88837790Y-156158942D01*
X88776739Y-155947558D01*
X88736398Y-155798616D01*
X88712549Y-155697936D01*
X88700973Y-155631336D01*
X88697451Y-155584636D01*
X88697334Y-155573298D01*
X88717691Y-155485066D01*
X88790827Y-155388010D01*
X88934840Y-155269739D01*
X89167828Y-155117859D01*
X89507889Y-154919976D01*
X89973120Y-154663698D01*
X90221334Y-154529676D01*
X91238960Y-153955037D01*
X92184917Y-153359686D01*
X93094298Y-152717877D01*
X94002199Y-152003861D01*
X94943714Y-151191892D01*
X95633227Y-150559263D01*
X95984185Y-150234711D01*
X96295188Y-149955172D01*
X96544333Y-149739691D01*
X96709718Y-149607315D01*
X96766246Y-149574000D01*
X96881010Y-149623466D01*
G37*
X96881010Y-149623466D02*
X97118439Y-149765879D01*
X97465974Y-149992258D01*
X97911058Y-150293625D01*
X98441134Y-150661001D01*
X99043644Y-151085407D01*
X99706031Y-151557862D01*
X100415736Y-152069390D01*
X101160203Y-152611009D01*
X101926873Y-153173741D01*
X102703189Y-153748608D01*
X103476593Y-154326629D01*
X104234529Y-154898825D01*
X104566117Y-155151189D01*
X106507233Y-156632511D01*
X104894527Y-158212960D01*
X103756184Y-159309169D01*
X102698910Y-160285126D01*
X101703214Y-161156823D01*
X100749605Y-161940250D01*
X99818594Y-162651398D01*
X98890690Y-163306257D01*
X97946401Y-163920816D01*
X97908511Y-163944477D01*
X97365942Y-164271039D01*
X96766975Y-164611329D01*
X96133060Y-164954973D01*
X95485649Y-165291596D01*
X94846193Y-165610822D01*
X94236146Y-165902276D01*
X93676957Y-166155583D01*
X93190080Y-166360368D01*
X92796965Y-166506256D01*
X92519065Y-166582872D01*
X92434457Y-166592000D01*
X92270147Y-166523789D01*
X92212258Y-166443834D01*
X92104168Y-166158739D01*
X91952035Y-165736825D01*
X91764060Y-165202344D01*
X91548444Y-164579548D01*
X91313388Y-163892690D01*
X91067092Y-163166023D01*
X90817759Y-162423800D01*
X90573588Y-161690273D01*
X90342780Y-160989694D01*
X90133537Y-160346318D01*
X89954058Y-159784395D01*
X89875284Y-159532656D01*
X89601370Y-158648823D01*
X89373482Y-157912516D01*
X89187398Y-157309555D01*
X89038901Y-156825760D01*
X88923771Y-156446949D01*
X88837790Y-156158942D01*
X88776739Y-155947558D01*
X88736398Y-155798616D01*
X88712549Y-155697936D01*
X88700973Y-155631336D01*
X88697451Y-155584636D01*
X88697334Y-155573298D01*
X88717691Y-155485066D01*
X88790827Y-155388010D01*
X88934840Y-155269739D01*
X89167828Y-155117859D01*
X89507889Y-154919976D01*
X89973120Y-154663698D01*
X90221334Y-154529676D01*
X91238960Y-153955037D01*
X92184917Y-153359686D01*
X93094298Y-152717877D01*
X94002199Y-152003861D01*
X94943714Y-151191892D01*
X95633227Y-150559263D01*
X95984185Y-150234711D01*
X96295188Y-149955172D01*
X96544333Y-149739691D01*
X96709718Y-149607315D01*
X96766246Y-149574000D01*
X96881010Y-149623466D01*
G36*
X85149503Y-156695489D02*
G01*
X85254265Y-156881546D01*
X85400931Y-157212171D01*
X85583650Y-157669476D01*
X85796570Y-158235570D01*
X86033838Y-158892562D01*
X86289603Y-159622562D01*
X86558013Y-160407680D01*
X86833217Y-161230026D01*
X87109362Y-162071709D01*
X87380597Y-162914840D01*
X87641071Y-163741527D01*
X87884930Y-164533881D01*
X88106323Y-165274011D01*
X88299399Y-165944027D01*
X88458306Y-166526038D01*
X88577191Y-167002155D01*
X88650204Y-167354487D01*
X88662620Y-167435869D01*
X88717561Y-167850027D01*
X88347848Y-167949580D01*
X87401977Y-168173932D01*
X86326316Y-168376889D01*
X85159502Y-168554567D01*
X83940171Y-168703082D01*
X82706958Y-168818551D01*
X81498502Y-168897088D01*
X80353436Y-168934810D01*
X79310398Y-168927834D01*
X78833667Y-168906028D01*
X78104751Y-168848230D01*
X77271378Y-168760591D01*
X76373048Y-168648948D01*
X75449257Y-168519135D01*
X74539503Y-168376987D01*
X73683284Y-168228338D01*
X72920098Y-168079023D01*
X72332149Y-167945600D01*
X72017298Y-167868102D01*
X71772445Y-167809461D01*
X71638253Y-167779358D01*
X71625369Y-167777334D01*
X71602056Y-167752365D01*
X71603143Y-167667382D01*
X71632542Y-167507270D01*
X71694165Y-167256915D01*
X71791925Y-166901200D01*
X71929736Y-166425013D01*
X72111509Y-165813236D01*
X72271531Y-165281222D01*
X72633228Y-164097012D01*
X72989182Y-162959149D01*
X73335333Y-161879236D01*
X73667621Y-160868879D01*
X73981989Y-159939682D01*
X74274375Y-159103250D01*
X74540722Y-158371187D01*
X74776969Y-157755098D01*
X74979057Y-157266589D01*
X75142927Y-156917263D01*
X75264521Y-156718725D01*
X75268194Y-156714378D01*
X75454244Y-156498083D01*
X76762955Y-156697875D01*
X77199170Y-156761237D01*
X77595554Y-156809893D01*
X77985502Y-156845701D01*
X78402405Y-156870515D01*
X78879654Y-156886191D01*
X79450643Y-156894586D01*
X80148762Y-156897555D01*
X80357667Y-156897667D01*
X81077600Y-156896165D01*
X81659337Y-156890447D01*
X82133998Y-156878696D01*
X82532701Y-156859095D01*
X82886568Y-156829826D01*
X83226719Y-156789072D01*
X83584272Y-156735016D01*
X83819828Y-156695489D01*
X84995988Y-156493312D01*
X85149503Y-156695489D01*
G37*
X85149503Y-156695489D02*
X85254265Y-156881546D01*
X85400931Y-157212171D01*
X85583650Y-157669476D01*
X85796570Y-158235570D01*
X86033838Y-158892562D01*
X86289603Y-159622562D01*
X86558013Y-160407680D01*
X86833217Y-161230026D01*
X87109362Y-162071709D01*
X87380597Y-162914840D01*
X87641071Y-163741527D01*
X87884930Y-164533881D01*
X88106323Y-165274011D01*
X88299399Y-165944027D01*
X88458306Y-166526038D01*
X88577191Y-167002155D01*
X88650204Y-167354487D01*
X88662620Y-167435869D01*
X88717561Y-167850027D01*
X88347848Y-167949580D01*
X87401977Y-168173932D01*
X86326316Y-168376889D01*
X85159502Y-168554567D01*
X83940171Y-168703082D01*
X82706958Y-168818551D01*
X81498502Y-168897088D01*
X80353436Y-168934810D01*
X79310398Y-168927834D01*
X78833667Y-168906028D01*
X78104751Y-168848230D01*
X77271378Y-168760591D01*
X76373048Y-168648948D01*
X75449257Y-168519135D01*
X74539503Y-168376987D01*
X73683284Y-168228338D01*
X72920098Y-168079023D01*
X72332149Y-167945600D01*
X72017298Y-167868102D01*
X71772445Y-167809461D01*
X71638253Y-167779358D01*
X71625369Y-167777334D01*
X71602056Y-167752365D01*
X71603143Y-167667382D01*
X71632542Y-167507270D01*
X71694165Y-167256915D01*
X71791925Y-166901200D01*
X71929736Y-166425013D01*
X72111509Y-165813236D01*
X72271531Y-165281222D01*
X72633228Y-164097012D01*
X72989182Y-162959149D01*
X73335333Y-161879236D01*
X73667621Y-160868879D01*
X73981989Y-159939682D01*
X74274375Y-159103250D01*
X74540722Y-158371187D01*
X74776969Y-157755098D01*
X74979057Y-157266589D01*
X75142927Y-156917263D01*
X75264521Y-156718725D01*
X75268194Y-156714378D01*
X75454244Y-156498083D01*
X76762955Y-156697875D01*
X77199170Y-156761237D01*
X77595554Y-156809893D01*
X77985502Y-156845701D01*
X78402405Y-156870515D01*
X78879654Y-156886191D01*
X79450643Y-156894586D01*
X80148762Y-156897555D01*
X80357667Y-156897667D01*
X81077600Y-156896165D01*
X81659337Y-156890447D01*
X82133998Y-156878696D01*
X82532701Y-156859095D01*
X82886568Y-156829826D01*
X83226719Y-156789072D01*
X83584272Y-156735016D01*
X83819828Y-156695489D01*
X84995988Y-156493312D01*
X85149503Y-156695489D01*
G36*
X114094520Y-152128714D02*
G01*
X114226209Y-151980236D01*
X114403061Y-151785380D01*
X114502028Y-151621108D01*
X114536791Y-151433149D01*
X114521031Y-151167228D01*
X114490729Y-150930912D01*
X114465962Y-150529216D01*
X114500761Y-150183443D01*
X114587010Y-149925945D01*
X114716589Y-149789072D01*
X114780684Y-149775333D01*
X115008857Y-149849157D01*
X115154362Y-150049054D01*
X115194307Y-150342665D01*
X115193191Y-150358373D01*
X115191465Y-150562072D01*
X115242094Y-150639316D01*
X115312640Y-150639928D01*
X115484398Y-150660226D01*
X115702621Y-150742844D01*
X115712608Y-150747935D01*
X115968667Y-150880348D01*
X115968667Y-149425419D01*
X116199538Y-149452209D01*
X116316122Y-149473555D01*
X116410343Y-149518778D01*
X116484584Y-149604407D01*
X116541225Y-149746974D01*
X116582647Y-149963011D01*
X116611231Y-150269047D01*
X116629358Y-150681614D01*
X116639410Y-151217242D01*
X116643767Y-151892462D01*
X116644752Y-152543170D01*
X116642277Y-153411462D01*
X116633942Y-154111019D01*
X116619729Y-154642340D01*
X116599623Y-155005922D01*
X116573607Y-155202264D01*
X116556521Y-155239307D01*
X116411447Y-155263238D01*
X116263222Y-155243452D01*
X116092631Y-155119726D01*
X115972870Y-154872395D01*
X115916745Y-154542865D01*
X115935311Y-154183272D01*
X115962102Y-153965512D01*
X115935512Y-153867907D01*
X115835701Y-153844635D01*
X115788988Y-153845284D01*
X115485261Y-153892146D01*
X115312873Y-154022847D01*
X115299800Y-154068230D01*
X115299800Y-153246666D01*
X115410294Y-153191038D01*
X115584924Y-153049870D01*
X115680800Y-152958800D01*
X115860281Y-152754694D01*
X115944919Y-152563022D01*
X115968350Y-152300410D01*
X115968667Y-152245278D01*
X115953534Y-151968227D01*
X115891891Y-151793394D01*
X115759370Y-151655119D01*
X115745582Y-151644145D01*
X115544196Y-151521395D01*
X115367832Y-151468702D01*
X115364582Y-151468666D01*
X115293946Y-151482604D01*
X115248112Y-151544206D01*
X115221805Y-151683157D01*
X115209753Y-151929143D01*
X115206683Y-152311847D01*
X115206667Y-152357666D01*
X115215467Y-152817955D01*
X115241777Y-153112794D01*
X115285456Y-153240853D01*
X115299800Y-153246666D01*
X115299800Y-154068230D01*
X115247291Y-154250518D01*
X115170253Y-154533128D01*
X115011260Y-154749512D01*
X114807697Y-154852482D01*
X114768115Y-154855333D01*
X114606726Y-154777739D01*
X114506385Y-154552848D01*
X114470259Y-154192498D01*
X114489695Y-153814904D01*
X114504970Y-153332530D01*
X114436669Y-152984227D01*
X114280009Y-152754184D01*
X114142611Y-152666798D01*
X113976334Y-152537322D01*
X113959884Y-152361406D01*
X114094520Y-152128714D01*
G37*
X114094520Y-152128714D02*
X114226209Y-151980236D01*
X114403061Y-151785380D01*
X114502028Y-151621108D01*
X114536791Y-151433149D01*
X114521031Y-151167228D01*
X114490729Y-150930912D01*
X114465962Y-150529216D01*
X114500761Y-150183443D01*
X114587010Y-149925945D01*
X114716589Y-149789072D01*
X114780684Y-149775333D01*
X115008857Y-149849157D01*
X115154362Y-150049054D01*
X115194307Y-150342665D01*
X115193191Y-150358373D01*
X115191465Y-150562072D01*
X115242094Y-150639316D01*
X115312640Y-150639928D01*
X115484398Y-150660226D01*
X115702621Y-150742844D01*
X115712608Y-150747935D01*
X115968667Y-150880348D01*
X115968667Y-149425419D01*
X116199538Y-149452209D01*
X116316122Y-149473555D01*
X116410343Y-149518778D01*
X116484584Y-149604407D01*
X116541225Y-149746974D01*
X116582647Y-149963011D01*
X116611231Y-150269047D01*
X116629358Y-150681614D01*
X116639410Y-151217242D01*
X116643767Y-151892462D01*
X116644752Y-152543170D01*
X116642277Y-153411462D01*
X116633942Y-154111019D01*
X116619729Y-154642340D01*
X116599623Y-155005922D01*
X116573607Y-155202264D01*
X116556521Y-155239307D01*
X116411447Y-155263238D01*
X116263222Y-155243452D01*
X116092631Y-155119726D01*
X115972870Y-154872395D01*
X115916745Y-154542865D01*
X115935311Y-154183272D01*
X115962102Y-153965512D01*
X115935512Y-153867907D01*
X115835701Y-153844635D01*
X115788988Y-153845284D01*
X115485261Y-153892146D01*
X115312873Y-154022847D01*
X115299800Y-154068230D01*
X115299800Y-153246666D01*
X115410294Y-153191038D01*
X115584924Y-153049870D01*
X115680800Y-152958800D01*
X115860281Y-152754694D01*
X115944919Y-152563022D01*
X115968350Y-152300410D01*
X115968667Y-152245278D01*
X115953534Y-151968227D01*
X115891891Y-151793394D01*
X115759370Y-151655119D01*
X115745582Y-151644145D01*
X115544196Y-151521395D01*
X115367832Y-151468702D01*
X115364582Y-151468666D01*
X115293946Y-151482604D01*
X115248112Y-151544206D01*
X115221805Y-151683157D01*
X115209753Y-151929143D01*
X115206683Y-152311847D01*
X115206667Y-152357666D01*
X115215467Y-152817955D01*
X115241777Y-153112794D01*
X115285456Y-153240853D01*
X115299800Y-153246666D01*
X115299800Y-154068230D01*
X115247291Y-154250518D01*
X115170253Y-154533128D01*
X115011260Y-154749512D01*
X114807697Y-154852482D01*
X114768115Y-154855333D01*
X114606726Y-154777739D01*
X114506385Y-154552848D01*
X114470259Y-154192498D01*
X114489695Y-153814904D01*
X114504970Y-153332530D01*
X114436669Y-152984227D01*
X114280009Y-152754184D01*
X114142611Y-152666798D01*
X113976334Y-152537322D01*
X113959884Y-152361406D01*
X114094520Y-152128714D01*
G36*
X119948000Y-150283333D02*
G01*
X119948000Y-150626204D01*
X119916332Y-150915905D01*
X119838661Y-151178189D01*
X119824265Y-151208352D01*
X119764033Y-151421704D01*
X119724987Y-151756872D01*
X119706983Y-152167687D01*
X119709875Y-152607980D01*
X119733521Y-153031583D01*
X119777774Y-153392325D01*
X119831807Y-153615965D01*
X119907539Y-153879486D01*
X119946570Y-154110809D01*
X119948000Y-154146311D01*
X119948000Y-154347333D01*
X118927682Y-154347333D01*
X118927682Y-153570329D01*
X118968642Y-153556899D01*
X119022314Y-153512491D01*
X119059641Y-153410311D01*
X119083374Y-153224679D01*
X119096262Y-152929912D01*
X119101058Y-152500328D01*
X119101333Y-152317990D01*
X119100017Y-151848140D01*
X119093646Y-151521654D01*
X119078583Y-151312570D01*
X119051194Y-151194925D01*
X119007842Y-151142754D01*
X118944892Y-151130097D01*
X118934979Y-151130000D01*
X118807743Y-151157784D01*
X118718311Y-151256033D01*
X118661288Y-151447093D01*
X118631282Y-151753310D01*
X118622900Y-152197030D01*
X118624382Y-152416958D01*
X118638016Y-152911058D01*
X118669550Y-153254858D01*
X118724596Y-153466945D01*
X118808769Y-153565906D01*
X118927682Y-153570329D01*
X118927682Y-154347333D01*
X117784793Y-154347333D01*
X117784793Y-153500666D01*
X117924750Y-153434391D01*
X117988992Y-153355201D01*
X118023865Y-153207959D01*
X118047732Y-152939052D01*
X118060808Y-152590887D01*
X118063306Y-152205869D01*
X118055443Y-151826402D01*
X118037432Y-151494891D01*
X118009487Y-151253741D01*
X117977839Y-151151166D01*
X117836370Y-151055522D01*
X117778633Y-151045333D01*
X117731618Y-151076461D01*
X117698568Y-151184688D01*
X117677367Y-151392278D01*
X117665900Y-151721498D01*
X117662051Y-152194612D01*
X117662000Y-152273000D01*
X117664615Y-152763083D01*
X117674019Y-153107254D01*
X117692548Y-153328878D01*
X117722540Y-153451318D01*
X117766330Y-153497937D01*
X117784793Y-153500666D01*
X117784793Y-154347333D01*
X116984667Y-154347333D01*
X116984667Y-150283333D01*
X119948000Y-150283333D01*
G37*
X119948000Y-150283333D02*
X119948000Y-150626204D01*
X119916332Y-150915905D01*
X119838661Y-151178189D01*
X119824265Y-151208352D01*
X119764033Y-151421704D01*
X119724987Y-151756872D01*
X119706983Y-152167687D01*
X119709875Y-152607980D01*
X119733521Y-153031583D01*
X119777774Y-153392325D01*
X119831807Y-153615965D01*
X119907539Y-153879486D01*
X119946570Y-154110809D01*
X119948000Y-154146311D01*
X119948000Y-154347333D01*
X118927682Y-154347333D01*
X118927682Y-153570329D01*
X118968642Y-153556899D01*
X119022314Y-153512491D01*
X119059641Y-153410311D01*
X119083374Y-153224679D01*
X119096262Y-152929912D01*
X119101058Y-152500328D01*
X119101333Y-152317990D01*
X119100017Y-151848140D01*
X119093646Y-151521654D01*
X119078583Y-151312570D01*
X119051194Y-151194925D01*
X119007842Y-151142754D01*
X118944892Y-151130097D01*
X118934979Y-151130000D01*
X118807743Y-151157784D01*
X118718311Y-151256033D01*
X118661288Y-151447093D01*
X118631282Y-151753310D01*
X118622900Y-152197030D01*
X118624382Y-152416958D01*
X118638016Y-152911058D01*
X118669550Y-153254858D01*
X118724596Y-153466945D01*
X118808769Y-153565906D01*
X118927682Y-153570329D01*
X118927682Y-154347333D01*
X117784793Y-154347333D01*
X117784793Y-153500666D01*
X117924750Y-153434391D01*
X117988992Y-153355201D01*
X118023865Y-153207959D01*
X118047732Y-152939052D01*
X118060808Y-152590887D01*
X118063306Y-152205869D01*
X118055443Y-151826402D01*
X118037432Y-151494891D01*
X118009487Y-151253741D01*
X117977839Y-151151166D01*
X117836370Y-151055522D01*
X117778633Y-151045333D01*
X117731618Y-151076461D01*
X117698568Y-151184688D01*
X117677367Y-151392278D01*
X117665900Y-151721498D01*
X117662051Y-152194612D01*
X117662000Y-152273000D01*
X117664615Y-152763083D01*
X117674019Y-153107254D01*
X117692548Y-153328878D01*
X117722540Y-153451318D01*
X117766330Y-153497937D01*
X117784793Y-153500666D01*
X117784793Y-154347333D01*
X116984667Y-154347333D01*
X116984667Y-150283333D01*
X119948000Y-150283333D01*
G36*
X116760388Y-117155050D02*
G01*
X116770679Y-116867317D01*
X116791205Y-116684470D01*
X116823269Y-116585065D01*
X116861408Y-116549831D01*
X117033393Y-116561689D01*
X117209518Y-116676925D01*
X117324384Y-116844523D01*
X117338667Y-116922125D01*
X117395815Y-117083075D01*
X117466745Y-117138463D01*
X117642995Y-117131235D01*
X117779475Y-117001171D01*
X117832484Y-116794722D01*
X117829740Y-116752615D01*
X117831489Y-116607251D01*
X117912104Y-116538198D01*
X118116388Y-116507843D01*
X118121834Y-116507389D01*
X118329438Y-116500720D01*
X118418703Y-116550051D01*
X118439142Y-116689050D01*
X118439334Y-116723289D01*
X118467547Y-116937217D01*
X118571134Y-117071798D01*
X118778514Y-117143282D01*
X119118106Y-117167918D01*
X119218267Y-117168667D01*
X119522259Y-117171338D01*
X119694408Y-117189643D01*
X119772204Y-117239018D01*
X119793140Y-117334902D01*
X119794000Y-117405733D01*
X119759691Y-117617283D01*
X119692400Y-117744400D01*
X119552827Y-117799813D01*
X119290450Y-117835813D01*
X119015067Y-117846000D01*
X118439334Y-117846000D01*
X118439334Y-118097826D01*
X118483362Y-118308929D01*
X118644622Y-118454586D01*
X118689129Y-118478826D01*
X118915145Y-118570314D01*
X119104936Y-118608000D01*
X119281088Y-118677883D01*
X119469258Y-118849644D01*
X119622428Y-119066456D01*
X119693578Y-119271489D01*
X119692525Y-119318176D01*
X119600843Y-119462745D01*
X119423313Y-119526336D01*
X119228655Y-119497128D01*
X119120219Y-119416614D01*
X118964644Y-119325911D01*
X118736496Y-119285471D01*
X118723183Y-119285333D01*
X118521050Y-119305440D01*
X118424426Y-119397216D01*
X118383423Y-119543720D01*
X118295710Y-119736199D01*
X118155607Y-119782268D01*
X117987338Y-119686529D01*
X117815125Y-119453581D01*
X117804334Y-119433729D01*
X117659278Y-119204192D01*
X117613834Y-119177562D01*
X117613834Y-118423124D01*
X117783117Y-118419452D01*
X117842227Y-118326152D01*
X117846667Y-118242991D01*
X117797934Y-118039346D01*
X117720745Y-117931562D01*
X117542233Y-117858267D01*
X117404857Y-117927550D01*
X117350986Y-118112659D01*
X117354163Y-118163019D01*
X117414611Y-118344555D01*
X117574139Y-118417660D01*
X117613834Y-118423124D01*
X117613834Y-119177562D01*
X117541458Y-119135148D01*
X117429907Y-119224763D01*
X117338667Y-119392999D01*
X117203099Y-119596345D01*
X117029716Y-119665394D01*
X117000000Y-119666333D01*
X116788334Y-119666333D01*
X116765295Y-118130944D01*
X116759028Y-117569111D01*
X116760388Y-117155050D01*
G37*
X116760388Y-117155050D02*
X116770679Y-116867317D01*
X116791205Y-116684470D01*
X116823269Y-116585065D01*
X116861408Y-116549831D01*
X117033393Y-116561689D01*
X117209518Y-116676925D01*
X117324384Y-116844523D01*
X117338667Y-116922125D01*
X117395815Y-117083075D01*
X117466745Y-117138463D01*
X117642995Y-117131235D01*
X117779475Y-117001171D01*
X117832484Y-116794722D01*
X117829740Y-116752615D01*
X117831489Y-116607251D01*
X117912104Y-116538198D01*
X118116388Y-116507843D01*
X118121834Y-116507389D01*
X118329438Y-116500720D01*
X118418703Y-116550051D01*
X118439142Y-116689050D01*
X118439334Y-116723289D01*
X118467547Y-116937217D01*
X118571134Y-117071798D01*
X118778514Y-117143282D01*
X119118106Y-117167918D01*
X119218267Y-117168667D01*
X119522259Y-117171338D01*
X119694408Y-117189643D01*
X119772204Y-117239018D01*
X119793140Y-117334902D01*
X119794000Y-117405733D01*
X119759691Y-117617283D01*
X119692400Y-117744400D01*
X119552827Y-117799813D01*
X119290450Y-117835813D01*
X119015067Y-117846000D01*
X118439334Y-117846000D01*
X118439334Y-118097826D01*
X118483362Y-118308929D01*
X118644622Y-118454586D01*
X118689129Y-118478826D01*
X118915145Y-118570314D01*
X119104936Y-118608000D01*
X119281088Y-118677883D01*
X119469258Y-118849644D01*
X119622428Y-119066456D01*
X119693578Y-119271489D01*
X119692525Y-119318176D01*
X119600843Y-119462745D01*
X119423313Y-119526336D01*
X119228655Y-119497128D01*
X119120219Y-119416614D01*
X118964644Y-119325911D01*
X118736496Y-119285471D01*
X118723183Y-119285333D01*
X118521050Y-119305440D01*
X118424426Y-119397216D01*
X118383423Y-119543720D01*
X118295710Y-119736199D01*
X118155607Y-119782268D01*
X117987338Y-119686529D01*
X117815125Y-119453581D01*
X117804334Y-119433729D01*
X117659278Y-119204192D01*
X117613834Y-119177562D01*
X117613834Y-118423124D01*
X117783117Y-118419452D01*
X117842227Y-118326152D01*
X117846667Y-118242991D01*
X117797934Y-118039346D01*
X117720745Y-117931562D01*
X117542233Y-117858267D01*
X117404857Y-117927550D01*
X117350986Y-118112659D01*
X117354163Y-118163019D01*
X117414611Y-118344555D01*
X117574139Y-118417660D01*
X117613834Y-118423124D01*
X117613834Y-119177562D01*
X117541458Y-119135148D01*
X117429907Y-119224763D01*
X117338667Y-119392999D01*
X117203099Y-119596345D01*
X117029716Y-119665394D01*
X117000000Y-119666333D01*
X116788334Y-119666333D01*
X116765295Y-118130944D01*
X116759028Y-117569111D01*
X116760388Y-117155050D01*
G36*
X116709233Y-115390667D02*
G01*
X117495867Y-115393581D01*
X118166773Y-115402086D01*
X118710689Y-115415826D01*
X119116352Y-115434442D01*
X119372501Y-115457578D01*
X119460023Y-115477843D01*
X119686958Y-115681850D01*
X119823634Y-115969839D01*
X119860809Y-116287632D01*
X119789239Y-116581047D01*
X119674988Y-116737829D01*
X119460194Y-116861539D01*
X119265452Y-116821437D01*
X119102942Y-116622862D01*
X119034686Y-116457137D01*
X118945219Y-116257300D01*
X118850284Y-116144503D01*
X118837405Y-116138987D01*
X118719135Y-116130302D01*
X118465811Y-116126457D01*
X118111645Y-116127531D01*
X117690851Y-116133603D01*
X117571500Y-116136082D01*
X116407333Y-116161830D01*
X116407333Y-117046249D01*
X116407334Y-117930667D01*
X115671954Y-117930667D01*
X115671954Y-117235415D01*
X115750836Y-117216444D01*
X115798876Y-117034835D01*
X115814667Y-116703000D01*
X115805162Y-116422732D01*
X115780292Y-116224515D01*
X115746934Y-116152667D01*
X115606596Y-116226871D01*
X115512729Y-116415611D01*
X115475273Y-116668076D01*
X115504170Y-116933456D01*
X115563646Y-117089566D01*
X115671954Y-117235415D01*
X115671954Y-117930667D01*
X114783895Y-117930667D01*
X114783895Y-117143850D01*
X114869268Y-117141883D01*
X114961218Y-117020500D01*
X115044241Y-116731568D01*
X115008047Y-116418095D01*
X114965021Y-116316434D01*
X114856250Y-116170690D01*
X114776507Y-116188734D01*
X114728314Y-116367106D01*
X114714000Y-116660667D01*
X114731696Y-116982799D01*
X114783895Y-117143850D01*
X114783895Y-117930667D01*
X114121334Y-117930667D01*
X114121334Y-115390667D01*
X116709233Y-115390667D01*
G37*
X116709233Y-115390667D02*
X117495867Y-115393581D01*
X118166773Y-115402086D01*
X118710689Y-115415826D01*
X119116352Y-115434442D01*
X119372501Y-115457578D01*
X119460023Y-115477843D01*
X119686958Y-115681850D01*
X119823634Y-115969839D01*
X119860809Y-116287632D01*
X119789239Y-116581047D01*
X119674988Y-116737829D01*
X119460194Y-116861539D01*
X119265452Y-116821437D01*
X119102942Y-116622862D01*
X119034686Y-116457137D01*
X118945219Y-116257300D01*
X118850284Y-116144503D01*
X118837405Y-116138987D01*
X118719135Y-116130302D01*
X118465811Y-116126457D01*
X118111645Y-116127531D01*
X117690851Y-116133603D01*
X117571500Y-116136082D01*
X116407333Y-116161830D01*
X116407333Y-117046249D01*
X116407334Y-117930667D01*
X115671954Y-117930667D01*
X115671954Y-117235415D01*
X115750836Y-117216444D01*
X115798876Y-117034835D01*
X115814667Y-116703000D01*
X115805162Y-116422732D01*
X115780292Y-116224515D01*
X115746934Y-116152667D01*
X115606596Y-116226871D01*
X115512729Y-116415611D01*
X115475273Y-116668076D01*
X115504170Y-116933456D01*
X115563646Y-117089566D01*
X115671954Y-117235415D01*
X115671954Y-117930667D01*
X114783895Y-117930667D01*
X114783895Y-117143850D01*
X114869268Y-117141883D01*
X114961218Y-117020500D01*
X115044241Y-116731568D01*
X115008047Y-116418095D01*
X114965021Y-116316434D01*
X114856250Y-116170690D01*
X114776507Y-116188734D01*
X114728314Y-116367106D01*
X114714000Y-116660667D01*
X114731696Y-116982799D01*
X114783895Y-117143850D01*
X114783895Y-117930667D01*
X114121334Y-117930667D01*
X114121334Y-115390667D01*
X116709233Y-115390667D01*
G36*
X116407334Y-118354000D02*
G01*
X116407334Y-120047333D01*
X119878667Y-120047333D01*
X119878667Y-120809333D01*
X115672589Y-120809333D01*
X115672589Y-120032375D01*
X115751595Y-120023418D01*
X115794920Y-119935077D01*
X115812436Y-119733027D01*
X115814667Y-119538486D01*
X115804056Y-119235481D01*
X115769278Y-119080331D01*
X115708834Y-119051697D01*
X115561726Y-119172748D01*
X115475781Y-119383795D01*
X115453039Y-119629655D01*
X115495539Y-119855146D01*
X115605321Y-120005086D01*
X115672589Y-120032375D01*
X115672589Y-120809333D01*
X114825796Y-120809333D01*
X114825796Y-120034965D01*
X114932589Y-119925185D01*
X115038108Y-119663812D01*
X115027763Y-119379672D01*
X114904500Y-119148605D01*
X114821251Y-119076463D01*
X114773849Y-119090968D01*
X114748323Y-119219624D01*
X114730702Y-119489930D01*
X114730655Y-119490823D01*
X114725469Y-119828765D01*
X114756063Y-120007736D01*
X114825796Y-120034965D01*
X114825796Y-120809333D01*
X114121334Y-120809333D01*
X114121334Y-118354000D01*
X116407334Y-118354000D01*
G37*
X116407334Y-118354000D02*
X116407334Y-120047333D01*
X119878667Y-120047333D01*
X119878667Y-120809333D01*
X115672589Y-120809333D01*
X115672589Y-120032375D01*
X115751595Y-120023418D01*
X115794920Y-119935077D01*
X115812436Y-119733027D01*
X115814667Y-119538486D01*
X115804056Y-119235481D01*
X115769278Y-119080331D01*
X115708834Y-119051697D01*
X115561726Y-119172748D01*
X115475781Y-119383795D01*
X115453039Y-119629655D01*
X115495539Y-119855146D01*
X115605321Y-120005086D01*
X115672589Y-120032375D01*
X115672589Y-120809333D01*
X114825796Y-120809333D01*
X114825796Y-120034965D01*
X114932589Y-119925185D01*
X115038108Y-119663812D01*
X115027763Y-119379672D01*
X114904500Y-119148605D01*
X114821251Y-119076463D01*
X114773849Y-119090968D01*
X114748323Y-119219624D01*
X114730702Y-119489930D01*
X114730655Y-119490823D01*
X114725469Y-119828765D01*
X114756063Y-120007736D01*
X114825796Y-120034965D01*
X114825796Y-120809333D01*
X114121334Y-120809333D01*
X114121334Y-118354000D01*
X116407334Y-118354000D01*
%TD*%
D11*
%TO.C,SW4*%
X111750000Y-111300000D03*
X119950000Y-111300000D03*
D12*
X113850000Y-111300000D03*
X115850000Y-111300000D03*
D13*
X117850000Y-111300000D03*
%TD*%
D11*
%TO.C,SW3*%
X119850000Y-159150000D03*
X111650000Y-159150000D03*
D12*
X117750000Y-159150000D03*
X115750000Y-159150000D03*
D13*
X113750000Y-159150000D03*
%TD*%
D14*
%TO.C,H1*%
X152200000Y-135200000D03*
%TD*%
D15*
%TO.C,R5*%
X123400000Y-157960000D03*
D16*
X123400000Y-160500000D03*
%TD*%
D15*
%TO.C,R4*%
X92260000Y-135900000D03*
D16*
X94800000Y-135900000D03*
%TD*%
%TO.C,R3*%
G36*
G01*
X142030366Y-112530366D02*
X142030366Y-112530366D01*
G75*
G02*
X143161736Y-112530366I565685J-565685D01*
G01*
X143161736Y-112530366D01*
G75*
G02*
X143161736Y-113661736I-565685J-565685D01*
G01*
X143161736Y-113661736D01*
G75*
G02*
X142030366Y-113661736I-565685J565685D01*
G01*
X142030366Y-113661736D01*
G75*
G02*
X142030366Y-112530366I565685J565685D01*
G01*
G37*
X140800000Y-111300000D03*
%TD*%
%TO.C,R2*%
G36*
G01*
X147330366Y-115130366D02*
X147330366Y-115130366D01*
G75*
G02*
X148461736Y-115130366I565685J-565685D01*
G01*
X148461736Y-115130366D01*
G75*
G02*
X148461736Y-116261736I-565685J-565685D01*
G01*
X148461736Y-116261736D01*
G75*
G02*
X147330366Y-116261736I-565685J565685D01*
G01*
X147330366Y-116261736D01*
G75*
G02*
X147330366Y-115130366I565685J565685D01*
G01*
G37*
X146100000Y-113900000D03*
%TD*%
D15*
%TO.C,R1*%
X137900000Y-158160000D03*
D16*
X137900000Y-160700000D03*
%TD*%
%TO.C,C3*%
X144517767Y-155982233D03*
D17*
G36*
X142750000Y-158881371D02*
G01*
X141618629Y-157750000D01*
X142750000Y-156618629D01*
X143881371Y-157750000D01*
X142750000Y-158881371D01*
G37*
%TD*%
D18*
%TO.C,SW1*%
X123500000Y-131700000D03*
X123500000Y-138200000D03*
X119000000Y-131700000D03*
X119000000Y-138200000D03*
%TD*%
D19*
%TO.C,D10*%
X90796051Y-122096051D03*
D17*
G36*
X87727208Y-120300000D02*
G01*
X89000000Y-119027208D01*
X90272792Y-120300000D01*
X89000000Y-121572792D01*
X87727208Y-120300000D01*
G37*
%TD*%
D19*
%TO.C,D9*%
X96000000Y-129540000D03*
D20*
X96000000Y-127000000D03*
%TD*%
D19*
%TO.C,D8*%
X95600000Y-144640000D03*
D20*
X95600000Y-142100000D03*
%TD*%
D19*
%TO.C,D7*%
X88703949Y-150696051D03*
D17*
G36*
X90500000Y-147627208D02*
G01*
X91772792Y-148900000D01*
X90500000Y-150172792D01*
X89227208Y-148900000D01*
X90500000Y-147627208D01*
G37*
%TD*%
D19*
%TO.C,D6*%
X79060000Y-151900000D03*
D20*
X81600000Y-151900000D03*
%TD*%
D19*
%TO.C,D5*%
X70503949Y-148503949D03*
D17*
G36*
X73572792Y-150300000D02*
G01*
X72300000Y-151572792D01*
X71027208Y-150300000D01*
X72300000Y-149027208D01*
X73572792Y-150300000D01*
G37*
%TD*%
D19*
%TO.C,D4*%
X65900000Y-142560000D03*
D20*
X65900000Y-145100000D03*
%TD*%
D19*
%TO.C,D3*%
X66000000Y-126560000D03*
D20*
X66000000Y-129100000D03*
%TD*%
D19*
%TO.C,D2*%
X73796051Y-119903949D03*
D17*
G36*
X72000000Y-122972792D02*
G01*
X70727208Y-121700000D01*
X72000000Y-120427208D01*
X73272792Y-121700000D01*
X72000000Y-122972792D01*
G37*
%TD*%
D19*
%TO.C,D1*%
X81640000Y-118200000D03*
D20*
X79100000Y-118200000D03*
%TD*%
D21*
%TO.C,Q2*%
X132300000Y-159000000D03*
G36*
G01*
X131675000Y-160990000D02*
X132925000Y-160990000D01*
G75*
G02*
X133200000Y-161265000I0J-275000D01*
G01*
X133200000Y-161815000D01*
G75*
G02*
X132925000Y-162090000I-275000J0D01*
G01*
X131675000Y-162090000D01*
G75*
G02*
X131400000Y-161815000I0J275000D01*
G01*
X131400000Y-161265000D01*
G75*
G02*
X131675000Y-160990000I275000J0D01*
G01*
G37*
G36*
G01*
X133745000Y-159720000D02*
X134995000Y-159720000D01*
G75*
G02*
X135270000Y-159995000I0J-275000D01*
G01*
X135270000Y-160545000D01*
G75*
G02*
X134995000Y-160820000I-275000J0D01*
G01*
X133745000Y-160820000D01*
G75*
G02*
X133470000Y-160545000I0J275000D01*
G01*
X133470000Y-159995000D01*
G75*
G02*
X133745000Y-159720000I275000J0D01*
G01*
G37*
%TD*%
%TO.C,Q1*%
X127000000Y-159700000D03*
G36*
G01*
X126375000Y-161690000D02*
X127625000Y-161690000D01*
G75*
G02*
X127900000Y-161965000I0J-275000D01*
G01*
X127900000Y-162515000D01*
G75*
G02*
X127625000Y-162790000I-275000J0D01*
G01*
X126375000Y-162790000D01*
G75*
G02*
X126100000Y-162515000I0J275000D01*
G01*
X126100000Y-161965000D01*
G75*
G02*
X126375000Y-161690000I275000J0D01*
G01*
G37*
G36*
G01*
X128445000Y-160420000D02*
X129695000Y-160420000D01*
G75*
G02*
X129970000Y-160695000I0J-275000D01*
G01*
X129970000Y-161245000D01*
G75*
G02*
X129695000Y-161520000I-275000J0D01*
G01*
X128445000Y-161520000D01*
G75*
G02*
X128170000Y-161245000I0J275000D01*
G01*
X128170000Y-160695000D01*
G75*
G02*
X128445000Y-160420000I275000J0D01*
G01*
G37*
%TD*%
D22*
%TO.C,LS1*%
X133300000Y-147850000D03*
D23*
X133300000Y-122450000D03*
%TD*%
D24*
%TO.C,U1*%
X79520000Y-126200000D03*
X71900000Y-143980000D03*
X79520000Y-128740000D03*
X71900000Y-141440000D03*
X79520000Y-131280000D03*
X71900000Y-138900000D03*
X79520000Y-133820000D03*
X71900000Y-136360000D03*
X79520000Y-136360000D03*
X71900000Y-133820000D03*
X79520000Y-138900000D03*
X71900000Y-131280000D03*
X79520000Y-141440000D03*
X71900000Y-128740000D03*
X79520000Y-143980000D03*
D25*
X71900000Y-126200000D03*
%TD*%
D26*
%TO.C,C2*%
X131400000Y-110800000D03*
X136400000Y-110800000D03*
%TD*%
%TO.C,C1*%
X128100000Y-110200000D03*
X123100000Y-110200000D03*
%TD*%
M02*
