M48
; DRILL file {KiCad (5.1.9-0-10_14)} date Wednesday, August 25, 2021 at 11:14:03 AM
; FORMAT={-:-/ absolute / metric / decimal}
; #@! TF.CreationDate,2021-08-25T11:14:03+08:00
; #@! TF.GenerationSoftware,Kicad,Pcbnew,(5.1.9-0-10_14)
; #@! TF.FileFunction,Plated,1,2,PTH
FMAT,2
METRIC
T1C0.750
T2C0.800
T3C0.900
T4C1.000
T5C1.500
%
G90
G05
T1
X127.4Y-159.7
X127.4Y-162.24
X128.67Y-160.97
X132.7Y-159.0
X132.7Y-161.54
X133.97Y-160.27
T2
X71.9Y-126.2
X71.9Y-128.74
X71.9Y-131.28
X71.9Y-133.82
X71.9Y-136.36
X71.9Y-138.9
X71.9Y-141.44
X71.9Y-143.98
X79.52Y-126.2
X79.52Y-128.74
X79.52Y-131.28
X79.52Y-133.82
X79.52Y-136.36
X79.52Y-138.9
X79.52Y-141.44
X79.52Y-143.98
X92.26Y-135.9
X94.8Y-135.9
X123.4Y-157.96
X123.4Y-160.5
X137.9Y-158.16
X137.9Y-160.7
X140.8Y-111.3
X142.596Y-113.096
X142.75Y-157.75
X144.518Y-155.982
X146.1Y-113.9
X147.896Y-115.696
T3
X65.9Y-142.56
X65.9Y-145.1
X66.0Y-126.56
X66.0Y-129.1
X70.504Y-148.504
X72.0Y-121.7
X72.3Y-150.3
X73.796Y-119.904
X79.06Y-151.9
X79.1Y-118.2
X81.6Y-151.9
X81.64Y-118.2
X88.704Y-150.696
X89.0Y-120.3
X90.5Y-148.9
X90.796Y-122.096
X95.6Y-142.1
X95.6Y-144.64
X96.0Y-127.0
X96.0Y-129.54
X113.75Y-159.15
X113.85Y-111.3
X115.75Y-159.15
X115.85Y-111.3
X117.75Y-159.15
X117.85Y-111.3
T4
X119.0Y-131.7
X119.0Y-138.2
X123.1Y-110.2
X123.5Y-131.7
X123.5Y-138.2
X128.1Y-110.2
X131.4Y-110.8
X136.4Y-110.8
T5
X111.65Y-159.15
X111.75Y-111.3
X119.85Y-159.15
X119.95Y-111.3
X133.3Y-122.45
X133.3Y-147.85
T0
M30
