%TF.GenerationSoftware,KiCad,Pcbnew,(5.1.9-0-10_14)*%
%TF.CreationDate,2021-08-25T11:14:01+08:00*%
%TF.ProjectId,osc_bjt_4017,6f73635f-626a-4745-9f34-3031372e6b69,rev?*%
%TF.SameCoordinates,Original*%
%TF.FileFunction,Profile,NP*%
%FSLAX46Y46*%
G04 Gerber Fmt 4.6, Leading zero omitted, Abs format (unit mm)*
G04 Created by KiCad (PCBNEW (5.1.9-0-10_14)) date 2021-08-25 11:14:01*
%MOMM*%
%LPD*%
G01*
G04 APERTURE LIST*
%TA.AperFunction,Profile*%
%ADD10C,0.250000*%
%TD*%
G04 APERTURE END LIST*
D10*
X80334443Y-100378623D02*
X80334443Y-100378623D01*
X99547741Y-106075413D02*
X99548257Y-106127113D01*
X99548257Y-106127113D02*
X99010427Y-105780747D01*
X99010427Y-105780747D02*
X98467051Y-105444687D01*
X98467051Y-105444687D02*
X97918281Y-105118977D01*
X97918281Y-105118977D02*
X97364268Y-104803664D01*
X97364268Y-104803664D02*
X96805160Y-104498792D01*
X96805160Y-104498792D02*
X96241111Y-104204406D01*
X96241111Y-104204406D02*
X95672269Y-103920550D01*
X95672269Y-103920550D02*
X95098786Y-103647272D01*
X95098786Y-103647272D02*
X94520812Y-103384614D01*
X94520812Y-103384614D02*
X93938497Y-103132623D01*
X93938497Y-103132623D02*
X93351994Y-102891343D01*
X93351994Y-102891343D02*
X92761452Y-102660820D01*
X92761452Y-102660820D02*
X92167021Y-102441098D01*
X92167021Y-102441098D02*
X91568853Y-102232223D01*
X91568853Y-102232223D02*
X90967098Y-102034239D01*
X90967098Y-102034239D02*
X90361907Y-101847192D01*
X90361907Y-101847192D02*
X89753430Y-101671128D01*
X89753430Y-101671128D02*
X89141818Y-101506090D01*
X89141818Y-101506090D02*
X88527222Y-101352124D01*
X88527222Y-101352124D02*
X87909792Y-101209275D01*
X87909792Y-101209275D02*
X87289679Y-101077588D01*
X87289679Y-101077588D02*
X86667034Y-100957108D01*
X86667034Y-100957108D02*
X86042007Y-100847881D01*
X86042007Y-100847881D02*
X85414749Y-100749951D01*
X85414749Y-100749951D02*
X84785411Y-100663363D01*
X84785411Y-100663363D02*
X84154143Y-100588163D01*
X84154143Y-100588163D02*
X83521095Y-100524395D01*
X83521095Y-100524395D02*
X82886419Y-100472105D01*
X82886419Y-100472105D02*
X82250265Y-100431338D01*
X82250265Y-100431338D02*
X81612784Y-100402138D01*
X81612784Y-100402138D02*
X80974126Y-100384551D01*
X80974126Y-100384551D02*
X80334443Y-100378623D01*
X120300000Y-105800000D02*
X120119607Y-105871283D01*
X104491108Y-108423073D02*
X104171679Y-108338013D01*
X104171679Y-108338013D02*
X103853222Y-108243143D01*
X103853222Y-108243143D02*
X103535827Y-108138803D01*
X103535827Y-108138803D02*
X103219586Y-108025331D01*
X103219586Y-108025331D02*
X102904589Y-107903070D01*
X102904589Y-107903070D02*
X102590928Y-107772360D01*
X102590928Y-107772360D02*
X102278692Y-107633540D01*
X102278692Y-107633540D02*
X101967974Y-107486951D01*
X101967974Y-107486951D02*
X101658863Y-107332934D01*
X101658863Y-107332934D02*
X101351451Y-107171829D01*
X101351451Y-107171829D02*
X101045829Y-107003977D01*
X101045829Y-107003977D02*
X100742087Y-106829717D01*
X100742087Y-106829717D02*
X100440316Y-106649390D01*
X100440316Y-106649390D02*
X100140608Y-106463337D01*
X100140608Y-106463337D02*
X99843052Y-106271897D01*
X99843052Y-106271897D02*
X99547741Y-106075413D01*
X120119607Y-105871283D02*
X119733740Y-105995379D01*
X119733740Y-105995379D02*
X119335590Y-106126242D01*
X119335590Y-106126242D02*
X118925725Y-106262910D01*
X118925725Y-106262910D02*
X118504710Y-106404419D01*
X118504710Y-106404419D02*
X118073113Y-106549807D01*
X118073113Y-106549807D02*
X117631500Y-106698110D01*
X117631500Y-106698110D02*
X117180439Y-106848367D01*
X117180439Y-106848367D02*
X116720495Y-106999613D01*
X116720495Y-106999613D02*
X116252237Y-107150886D01*
X116252237Y-107150886D02*
X115776231Y-107301224D01*
X115776231Y-107301224D02*
X115293043Y-107449662D01*
X115293043Y-107449662D02*
X114803241Y-107595240D01*
X114803241Y-107595240D02*
X114307391Y-107736993D01*
X114307391Y-107736993D02*
X113806060Y-107873959D01*
X113806060Y-107873959D02*
X113299816Y-108005175D01*
X113299816Y-108005175D02*
X112789224Y-108129678D01*
X112789224Y-108129678D02*
X112274853Y-108246505D01*
X112274853Y-108246505D02*
X111757268Y-108354693D01*
X111757268Y-108354693D02*
X111237036Y-108453280D01*
X111237036Y-108453280D02*
X110714725Y-108541303D01*
X110714725Y-108541303D02*
X110190901Y-108617798D01*
X110190901Y-108617798D02*
X109666131Y-108681803D01*
X109666131Y-108681803D02*
X109140981Y-108732356D01*
X109140981Y-108732356D02*
X108616020Y-108768492D01*
X108616020Y-108768492D02*
X108091813Y-108789250D01*
X108091813Y-108789250D02*
X107568927Y-108793666D01*
X107568927Y-108793666D02*
X107047930Y-108780778D01*
X107047930Y-108780778D02*
X106529388Y-108749623D01*
X106529388Y-108749623D02*
X106013868Y-108699238D01*
X106013868Y-108699238D02*
X105501936Y-108628659D01*
X105501936Y-108628659D02*
X104994161Y-108536925D01*
X104994161Y-108536925D02*
X104491108Y-108423073D01*
X120119607Y-164694573D02*
X120300000Y-164700000D01*
X127231327Y-105261503D02*
X126785839Y-105263177D01*
X126785839Y-105263177D02*
X126338913Y-105268272D01*
X126338913Y-105268272D02*
X125891208Y-105276969D01*
X125891208Y-105276969D02*
X125443383Y-105289448D01*
X125443383Y-105289448D02*
X124996097Y-105305889D01*
X124996097Y-105305889D02*
X124550010Y-105326475D01*
X124550010Y-105326475D02*
X124105779Y-105351385D01*
X124105779Y-105351385D02*
X123664064Y-105380800D01*
X123664064Y-105380800D02*
X123225524Y-105414901D01*
X123225524Y-105414901D02*
X122790819Y-105453869D01*
X122790819Y-105453869D02*
X122360606Y-105497884D01*
X122360606Y-105497884D02*
X121935545Y-105547128D01*
X121935545Y-105547128D02*
X121516295Y-105601780D01*
X121516295Y-105601780D02*
X121103514Y-105662023D01*
X121103514Y-105662023D02*
X120697863Y-105728035D01*
X120697863Y-105728035D02*
X120300000Y-105800000D01*
X157231557Y-135261223D02*
X157192506Y-133717429D01*
X157192506Y-133717429D02*
X157076641Y-132193902D01*
X157076641Y-132193902D02*
X156885846Y-130692527D01*
X156885846Y-130692527D02*
X156622006Y-129215189D01*
X156622006Y-129215189D02*
X156287007Y-127763773D01*
X156287007Y-127763773D02*
X155882732Y-126340163D01*
X155882732Y-126340163D02*
X155411069Y-124946245D01*
X155411069Y-124946245D02*
X154873900Y-123583904D01*
X154873900Y-123583904D02*
X154273111Y-122255024D01*
X154273111Y-122255024D02*
X153610588Y-120961490D01*
X153610588Y-120961490D02*
X152888214Y-119705187D01*
X152888214Y-119705187D02*
X152107876Y-118488001D01*
X152107876Y-118488001D02*
X151271458Y-117311817D01*
X151271458Y-117311817D02*
X150380844Y-116178518D01*
X150380844Y-116178518D02*
X149437921Y-115089990D01*
X149437921Y-115089990D02*
X148444573Y-114048119D01*
X148444573Y-114048119D02*
X147402684Y-113054788D01*
X147402684Y-113054788D02*
X146314141Y-112111883D01*
X146314141Y-112111883D02*
X145180827Y-111221290D01*
X145180827Y-111221290D02*
X144004628Y-110384892D01*
X144004628Y-110384892D02*
X142787429Y-109604574D01*
X142787429Y-109604574D02*
X141531115Y-108882222D01*
X141531115Y-108882222D02*
X140237570Y-108219721D01*
X140237570Y-108219721D02*
X138908680Y-107618956D01*
X138908680Y-107618956D02*
X137546330Y-107081811D01*
X137546330Y-107081811D02*
X136152404Y-106610171D01*
X136152404Y-106610171D02*
X134728788Y-106205922D01*
X134728788Y-106205922D02*
X133277367Y-105870947D01*
X133277367Y-105870947D02*
X131800025Y-105607134D01*
X131800025Y-105607134D02*
X130298648Y-105416365D01*
X130298648Y-105416365D02*
X128775120Y-105300526D01*
X128775120Y-105300526D02*
X127231327Y-105261503D01*
X127231327Y-165261463D02*
X128775139Y-165222438D01*
X128775139Y-165222438D02*
X130298685Y-165106597D01*
X130298685Y-165106597D02*
X131800080Y-164915824D01*
X131800080Y-164915824D02*
X133277439Y-164652004D01*
X133277439Y-164652004D02*
X134728876Y-164317022D01*
X134728876Y-164317022D02*
X136152506Y-163912764D01*
X136152506Y-163912764D02*
X137546445Y-163441114D01*
X137546445Y-163441114D02*
X138908808Y-162903958D01*
X138908808Y-162903958D02*
X140237709Y-162303179D01*
X140237709Y-162303179D02*
X141531264Y-161640664D01*
X141531264Y-161640664D02*
X142787587Y-160918298D01*
X142787587Y-160918298D02*
X144004794Y-160137964D01*
X144004794Y-160137964D02*
X145181000Y-159301549D01*
X145181000Y-159301549D02*
X146314318Y-158410938D01*
X146314318Y-158410938D02*
X147402866Y-157468015D01*
X147402866Y-157468015D02*
X148444757Y-156474665D01*
X148444757Y-156474665D02*
X149438106Y-155432774D01*
X149438106Y-155432774D02*
X150381029Y-154344226D01*
X150381029Y-154344226D02*
X151271640Y-153210906D01*
X151271640Y-153210906D02*
X152108054Y-152034700D01*
X152108054Y-152034700D02*
X152888388Y-150817493D01*
X152888388Y-150817493D02*
X153610754Y-149561169D01*
X153610754Y-149561169D02*
X154273269Y-148267613D01*
X154273269Y-148267613D02*
X154874047Y-146938711D01*
X154874047Y-146938711D02*
X155411204Y-145576348D01*
X155411204Y-145576348D02*
X155882854Y-144182408D01*
X155882854Y-144182408D02*
X156287113Y-142758776D01*
X156287113Y-142758776D02*
X156622095Y-141307338D01*
X156622095Y-141307338D02*
X156885915Y-139829979D01*
X156885915Y-139829979D02*
X157076689Y-138328583D01*
X157076689Y-138328583D02*
X157192531Y-136805036D01*
X157192531Y-136805036D02*
X157231557Y-135261223D01*
X120300000Y-164700000D02*
X120682870Y-164748154D01*
X120682870Y-164748154D02*
X121075095Y-164797018D01*
X121075095Y-164797018D02*
X121476107Y-164846068D01*
X121476107Y-164846068D02*
X121885340Y-164894777D01*
X121885340Y-164894777D02*
X122302229Y-164942621D01*
X122302229Y-164942621D02*
X122726207Y-164989073D01*
X122726207Y-164989073D02*
X123156708Y-165033608D01*
X123156708Y-165033608D02*
X123593166Y-165075701D01*
X123593166Y-165075701D02*
X124035014Y-165114826D01*
X124035014Y-165114826D02*
X124481686Y-165150458D01*
X124481686Y-165150458D02*
X124932617Y-165182071D01*
X124932617Y-165182071D02*
X125387240Y-165209139D01*
X125387240Y-165209139D02*
X125844988Y-165231139D01*
X125844988Y-165231139D02*
X126305296Y-165247542D01*
X126305296Y-165247542D02*
X126767598Y-165257826D01*
X126767598Y-165257826D02*
X127231327Y-165261463D01*
X104491108Y-162142793D02*
X104992253Y-162029654D01*
X104992253Y-162029654D02*
X105494552Y-161939973D01*
X105494552Y-161939973D02*
X105997806Y-161872648D01*
X105997806Y-161872648D02*
X106501819Y-161826577D01*
X106501819Y-161826577D02*
X107006392Y-161800659D01*
X107006392Y-161800659D02*
X107511328Y-161793794D01*
X107511328Y-161793794D02*
X108016429Y-161804879D01*
X108016429Y-161804879D02*
X108521497Y-161832813D01*
X108521497Y-161832813D02*
X109026336Y-161876495D01*
X109026336Y-161876495D02*
X109530747Y-161934824D01*
X109530747Y-161934824D02*
X110034532Y-162006698D01*
X110034532Y-162006698D02*
X110537495Y-162091016D01*
X110537495Y-162091016D02*
X111039437Y-162186677D01*
X111039437Y-162186677D02*
X111540161Y-162292579D01*
X111540161Y-162292579D02*
X112039469Y-162407621D01*
X112039469Y-162407621D02*
X112537164Y-162530701D01*
X112537164Y-162530701D02*
X113033048Y-162660719D01*
X113033048Y-162660719D02*
X113526924Y-162796573D01*
X113526924Y-162796573D02*
X114018593Y-162937162D01*
X114018593Y-162937162D02*
X114507858Y-163081384D01*
X114507858Y-163081384D02*
X114994522Y-163228138D01*
X114994522Y-163228138D02*
X115478386Y-163376323D01*
X115478386Y-163376323D02*
X115959254Y-163524838D01*
X115959254Y-163524838D02*
X116436928Y-163672580D01*
X116436928Y-163672580D02*
X116911209Y-163818449D01*
X116911209Y-163818449D02*
X117381901Y-163961344D01*
X117381901Y-163961344D02*
X117848806Y-164100163D01*
X117848806Y-164100163D02*
X118311726Y-164233804D01*
X118311726Y-164233804D02*
X118770464Y-164361168D01*
X118770464Y-164361168D02*
X119224822Y-164481151D01*
X119224822Y-164481151D02*
X119674602Y-164592653D01*
X119674602Y-164592653D02*
X120119607Y-164694573D01*
X100639663Y-163862583D02*
X100874091Y-163719180D01*
X100874091Y-163719180D02*
X101109655Y-163579645D01*
X101109655Y-163579645D02*
X101346289Y-163444173D01*
X101346289Y-163444173D02*
X101583931Y-163312963D01*
X101583931Y-163312963D02*
X101822517Y-163186212D01*
X101822517Y-163186212D02*
X102061984Y-163064118D01*
X102061984Y-163064118D02*
X102302267Y-162946878D01*
X102302267Y-162946878D02*
X102543305Y-162834691D01*
X102543305Y-162834691D02*
X102785032Y-162727754D01*
X102785032Y-162727754D02*
X103027386Y-162626264D01*
X103027386Y-162626264D02*
X103270302Y-162530420D01*
X103270302Y-162530420D02*
X103513718Y-162440418D01*
X103513718Y-162440418D02*
X103757571Y-162356457D01*
X103757571Y-162356457D02*
X104001795Y-162278734D01*
X104001795Y-162278734D02*
X104246329Y-162207446D01*
X104246329Y-162207446D02*
X104491108Y-162142793D01*
X80334443Y-170378463D02*
X81016507Y-170371170D01*
X81016507Y-170371170D02*
X81697316Y-170350630D01*
X81697316Y-170350630D02*
X82376688Y-170316901D01*
X82376688Y-170316901D02*
X83054441Y-170270040D01*
X83054441Y-170270040D02*
X83730396Y-170210107D01*
X83730396Y-170210107D02*
X84404371Y-170137159D01*
X84404371Y-170137159D02*
X85076185Y-170051254D01*
X85076185Y-170051254D02*
X85745656Y-169952450D01*
X85745656Y-169952450D02*
X86412605Y-169840806D01*
X86412605Y-169840806D02*
X87076849Y-169716379D01*
X87076849Y-169716379D02*
X87738208Y-169579228D01*
X87738208Y-169579228D02*
X88396501Y-169429410D01*
X88396501Y-169429410D02*
X89051547Y-169266984D01*
X89051547Y-169266984D02*
X89703164Y-169092008D01*
X89703164Y-169092008D02*
X90351172Y-168904539D01*
X90351172Y-168904539D02*
X90995390Y-168704637D01*
X90995390Y-168704637D02*
X91635636Y-168492359D01*
X91635636Y-168492359D02*
X92271730Y-168267763D01*
X92271730Y-168267763D02*
X92903490Y-168030908D01*
X92903490Y-168030908D02*
X93530736Y-167781850D01*
X93530736Y-167781850D02*
X94153287Y-167520650D01*
X94153287Y-167520650D02*
X94770961Y-167247363D01*
X94770961Y-167247363D02*
X95383577Y-166962050D01*
X95383577Y-166962050D02*
X95990955Y-166664767D01*
X95990955Y-166664767D02*
X96592913Y-166355573D01*
X96592913Y-166355573D02*
X97189270Y-166034526D01*
X97189270Y-166034526D02*
X97779846Y-165701684D01*
X97779846Y-165701684D02*
X98364459Y-165357105D01*
X98364459Y-165357105D02*
X98942928Y-165000847D01*
X98942928Y-165000847D02*
X99515072Y-164632969D01*
X99515072Y-164632969D02*
X100080711Y-164253528D01*
X100080711Y-164253528D02*
X100639663Y-163862583D01*
X45334514Y-135378533D02*
X45380059Y-137179623D01*
X45380059Y-137179623D02*
X45515221Y-138957069D01*
X45515221Y-138957069D02*
X45737801Y-140708672D01*
X45737801Y-140708672D02*
X46045599Y-142432233D01*
X46045599Y-142432233D02*
X46436418Y-144125553D01*
X46436418Y-144125553D02*
X46908056Y-145786432D01*
X46908056Y-145786432D02*
X47458317Y-147412672D01*
X47458317Y-147412672D02*
X48085000Y-149002073D01*
X48085000Y-149002073D02*
X48785906Y-150552437D01*
X48785906Y-150552437D02*
X49558836Y-152061563D01*
X49558836Y-152061563D02*
X50401591Y-153527254D01*
X50401591Y-153527254D02*
X51311972Y-154947310D01*
X51311972Y-154947310D02*
X52287780Y-156319531D01*
X52287780Y-156319531D02*
X53326816Y-157641720D01*
X53326816Y-157641720D02*
X54426881Y-158911676D01*
X54426881Y-158911676D02*
X55585775Y-160127201D01*
X55585775Y-160127201D02*
X56801300Y-161286095D01*
X56801300Y-161286095D02*
X58071256Y-162386159D01*
X58071256Y-162386159D02*
X59393444Y-163425195D01*
X59393444Y-163425195D02*
X60765666Y-164401004D01*
X60765666Y-164401004D02*
X62185722Y-165311385D01*
X62185722Y-165311385D02*
X63651412Y-166154140D01*
X63651412Y-166154140D02*
X65160539Y-166927070D01*
X65160539Y-166927070D02*
X66710902Y-167627976D01*
X66710902Y-167627976D02*
X68300303Y-168254659D01*
X68300303Y-168254659D02*
X69926543Y-168804920D01*
X69926543Y-168804920D02*
X71587422Y-169276558D01*
X71587422Y-169276558D02*
X73280742Y-169667377D01*
X73280742Y-169667377D02*
X75004303Y-169975175D01*
X75004303Y-169975175D02*
X76755906Y-170197755D01*
X76755906Y-170197755D02*
X78533352Y-170332917D01*
X78533352Y-170332917D02*
X80334443Y-170378463D01*
X80334443Y-100378603D02*
X78533352Y-100424148D01*
X78533352Y-100424148D02*
X76755906Y-100559310D01*
X76755906Y-100559310D02*
X75004303Y-100781890D01*
X75004303Y-100781890D02*
X73280742Y-101089688D01*
X73280742Y-101089688D02*
X71587422Y-101480507D01*
X71587422Y-101480507D02*
X69926543Y-101952146D01*
X69926543Y-101952146D02*
X68300303Y-102502406D01*
X68300303Y-102502406D02*
X66710902Y-103129089D01*
X66710902Y-103129089D02*
X65160539Y-103829995D01*
X65160539Y-103829995D02*
X63651412Y-104602925D01*
X63651412Y-104602925D02*
X62185722Y-105445680D01*
X62185722Y-105445680D02*
X60765666Y-106356062D01*
X60765666Y-106356062D02*
X59393444Y-107331870D01*
X59393444Y-107331870D02*
X58071256Y-108370906D01*
X58071256Y-108370906D02*
X56801300Y-109470970D01*
X56801300Y-109470970D02*
X55585775Y-110629865D01*
X55585775Y-110629865D02*
X54426881Y-111845389D01*
X54426881Y-111845389D02*
X53326816Y-113115346D01*
X53326816Y-113115346D02*
X52287780Y-114437534D01*
X52287780Y-114437534D02*
X51311972Y-115809756D01*
X51311972Y-115809756D02*
X50401591Y-117229811D01*
X50401591Y-117229811D02*
X49558836Y-118695502D01*
X49558836Y-118695502D02*
X48785906Y-120204629D01*
X48785906Y-120204629D02*
X48085000Y-121754992D01*
X48085000Y-121754992D02*
X47458317Y-123344393D01*
X47458317Y-123344393D02*
X46908056Y-124970633D01*
X46908056Y-124970633D02*
X46436418Y-126631512D01*
X46436418Y-126631512D02*
X46045599Y-128324832D01*
X46045599Y-128324832D02*
X45737801Y-130048393D01*
X45737801Y-130048393D02*
X45515221Y-131799996D01*
X45515221Y-131799996D02*
X45380059Y-133577442D01*
X45380059Y-133577442D02*
X45334514Y-135378533D01*
M02*
