%TF.GenerationSoftware,KiCad,Pcbnew,(5.1.9-0-10_14)*%
%TF.CreationDate,2021-08-25T11:14:01+08:00*%
%TF.ProjectId,osc_bjt_4017,6f73635f-626a-4745-9f34-3031372e6b69,rev?*%
%TF.SameCoordinates,Original*%
%TF.FileFunction,Soldermask,Bot*%
%TF.FilePolarity,Negative*%
%FSLAX46Y46*%
G04 Gerber Fmt 4.6, Leading zero omitted, Abs format (unit mm)*
G04 Created by KiCad (PCBNEW (5.1.9-0-10_14)) date 2021-08-25 11:14:01*
%MOMM*%
%LPD*%
G01*
G04 APERTURE LIST*
%ADD10C,0.010000*%
%ADD11O,2.200000X3.500000*%
%ADD12O,1.500000X2.500000*%
%ADD13R,1.500000X2.500000*%
%ADD14C,3.200000*%
%ADD15O,1.600000X1.600000*%
%ADD16C,1.600000*%
%ADD17C,0.100000*%
%ADD18C,1.700000*%
%ADD19C,1.800000*%
%ADD20R,1.800000X1.800000*%
%ADD21R,1.800000X1.100000*%
%ADD22C,3.000000*%
%ADD23R,3.000000X3.000000*%
%ADD24R,3.510000X2.540000*%
%ADD25O,2.400000X1.600000*%
%ADD26R,2.400000X1.600000*%
%ADD27C,2.000000*%
G04 APERTURE END LIST*
D10*
%TO.C,G\u002A\u002A\u002A*%
G36*
X85149503Y-114004511D02*
G01*
X85254265Y-113818454D01*
X85400931Y-113487829D01*
X85583650Y-113030524D01*
X85796570Y-112464430D01*
X86033838Y-111807438D01*
X86289603Y-111077438D01*
X86558013Y-110292320D01*
X86833217Y-109469974D01*
X87109362Y-108628291D01*
X87380597Y-107785160D01*
X87641071Y-106958473D01*
X87884930Y-106166119D01*
X88106323Y-105425989D01*
X88299399Y-104755973D01*
X88458306Y-104173962D01*
X88577191Y-103697845D01*
X88650204Y-103345513D01*
X88662620Y-103264131D01*
X88717561Y-102849973D01*
X88347848Y-102750420D01*
X87401977Y-102526068D01*
X86326316Y-102323111D01*
X85159502Y-102145433D01*
X83940171Y-101996918D01*
X82706958Y-101881449D01*
X81498502Y-101802912D01*
X80353436Y-101765190D01*
X79310398Y-101772166D01*
X78833667Y-101793972D01*
X78104751Y-101851770D01*
X77271378Y-101939409D01*
X76373048Y-102051052D01*
X75449257Y-102180865D01*
X74539503Y-102323013D01*
X73683284Y-102471662D01*
X72920098Y-102620977D01*
X72332149Y-102754400D01*
X72017298Y-102831898D01*
X71772445Y-102890539D01*
X71638253Y-102920642D01*
X71625369Y-102922666D01*
X71602056Y-102947635D01*
X71603143Y-103032618D01*
X71632542Y-103192730D01*
X71694165Y-103443085D01*
X71791925Y-103798800D01*
X71929736Y-104274987D01*
X72111509Y-104886764D01*
X72271531Y-105418778D01*
X72633228Y-106602988D01*
X72989182Y-107740851D01*
X73335333Y-108820764D01*
X73667621Y-109831121D01*
X73981989Y-110760318D01*
X74274375Y-111596750D01*
X74540722Y-112328813D01*
X74776969Y-112944902D01*
X74979057Y-113433411D01*
X75142927Y-113782737D01*
X75264521Y-113981275D01*
X75268194Y-113985622D01*
X75454244Y-114201917D01*
X76762955Y-114002125D01*
X77199170Y-113938763D01*
X77595554Y-113890107D01*
X77985502Y-113854299D01*
X78402405Y-113829485D01*
X78879654Y-113813809D01*
X79450643Y-113805414D01*
X80148762Y-113802445D01*
X80357667Y-113802333D01*
X81077600Y-113803835D01*
X81659337Y-113809553D01*
X82133998Y-113821304D01*
X82532701Y-113840905D01*
X82886568Y-113870174D01*
X83226719Y-113910928D01*
X83584272Y-113964984D01*
X83819828Y-114004511D01*
X84995988Y-114206688D01*
X85149503Y-114004511D01*
G37*
X85149503Y-114004511D02*
X85254265Y-113818454D01*
X85400931Y-113487829D01*
X85583650Y-113030524D01*
X85796570Y-112464430D01*
X86033838Y-111807438D01*
X86289603Y-111077438D01*
X86558013Y-110292320D01*
X86833217Y-109469974D01*
X87109362Y-108628291D01*
X87380597Y-107785160D01*
X87641071Y-106958473D01*
X87884930Y-106166119D01*
X88106323Y-105425989D01*
X88299399Y-104755973D01*
X88458306Y-104173962D01*
X88577191Y-103697845D01*
X88650204Y-103345513D01*
X88662620Y-103264131D01*
X88717561Y-102849973D01*
X88347848Y-102750420D01*
X87401977Y-102526068D01*
X86326316Y-102323111D01*
X85159502Y-102145433D01*
X83940171Y-101996918D01*
X82706958Y-101881449D01*
X81498502Y-101802912D01*
X80353436Y-101765190D01*
X79310398Y-101772166D01*
X78833667Y-101793972D01*
X78104751Y-101851770D01*
X77271378Y-101939409D01*
X76373048Y-102051052D01*
X75449257Y-102180865D01*
X74539503Y-102323013D01*
X73683284Y-102471662D01*
X72920098Y-102620977D01*
X72332149Y-102754400D01*
X72017298Y-102831898D01*
X71772445Y-102890539D01*
X71638253Y-102920642D01*
X71625369Y-102922666D01*
X71602056Y-102947635D01*
X71603143Y-103032618D01*
X71632542Y-103192730D01*
X71694165Y-103443085D01*
X71791925Y-103798800D01*
X71929736Y-104274987D01*
X72111509Y-104886764D01*
X72271531Y-105418778D01*
X72633228Y-106602988D01*
X72989182Y-107740851D01*
X73335333Y-108820764D01*
X73667621Y-109831121D01*
X73981989Y-110760318D01*
X74274375Y-111596750D01*
X74540722Y-112328813D01*
X74776969Y-112944902D01*
X74979057Y-113433411D01*
X75142927Y-113782737D01*
X75264521Y-113981275D01*
X75268194Y-113985622D01*
X75454244Y-114201917D01*
X76762955Y-114002125D01*
X77199170Y-113938763D01*
X77595554Y-113890107D01*
X77985502Y-113854299D01*
X78402405Y-113829485D01*
X78879654Y-113813809D01*
X79450643Y-113805414D01*
X80148762Y-113802445D01*
X80357667Y-113802333D01*
X81077600Y-113803835D01*
X81659337Y-113809553D01*
X82133998Y-113821304D01*
X82532701Y-113840905D01*
X82886568Y-113870174D01*
X83226719Y-113910928D01*
X83584272Y-113964984D01*
X83819828Y-114004511D01*
X84995988Y-114206688D01*
X85149503Y-114004511D01*
G36*
X96881010Y-121076534D02*
G01*
X97118439Y-120934121D01*
X97465974Y-120707742D01*
X97911058Y-120406375D01*
X98441134Y-120038999D01*
X99043644Y-119614593D01*
X99706031Y-119142138D01*
X100415736Y-118630610D01*
X101160203Y-118088991D01*
X101926873Y-117526259D01*
X102703189Y-116951392D01*
X103476593Y-116373371D01*
X104234529Y-115801175D01*
X104566117Y-115548811D01*
X106507233Y-114067489D01*
X104894527Y-112487040D01*
X103756184Y-111390831D01*
X102698910Y-110414874D01*
X101703214Y-109543177D01*
X100749605Y-108759750D01*
X99818594Y-108048602D01*
X98890690Y-107393743D01*
X97946401Y-106779184D01*
X97908511Y-106755523D01*
X97365942Y-106428961D01*
X96766975Y-106088671D01*
X96133060Y-105745027D01*
X95485649Y-105408404D01*
X94846193Y-105089178D01*
X94236146Y-104797724D01*
X93676957Y-104544417D01*
X93190080Y-104339632D01*
X92796965Y-104193744D01*
X92519065Y-104117128D01*
X92434457Y-104108000D01*
X92270147Y-104176211D01*
X92212258Y-104256166D01*
X92104168Y-104541261D01*
X91952035Y-104963175D01*
X91764060Y-105497656D01*
X91548444Y-106120452D01*
X91313388Y-106807310D01*
X91067092Y-107533977D01*
X90817759Y-108276200D01*
X90573588Y-109009727D01*
X90342780Y-109710306D01*
X90133537Y-110353682D01*
X89954058Y-110915605D01*
X89875284Y-111167344D01*
X89601370Y-112051177D01*
X89373482Y-112787484D01*
X89187398Y-113390445D01*
X89038901Y-113874240D01*
X88923771Y-114253051D01*
X88837790Y-114541058D01*
X88776739Y-114752442D01*
X88736398Y-114901384D01*
X88712549Y-115002064D01*
X88700973Y-115068664D01*
X88697451Y-115115364D01*
X88697334Y-115126702D01*
X88717691Y-115214934D01*
X88790827Y-115311990D01*
X88934840Y-115430261D01*
X89167828Y-115582141D01*
X89507889Y-115780024D01*
X89973120Y-116036302D01*
X90221334Y-116170324D01*
X91238960Y-116744963D01*
X92184917Y-117340314D01*
X93094298Y-117982123D01*
X94002199Y-118696139D01*
X94943714Y-119508108D01*
X95633227Y-120140737D01*
X95984185Y-120465289D01*
X96295188Y-120744828D01*
X96544333Y-120960309D01*
X96709718Y-121092685D01*
X96766246Y-121126000D01*
X96881010Y-121076534D01*
G37*
X96881010Y-121076534D02*
X97118439Y-120934121D01*
X97465974Y-120707742D01*
X97911058Y-120406375D01*
X98441134Y-120038999D01*
X99043644Y-119614593D01*
X99706031Y-119142138D01*
X100415736Y-118630610D01*
X101160203Y-118088991D01*
X101926873Y-117526259D01*
X102703189Y-116951392D01*
X103476593Y-116373371D01*
X104234529Y-115801175D01*
X104566117Y-115548811D01*
X106507233Y-114067489D01*
X104894527Y-112487040D01*
X103756184Y-111390831D01*
X102698910Y-110414874D01*
X101703214Y-109543177D01*
X100749605Y-108759750D01*
X99818594Y-108048602D01*
X98890690Y-107393743D01*
X97946401Y-106779184D01*
X97908511Y-106755523D01*
X97365942Y-106428961D01*
X96766975Y-106088671D01*
X96133060Y-105745027D01*
X95485649Y-105408404D01*
X94846193Y-105089178D01*
X94236146Y-104797724D01*
X93676957Y-104544417D01*
X93190080Y-104339632D01*
X92796965Y-104193744D01*
X92519065Y-104117128D01*
X92434457Y-104108000D01*
X92270147Y-104176211D01*
X92212258Y-104256166D01*
X92104168Y-104541261D01*
X91952035Y-104963175D01*
X91764060Y-105497656D01*
X91548444Y-106120452D01*
X91313388Y-106807310D01*
X91067092Y-107533977D01*
X90817759Y-108276200D01*
X90573588Y-109009727D01*
X90342780Y-109710306D01*
X90133537Y-110353682D01*
X89954058Y-110915605D01*
X89875284Y-111167344D01*
X89601370Y-112051177D01*
X89373482Y-112787484D01*
X89187398Y-113390445D01*
X89038901Y-113874240D01*
X88923771Y-114253051D01*
X88837790Y-114541058D01*
X88776739Y-114752442D01*
X88736398Y-114901384D01*
X88712549Y-115002064D01*
X88700973Y-115068664D01*
X88697451Y-115115364D01*
X88697334Y-115126702D01*
X88717691Y-115214934D01*
X88790827Y-115311990D01*
X88934840Y-115430261D01*
X89167828Y-115582141D01*
X89507889Y-115780024D01*
X89973120Y-116036302D01*
X90221334Y-116170324D01*
X91238960Y-116744963D01*
X92184917Y-117340314D01*
X93094298Y-117982123D01*
X94002199Y-118696139D01*
X94943714Y-119508108D01*
X95633227Y-120140737D01*
X95984185Y-120465289D01*
X96295188Y-120744828D01*
X96544333Y-120960309D01*
X96709718Y-121092685D01*
X96766246Y-121126000D01*
X96881010Y-121076534D01*
G36*
X63676416Y-121049170D02*
G01*
X63869599Y-120906899D01*
X64140671Y-120682325D01*
X64467909Y-120393357D01*
X64785278Y-120099842D01*
X65614549Y-119335272D01*
X66374682Y-118677076D01*
X67101601Y-118098834D01*
X67831233Y-117574121D01*
X68599502Y-117076516D01*
X69442334Y-116579595D01*
X69970427Y-116286230D01*
X70406750Y-116041788D01*
X70807849Y-115805364D01*
X71142108Y-115596475D01*
X71377907Y-115434637D01*
X71461363Y-115365927D01*
X71709059Y-115124018D01*
X71260654Y-113616509D01*
X71083971Y-113036731D01*
X70863803Y-112336870D01*
X70609685Y-111545494D01*
X70331150Y-110691171D01*
X70037731Y-109802470D01*
X69738965Y-108907957D01*
X69444384Y-108036201D01*
X69163522Y-107215771D01*
X68905915Y-106475234D01*
X68681095Y-105843157D01*
X68521122Y-105407777D01*
X68331345Y-104924178D01*
X68168906Y-104553205D01*
X68041420Y-104310890D01*
X67956502Y-104213260D01*
X67953223Y-104212407D01*
X67845338Y-104242233D01*
X67608139Y-104338825D01*
X67263313Y-104492317D01*
X66832547Y-104692843D01*
X66337527Y-104930534D01*
X65878890Y-105156188D01*
X64251599Y-106002229D01*
X62764397Y-106856288D01*
X61388511Y-107739002D01*
X60095167Y-108671007D01*
X58855593Y-109672938D01*
X57641014Y-110765433D01*
X56522997Y-111866152D01*
X55898682Y-112510055D01*
X55391871Y-113044712D01*
X54996682Y-113476851D01*
X54707236Y-113813201D01*
X54517650Y-114060490D01*
X54422043Y-114225446D01*
X54407334Y-114286508D01*
X54474411Y-114388323D01*
X54666867Y-114577539D01*
X54971541Y-114844187D01*
X55375270Y-115178302D01*
X55864893Y-115569918D01*
X56427248Y-116009068D01*
X57049173Y-116485786D01*
X57717505Y-116990105D01*
X58419083Y-117512061D01*
X59140745Y-118041685D01*
X59869329Y-118569012D01*
X60591673Y-119084076D01*
X61294614Y-119576911D01*
X61964993Y-120037549D01*
X62307166Y-120268289D01*
X62704270Y-120532277D01*
X63056837Y-120763299D01*
X63338912Y-120944610D01*
X63524537Y-121059467D01*
X63582843Y-121091229D01*
X63676416Y-121049170D01*
G37*
X63676416Y-121049170D02*
X63869599Y-120906899D01*
X64140671Y-120682325D01*
X64467909Y-120393357D01*
X64785278Y-120099842D01*
X65614549Y-119335272D01*
X66374682Y-118677076D01*
X67101601Y-118098834D01*
X67831233Y-117574121D01*
X68599502Y-117076516D01*
X69442334Y-116579595D01*
X69970427Y-116286230D01*
X70406750Y-116041788D01*
X70807849Y-115805364D01*
X71142108Y-115596475D01*
X71377907Y-115434637D01*
X71461363Y-115365927D01*
X71709059Y-115124018D01*
X71260654Y-113616509D01*
X71083971Y-113036731D01*
X70863803Y-112336870D01*
X70609685Y-111545494D01*
X70331150Y-110691171D01*
X70037731Y-109802470D01*
X69738965Y-108907957D01*
X69444384Y-108036201D01*
X69163522Y-107215771D01*
X68905915Y-106475234D01*
X68681095Y-105843157D01*
X68521122Y-105407777D01*
X68331345Y-104924178D01*
X68168906Y-104553205D01*
X68041420Y-104310890D01*
X67956502Y-104213260D01*
X67953223Y-104212407D01*
X67845338Y-104242233D01*
X67608139Y-104338825D01*
X67263313Y-104492317D01*
X66832547Y-104692843D01*
X66337527Y-104930534D01*
X65878890Y-105156188D01*
X64251599Y-106002229D01*
X62764397Y-106856288D01*
X61388511Y-107739002D01*
X60095167Y-108671007D01*
X58855593Y-109672938D01*
X57641014Y-110765433D01*
X56522997Y-111866152D01*
X55898682Y-112510055D01*
X55391871Y-113044712D01*
X54996682Y-113476851D01*
X54707236Y-113813201D01*
X54517650Y-114060490D01*
X54422043Y-114225446D01*
X54407334Y-114286508D01*
X54474411Y-114388323D01*
X54666867Y-114577539D01*
X54971541Y-114844187D01*
X55375270Y-115178302D01*
X55864893Y-115569918D01*
X56427248Y-116009068D01*
X57049173Y-116485786D01*
X57717505Y-116990105D01*
X58419083Y-117512061D01*
X59140745Y-118041685D01*
X59869329Y-118569012D01*
X60591673Y-119084076D01*
X61294614Y-119576911D01*
X61964993Y-120037549D01*
X62307166Y-120268289D01*
X62704270Y-120532277D01*
X63056837Y-120763299D01*
X63338912Y-120944610D01*
X63524537Y-121059467D01*
X63582843Y-121091229D01*
X63676416Y-121049170D01*
G36*
X113971715Y-133508500D02*
G01*
X113946765Y-133325009D01*
X113909840Y-133022952D01*
X113866923Y-132652141D01*
X113842061Y-132429000D01*
X113664697Y-131070697D01*
X113429415Y-129672609D01*
X113144591Y-128270301D01*
X112818604Y-126899337D01*
X112459829Y-125595282D01*
X112076643Y-124393700D01*
X111728456Y-123455675D01*
X111391763Y-122640311D01*
X111039486Y-121828840D01*
X110679651Y-121036703D01*
X110320287Y-120279343D01*
X109969421Y-119572200D01*
X109635081Y-118930717D01*
X109325294Y-118370335D01*
X109048088Y-117906496D01*
X108811491Y-117554641D01*
X108623530Y-117330213D01*
X108502280Y-117249881D01*
X108399011Y-117289560D01*
X108177408Y-117414489D01*
X107857359Y-117612097D01*
X107458750Y-117869811D01*
X107001469Y-118175061D01*
X106554947Y-118480897D01*
X105922803Y-118922228D01*
X105238120Y-119406068D01*
X104517106Y-119920511D01*
X103775967Y-120453652D01*
X103030910Y-120993585D01*
X102298140Y-121528405D01*
X101593865Y-122046208D01*
X100934291Y-122535086D01*
X100335625Y-122983136D01*
X99814072Y-123378451D01*
X99385840Y-123709127D01*
X99067135Y-123963257D01*
X98905602Y-124100146D01*
X98914681Y-124198024D01*
X98994446Y-124428475D01*
X99137595Y-124773769D01*
X99336823Y-125216176D01*
X99554369Y-125675131D01*
X100099846Y-126883771D01*
X100588239Y-128127510D01*
X101008677Y-129371978D01*
X101350291Y-130582804D01*
X101602212Y-131725617D01*
X101730453Y-132556000D01*
X101777032Y-132928654D01*
X101821126Y-133255057D01*
X101855992Y-133486364D01*
X101867801Y-133550833D01*
X101908560Y-133741333D01*
X114008434Y-133741333D01*
X113971715Y-133508500D01*
G37*
X113971715Y-133508500D02*
X113946765Y-133325009D01*
X113909840Y-133022952D01*
X113866923Y-132652141D01*
X113842061Y-132429000D01*
X113664697Y-131070697D01*
X113429415Y-129672609D01*
X113144591Y-128270301D01*
X112818604Y-126899337D01*
X112459829Y-125595282D01*
X112076643Y-124393700D01*
X111728456Y-123455675D01*
X111391763Y-122640311D01*
X111039486Y-121828840D01*
X110679651Y-121036703D01*
X110320287Y-120279343D01*
X109969421Y-119572200D01*
X109635081Y-118930717D01*
X109325294Y-118370335D01*
X109048088Y-117906496D01*
X108811491Y-117554641D01*
X108623530Y-117330213D01*
X108502280Y-117249881D01*
X108399011Y-117289560D01*
X108177408Y-117414489D01*
X107857359Y-117612097D01*
X107458750Y-117869811D01*
X107001469Y-118175061D01*
X106554947Y-118480897D01*
X105922803Y-118922228D01*
X105238120Y-119406068D01*
X104517106Y-119920511D01*
X103775967Y-120453652D01*
X103030910Y-120993585D01*
X102298140Y-121528405D01*
X101593865Y-122046208D01*
X100934291Y-122535086D01*
X100335625Y-122983136D01*
X99814072Y-123378451D01*
X99385840Y-123709127D01*
X99067135Y-123963257D01*
X98905602Y-124100146D01*
X98914681Y-124198024D01*
X98994446Y-124428475D01*
X99137595Y-124773769D01*
X99336823Y-125216176D01*
X99554369Y-125675131D01*
X100099846Y-126883771D01*
X100588239Y-128127510D01*
X101008677Y-129371978D01*
X101350291Y-130582804D01*
X101602212Y-131725617D01*
X101730453Y-132556000D01*
X101777032Y-132928654D01*
X101821126Y-133255057D01*
X101855992Y-133486364D01*
X101867801Y-133550833D01*
X101908560Y-133741333D01*
X114008434Y-133741333D01*
X113971715Y-133508500D01*
G36*
X58555615Y-133132417D02*
G01*
X58746603Y-132013937D01*
X58934173Y-131032220D01*
X59128057Y-130155208D01*
X59337988Y-129350841D01*
X59573697Y-128587062D01*
X59844919Y-127831812D01*
X60161384Y-127053032D01*
X60532826Y-126218663D01*
X60875465Y-125490933D01*
X61114538Y-124985293D01*
X61282817Y-124610378D01*
X61387578Y-124346649D01*
X61436094Y-124174567D01*
X61435642Y-124074593D01*
X61415171Y-124041349D01*
X61245169Y-123898141D01*
X60953440Y-123668806D01*
X60556313Y-123365267D01*
X60070122Y-122999443D01*
X59511197Y-122583258D01*
X58895871Y-122128630D01*
X58240474Y-121647483D01*
X57561338Y-121151737D01*
X56874796Y-120653312D01*
X56197178Y-120164132D01*
X55544816Y-119696115D01*
X54934043Y-119261185D01*
X54381188Y-118871261D01*
X53902584Y-118538265D01*
X53514563Y-118274118D01*
X53510939Y-118271693D01*
X53042957Y-117958381D01*
X52695279Y-117729337D01*
X52446293Y-117576450D01*
X52274386Y-117491612D01*
X52157946Y-117466712D01*
X52075361Y-117493641D01*
X52005017Y-117564290D01*
X51925304Y-117670548D01*
X51921667Y-117675355D01*
X51558075Y-118206372D01*
X51161755Y-118876573D01*
X50743328Y-119661451D01*
X50313412Y-120536498D01*
X49882627Y-121477207D01*
X49461591Y-122459072D01*
X49060924Y-123457584D01*
X48691246Y-124448236D01*
X48363174Y-125406521D01*
X48087328Y-126307931D01*
X47934961Y-126876067D01*
X47789466Y-127490841D01*
X47640210Y-128180760D01*
X47491880Y-128918495D01*
X47349159Y-129676718D01*
X47216734Y-130428100D01*
X47099289Y-131145313D01*
X47001508Y-131801027D01*
X46928078Y-132367914D01*
X46883682Y-132818645D01*
X46872219Y-133075292D01*
X46880457Y-133353885D01*
X46916396Y-133510303D01*
X46996382Y-133591321D01*
X47062500Y-133619783D01*
X47178125Y-133631835D01*
X47448507Y-133644152D01*
X47859070Y-133656485D01*
X48395238Y-133668581D01*
X49042436Y-133680192D01*
X49786087Y-133691066D01*
X50611615Y-133700954D01*
X51504446Y-133709605D01*
X52450002Y-133716769D01*
X52853688Y-133719242D01*
X58454375Y-133751168D01*
X58555615Y-133132417D01*
G37*
X58555615Y-133132417D02*
X58746603Y-132013937D01*
X58934173Y-131032220D01*
X59128057Y-130155208D01*
X59337988Y-129350841D01*
X59573697Y-128587062D01*
X59844919Y-127831812D01*
X60161384Y-127053032D01*
X60532826Y-126218663D01*
X60875465Y-125490933D01*
X61114538Y-124985293D01*
X61282817Y-124610378D01*
X61387578Y-124346649D01*
X61436094Y-124174567D01*
X61435642Y-124074593D01*
X61415171Y-124041349D01*
X61245169Y-123898141D01*
X60953440Y-123668806D01*
X60556313Y-123365267D01*
X60070122Y-122999443D01*
X59511197Y-122583258D01*
X58895871Y-122128630D01*
X58240474Y-121647483D01*
X57561338Y-121151737D01*
X56874796Y-120653312D01*
X56197178Y-120164132D01*
X55544816Y-119696115D01*
X54934043Y-119261185D01*
X54381188Y-118871261D01*
X53902584Y-118538265D01*
X53514563Y-118274118D01*
X53510939Y-118271693D01*
X53042957Y-117958381D01*
X52695279Y-117729337D01*
X52446293Y-117576450D01*
X52274386Y-117491612D01*
X52157946Y-117466712D01*
X52075361Y-117493641D01*
X52005017Y-117564290D01*
X51925304Y-117670548D01*
X51921667Y-117675355D01*
X51558075Y-118206372D01*
X51161755Y-118876573D01*
X50743328Y-119661451D01*
X50313412Y-120536498D01*
X49882627Y-121477207D01*
X49461591Y-122459072D01*
X49060924Y-123457584D01*
X48691246Y-124448236D01*
X48363174Y-125406521D01*
X48087328Y-126307931D01*
X47934961Y-126876067D01*
X47789466Y-127490841D01*
X47640210Y-128180760D01*
X47491880Y-128918495D01*
X47349159Y-129676718D01*
X47216734Y-130428100D01*
X47099289Y-131145313D01*
X47001508Y-131801027D01*
X46928078Y-132367914D01*
X46883682Y-132818645D01*
X46872219Y-133075292D01*
X46880457Y-133353885D01*
X46916396Y-133510303D01*
X46996382Y-133591321D01*
X47062500Y-133619783D01*
X47178125Y-133631835D01*
X47448507Y-133644152D01*
X47859070Y-133656485D01*
X48395238Y-133668581D01*
X49042436Y-133680192D01*
X49786087Y-133691066D01*
X50611615Y-133700954D01*
X51504446Y-133709605D01*
X52450002Y-133716769D01*
X52853688Y-133719242D01*
X58454375Y-133751168D01*
X58555615Y-133132417D01*
G36*
X52968326Y-153029598D02*
G01*
X53260062Y-152819888D01*
X53664489Y-152537112D01*
X54152692Y-152201066D01*
X54695763Y-151831545D01*
X55264787Y-151448342D01*
X55762000Y-151116879D01*
X56241713Y-150791916D01*
X56794458Y-150406019D01*
X57398493Y-149975368D01*
X58032081Y-149516143D01*
X58673482Y-149044524D01*
X59300956Y-148576691D01*
X59892764Y-148128824D01*
X60427167Y-147717103D01*
X60882425Y-147357708D01*
X61236800Y-147066818D01*
X61423268Y-146903369D01*
X61455629Y-146841019D01*
X61446697Y-146732301D01*
X61388243Y-146555638D01*
X61272037Y-146289454D01*
X61089848Y-145912173D01*
X60903040Y-145539541D01*
X60100845Y-143768301D01*
X59443761Y-141917603D01*
X58936939Y-140003302D01*
X58689070Y-138723682D01*
X58613601Y-138279382D01*
X58545689Y-137897823D01*
X58490837Y-137608546D01*
X58454548Y-137441092D01*
X58444668Y-137411779D01*
X58324040Y-137373800D01*
X58051689Y-137337886D01*
X57645215Y-137304368D01*
X57122221Y-137273580D01*
X56500308Y-137245855D01*
X55797076Y-137221526D01*
X55030127Y-137200925D01*
X54217062Y-137184386D01*
X53375483Y-137172242D01*
X52522990Y-137164825D01*
X51677185Y-137162468D01*
X50855670Y-137165505D01*
X50076044Y-137174269D01*
X49355910Y-137189092D01*
X48712869Y-137210307D01*
X48442504Y-137222570D01*
X47940932Y-137248654D01*
X47501437Y-137273246D01*
X47150426Y-137294724D01*
X46914308Y-137311467D01*
X46819492Y-137321855D01*
X46818906Y-137322205D01*
X46821873Y-137408260D01*
X46842358Y-137633844D01*
X46877431Y-137970390D01*
X46924161Y-138389332D01*
X46959737Y-138695153D01*
X47266714Y-140815771D01*
X47679962Y-142843849D01*
X48211590Y-144827583D01*
X48873703Y-146815170D01*
X49245888Y-147796081D01*
X49458218Y-148305520D01*
X49735221Y-148925754D01*
X50058821Y-149619839D01*
X50410942Y-150350833D01*
X50773507Y-151081792D01*
X51128441Y-151775774D01*
X51457668Y-152395835D01*
X51743111Y-152905033D01*
X51758848Y-152931930D01*
X52164318Y-153622860D01*
X52968326Y-153029598D01*
G37*
X52968326Y-153029598D02*
X53260062Y-152819888D01*
X53664489Y-152537112D01*
X54152692Y-152201066D01*
X54695763Y-151831545D01*
X55264787Y-151448342D01*
X55762000Y-151116879D01*
X56241713Y-150791916D01*
X56794458Y-150406019D01*
X57398493Y-149975368D01*
X58032081Y-149516143D01*
X58673482Y-149044524D01*
X59300956Y-148576691D01*
X59892764Y-148128824D01*
X60427167Y-147717103D01*
X60882425Y-147357708D01*
X61236800Y-147066818D01*
X61423268Y-146903369D01*
X61455629Y-146841019D01*
X61446697Y-146732301D01*
X61388243Y-146555638D01*
X61272037Y-146289454D01*
X61089848Y-145912173D01*
X60903040Y-145539541D01*
X60100845Y-143768301D01*
X59443761Y-141917603D01*
X58936939Y-140003302D01*
X58689070Y-138723682D01*
X58613601Y-138279382D01*
X58545689Y-137897823D01*
X58490837Y-137608546D01*
X58454548Y-137441092D01*
X58444668Y-137411779D01*
X58324040Y-137373800D01*
X58051689Y-137337886D01*
X57645215Y-137304368D01*
X57122221Y-137273580D01*
X56500308Y-137245855D01*
X55797076Y-137221526D01*
X55030127Y-137200925D01*
X54217062Y-137184386D01*
X53375483Y-137172242D01*
X52522990Y-137164825D01*
X51677185Y-137162468D01*
X50855670Y-137165505D01*
X50076044Y-137174269D01*
X49355910Y-137189092D01*
X48712869Y-137210307D01*
X48442504Y-137222570D01*
X47940932Y-137248654D01*
X47501437Y-137273246D01*
X47150426Y-137294724D01*
X46914308Y-137311467D01*
X46819492Y-137321855D01*
X46818906Y-137322205D01*
X46821873Y-137408260D01*
X46842358Y-137633844D01*
X46877431Y-137970390D01*
X46924161Y-138389332D01*
X46959737Y-138695153D01*
X47266714Y-140815771D01*
X47679962Y-142843849D01*
X48211590Y-144827583D01*
X48873703Y-146815170D01*
X49245888Y-147796081D01*
X49458218Y-148305520D01*
X49735221Y-148925754D01*
X50058821Y-149619839D01*
X50410942Y-150350833D01*
X50773507Y-151081792D01*
X51128441Y-151775774D01*
X51457668Y-152395835D01*
X51743111Y-152905033D01*
X51758848Y-152931930D01*
X52164318Y-153622860D01*
X52968326Y-153029598D01*
G36*
X108705213Y-153382295D02*
G01*
X108858886Y-153167709D01*
X109069569Y-152818468D01*
X109327034Y-152355331D01*
X109621055Y-151799054D01*
X109941403Y-151170396D01*
X110277851Y-150490115D01*
X110620172Y-149778967D01*
X110958139Y-149057712D01*
X111281523Y-148347105D01*
X111580098Y-147667906D01*
X111843635Y-147040871D01*
X111907867Y-146882183D01*
X112178907Y-146136910D01*
X112453579Y-145253022D01*
X112725129Y-144260919D01*
X112986807Y-143191000D01*
X113231857Y-142073664D01*
X113453528Y-140939312D01*
X113645067Y-139818343D01*
X113799720Y-138741156D01*
X113889201Y-137962842D01*
X113945726Y-137400683D01*
X113450030Y-137346443D01*
X112836600Y-137291961D01*
X112080646Y-137245449D01*
X111208801Y-137207240D01*
X110247701Y-137177672D01*
X109223983Y-137157078D01*
X108164282Y-137145794D01*
X107095233Y-137144156D01*
X106043473Y-137152499D01*
X105035635Y-137171158D01*
X104098357Y-137200469D01*
X103598667Y-137222427D01*
X103118574Y-137247105D01*
X102689103Y-137270936D01*
X102342636Y-137291986D01*
X102111554Y-137308322D01*
X102037955Y-137315587D01*
X101965899Y-137345525D01*
X101908063Y-137429398D01*
X101856441Y-137594398D01*
X101803028Y-137867720D01*
X101739817Y-138276558D01*
X101725113Y-138378246D01*
X101448073Y-139918155D01*
X101056572Y-141454039D01*
X100541093Y-143018780D01*
X99950974Y-144507862D01*
X99662498Y-145194132D01*
X99440886Y-145742515D01*
X99280632Y-146168213D01*
X99176229Y-146486428D01*
X99122172Y-146712362D01*
X99111334Y-146825982D01*
X99131283Y-146912175D01*
X99200313Y-147020612D01*
X99332195Y-147163583D01*
X99540702Y-147353378D01*
X99839604Y-147602287D01*
X100242675Y-147922598D01*
X100763687Y-148326602D01*
X100974000Y-148488169D01*
X101496236Y-148881806D01*
X102095744Y-149322014D01*
X102753224Y-149795558D01*
X103449373Y-150289202D01*
X104164891Y-150789713D01*
X104880477Y-151283854D01*
X105576828Y-151758392D01*
X106234644Y-152200092D01*
X106834623Y-152595717D01*
X107357464Y-152932035D01*
X107783866Y-153195809D01*
X108094528Y-153373805D01*
X108113912Y-153384000D01*
X108520093Y-153595666D01*
X108705213Y-153382295D01*
G37*
X108705213Y-153382295D02*
X108858886Y-153167709D01*
X109069569Y-152818468D01*
X109327034Y-152355331D01*
X109621055Y-151799054D01*
X109941403Y-151170396D01*
X110277851Y-150490115D01*
X110620172Y-149778967D01*
X110958139Y-149057712D01*
X111281523Y-148347105D01*
X111580098Y-147667906D01*
X111843635Y-147040871D01*
X111907867Y-146882183D01*
X112178907Y-146136910D01*
X112453579Y-145253022D01*
X112725129Y-144260919D01*
X112986807Y-143191000D01*
X113231857Y-142073664D01*
X113453528Y-140939312D01*
X113645067Y-139818343D01*
X113799720Y-138741156D01*
X113889201Y-137962842D01*
X113945726Y-137400683D01*
X113450030Y-137346443D01*
X112836600Y-137291961D01*
X112080646Y-137245449D01*
X111208801Y-137207240D01*
X110247701Y-137177672D01*
X109223983Y-137157078D01*
X108164282Y-137145794D01*
X107095233Y-137144156D01*
X106043473Y-137152499D01*
X105035635Y-137171158D01*
X104098357Y-137200469D01*
X103598667Y-137222427D01*
X103118574Y-137247105D01*
X102689103Y-137270936D01*
X102342636Y-137291986D01*
X102111554Y-137308322D01*
X102037955Y-137315587D01*
X101965899Y-137345525D01*
X101908063Y-137429398D01*
X101856441Y-137594398D01*
X101803028Y-137867720D01*
X101739817Y-138276558D01*
X101725113Y-138378246D01*
X101448073Y-139918155D01*
X101056572Y-141454039D01*
X100541093Y-143018780D01*
X99950974Y-144507862D01*
X99662498Y-145194132D01*
X99440886Y-145742515D01*
X99280632Y-146168213D01*
X99176229Y-146486428D01*
X99122172Y-146712362D01*
X99111334Y-146825982D01*
X99131283Y-146912175D01*
X99200313Y-147020612D01*
X99332195Y-147163583D01*
X99540702Y-147353378D01*
X99839604Y-147602287D01*
X100242675Y-147922598D01*
X100763687Y-148326602D01*
X100974000Y-148488169D01*
X101496236Y-148881806D01*
X102095744Y-149322014D01*
X102753224Y-149795558D01*
X103449373Y-150289202D01*
X104164891Y-150789713D01*
X104880477Y-151283854D01*
X105576828Y-151758392D01*
X106234644Y-152200092D01*
X106834623Y-152595717D01*
X107357464Y-152932035D01*
X107783866Y-153195809D01*
X108094528Y-153373805D01*
X108113912Y-153384000D01*
X108520093Y-153595666D01*
X108705213Y-153382295D01*
G36*
X68132371Y-166616829D02*
G01*
X68199866Y-166495081D01*
X68311505Y-166228233D01*
X68461805Y-165833082D01*
X68645289Y-165326428D01*
X68856475Y-164725068D01*
X69089884Y-164045803D01*
X69340037Y-163305430D01*
X69601453Y-162520747D01*
X69868653Y-161708554D01*
X70136157Y-160885650D01*
X70398485Y-160068832D01*
X70650157Y-159274899D01*
X70885694Y-158520651D01*
X71099615Y-157822885D01*
X71286441Y-157198400D01*
X71440692Y-156663995D01*
X71556888Y-156236468D01*
X71629549Y-155932619D01*
X71645630Y-155846778D01*
X71671047Y-155638462D01*
X71636618Y-155519357D01*
X71506463Y-155434396D01*
X71329774Y-155362054D01*
X70553156Y-155011926D01*
X69695172Y-154544749D01*
X68778971Y-153976704D01*
X67827701Y-153323970D01*
X66864514Y-152602728D01*
X65912558Y-151829159D01*
X64994984Y-151019442D01*
X64639450Y-150685890D01*
X64305361Y-150368623D01*
X64015964Y-150097657D01*
X63792381Y-149892458D01*
X63655731Y-149772492D01*
X63623450Y-149749455D01*
X63546348Y-149798723D01*
X63365945Y-149925051D01*
X63115314Y-150105123D01*
X63001000Y-150188295D01*
X62767403Y-150354770D01*
X62419519Y-150597287D01*
X61983775Y-150897693D01*
X61486597Y-151237829D01*
X60954411Y-151599540D01*
X60503334Y-151904290D01*
X59875265Y-152330139D01*
X59181064Y-152805501D01*
X58467549Y-153298008D01*
X57781535Y-153775292D01*
X57169839Y-154204985D01*
X56943815Y-154365283D01*
X56440957Y-154722308D01*
X55948710Y-155070127D01*
X55495489Y-155388788D01*
X55109709Y-155658336D01*
X54819788Y-155858818D01*
X54723996Y-155924000D01*
X54460756Y-156106910D01*
X54262121Y-156255379D01*
X54161861Y-156343817D01*
X54156015Y-156354362D01*
X54208799Y-156429988D01*
X54357456Y-156611586D01*
X54584844Y-156879025D01*
X54873825Y-157212174D01*
X55207256Y-157590902D01*
X55246912Y-157635607D01*
X56579146Y-159037297D01*
X58053933Y-160407421D01*
X59644828Y-161725059D01*
X61325383Y-162969292D01*
X63069154Y-164119200D01*
X64528007Y-164977255D01*
X64953076Y-165206114D01*
X65427103Y-165448762D01*
X65926229Y-165694346D01*
X66426597Y-165932013D01*
X66904347Y-166150911D01*
X67335621Y-166340187D01*
X67696561Y-166488988D01*
X67963308Y-166586460D01*
X68112003Y-166621751D01*
X68132371Y-166616829D01*
G37*
X68132371Y-166616829D02*
X68199866Y-166495081D01*
X68311505Y-166228233D01*
X68461805Y-165833082D01*
X68645289Y-165326428D01*
X68856475Y-164725068D01*
X69089884Y-164045803D01*
X69340037Y-163305430D01*
X69601453Y-162520747D01*
X69868653Y-161708554D01*
X70136157Y-160885650D01*
X70398485Y-160068832D01*
X70650157Y-159274899D01*
X70885694Y-158520651D01*
X71099615Y-157822885D01*
X71286441Y-157198400D01*
X71440692Y-156663995D01*
X71556888Y-156236468D01*
X71629549Y-155932619D01*
X71645630Y-155846778D01*
X71671047Y-155638462D01*
X71636618Y-155519357D01*
X71506463Y-155434396D01*
X71329774Y-155362054D01*
X70553156Y-155011926D01*
X69695172Y-154544749D01*
X68778971Y-153976704D01*
X67827701Y-153323970D01*
X66864514Y-152602728D01*
X65912558Y-151829159D01*
X64994984Y-151019442D01*
X64639450Y-150685890D01*
X64305361Y-150368623D01*
X64015964Y-150097657D01*
X63792381Y-149892458D01*
X63655731Y-149772492D01*
X63623450Y-149749455D01*
X63546348Y-149798723D01*
X63365945Y-149925051D01*
X63115314Y-150105123D01*
X63001000Y-150188295D01*
X62767403Y-150354770D01*
X62419519Y-150597287D01*
X61983775Y-150897693D01*
X61486597Y-151237829D01*
X60954411Y-151599540D01*
X60503334Y-151904290D01*
X59875265Y-152330139D01*
X59181064Y-152805501D01*
X58467549Y-153298008D01*
X57781535Y-153775292D01*
X57169839Y-154204985D01*
X56943815Y-154365283D01*
X56440957Y-154722308D01*
X55948710Y-155070127D01*
X55495489Y-155388788D01*
X55109709Y-155658336D01*
X54819788Y-155858818D01*
X54723996Y-155924000D01*
X54460756Y-156106910D01*
X54262121Y-156255379D01*
X54161861Y-156343817D01*
X54156015Y-156354362D01*
X54208799Y-156429988D01*
X54357456Y-156611586D01*
X54584844Y-156879025D01*
X54873825Y-157212174D01*
X55207256Y-157590902D01*
X55246912Y-157635607D01*
X56579146Y-159037297D01*
X58053933Y-160407421D01*
X59644828Y-161725059D01*
X61325383Y-162969292D01*
X63069154Y-164119200D01*
X64528007Y-164977255D01*
X64953076Y-165206114D01*
X65427103Y-165448762D01*
X65926229Y-165694346D01*
X66426597Y-165932013D01*
X66904347Y-166150911D01*
X67335621Y-166340187D01*
X67696561Y-166488988D01*
X67963308Y-166586460D01*
X68112003Y-166621751D01*
X68132371Y-166616829D01*
G36*
X92828495Y-166608159D02*
G01*
X92863519Y-166597910D01*
X93182967Y-166480867D01*
X93623785Y-166286795D01*
X94163404Y-166027854D01*
X94779255Y-165716208D01*
X95448768Y-165364016D01*
X96149373Y-164983442D01*
X96858502Y-164586647D01*
X97553585Y-164185791D01*
X98212051Y-163793038D01*
X98811333Y-163420549D01*
X99069000Y-163254056D01*
X99777957Y-162761259D01*
X100569431Y-162162255D01*
X101416540Y-161480086D01*
X102292399Y-160737794D01*
X103170126Y-159958421D01*
X104022839Y-159165010D01*
X104823654Y-158380601D01*
X105178217Y-158017689D01*
X105563969Y-157609005D01*
X105837859Y-157297072D01*
X106011631Y-157062903D01*
X106097028Y-156887511D01*
X106105795Y-156751907D01*
X106049675Y-156637106D01*
X106039829Y-156624668D01*
X105884052Y-156468015D01*
X105611126Y-156230938D01*
X105235255Y-155923779D01*
X104770639Y-155556879D01*
X104231482Y-155140580D01*
X103631986Y-154685223D01*
X102986353Y-154201150D01*
X102308786Y-153698702D01*
X101613487Y-153188220D01*
X100914659Y-152680047D01*
X100226504Y-152184524D01*
X99563223Y-151711992D01*
X98939021Y-151272793D01*
X98368099Y-150877268D01*
X97864659Y-150535758D01*
X97442904Y-150258607D01*
X97117036Y-150056153D01*
X96901258Y-149938741D01*
X96821984Y-149912666D01*
X96661128Y-149961603D01*
X96458032Y-150081159D01*
X96434585Y-150098526D01*
X96285418Y-150222024D01*
X96041931Y-150434757D01*
X95733651Y-150710479D01*
X95390104Y-151022945D01*
X95259000Y-151143505D01*
X94044745Y-152211661D01*
X92868807Y-153137370D01*
X91708961Y-153936330D01*
X90542984Y-154624235D01*
X89771197Y-155019296D01*
X88686060Y-155543000D01*
X88733125Y-155848580D01*
X88786598Y-156099345D01*
X88889186Y-156490500D01*
X89034553Y-157002437D01*
X89216362Y-157615549D01*
X89428278Y-158310229D01*
X89663964Y-159066870D01*
X89917085Y-159865864D01*
X90181305Y-160687605D01*
X90450288Y-161512484D01*
X90717697Y-162320895D01*
X90977197Y-163093230D01*
X91222453Y-163809882D01*
X91447127Y-164451244D01*
X91644884Y-164997709D01*
X91809389Y-165429669D01*
X91901870Y-165654582D01*
X92092057Y-166084654D01*
X92239724Y-166378586D01*
X92366037Y-166557141D01*
X92492159Y-166641080D01*
X92639257Y-166651166D01*
X92828495Y-166608159D01*
G37*
X92828495Y-166608159D02*
X92863519Y-166597910D01*
X93182967Y-166480867D01*
X93623785Y-166286795D01*
X94163404Y-166027854D01*
X94779255Y-165716208D01*
X95448768Y-165364016D01*
X96149373Y-164983442D01*
X96858502Y-164586647D01*
X97553585Y-164185791D01*
X98212051Y-163793038D01*
X98811333Y-163420549D01*
X99069000Y-163254056D01*
X99777957Y-162761259D01*
X100569431Y-162162255D01*
X101416540Y-161480086D01*
X102292399Y-160737794D01*
X103170126Y-159958421D01*
X104022839Y-159165010D01*
X104823654Y-158380601D01*
X105178217Y-158017689D01*
X105563969Y-157609005D01*
X105837859Y-157297072D01*
X106011631Y-157062903D01*
X106097028Y-156887511D01*
X106105795Y-156751907D01*
X106049675Y-156637106D01*
X106039829Y-156624668D01*
X105884052Y-156468015D01*
X105611126Y-156230938D01*
X105235255Y-155923779D01*
X104770639Y-155556879D01*
X104231482Y-155140580D01*
X103631986Y-154685223D01*
X102986353Y-154201150D01*
X102308786Y-153698702D01*
X101613487Y-153188220D01*
X100914659Y-152680047D01*
X100226504Y-152184524D01*
X99563223Y-151711992D01*
X98939021Y-151272793D01*
X98368099Y-150877268D01*
X97864659Y-150535758D01*
X97442904Y-150258607D01*
X97117036Y-150056153D01*
X96901258Y-149938741D01*
X96821984Y-149912666D01*
X96661128Y-149961603D01*
X96458032Y-150081159D01*
X96434585Y-150098526D01*
X96285418Y-150222024D01*
X96041931Y-150434757D01*
X95733651Y-150710479D01*
X95390104Y-151022945D01*
X95259000Y-151143505D01*
X94044745Y-152211661D01*
X92868807Y-153137370D01*
X91708961Y-153936330D01*
X90542984Y-154624235D01*
X89771197Y-155019296D01*
X88686060Y-155543000D01*
X88733125Y-155848580D01*
X88786598Y-156099345D01*
X88889186Y-156490500D01*
X89034553Y-157002437D01*
X89216362Y-157615549D01*
X89428278Y-158310229D01*
X89663964Y-159066870D01*
X89917085Y-159865864D01*
X90181305Y-160687605D01*
X90450288Y-161512484D01*
X90717697Y-162320895D01*
X90977197Y-163093230D01*
X91222453Y-163809882D01*
X91447127Y-164451244D01*
X91644884Y-164997709D01*
X91809389Y-165429669D01*
X91901870Y-165654582D01*
X92092057Y-166084654D01*
X92239724Y-166378586D01*
X92366037Y-166557141D01*
X92492159Y-166641080D01*
X92639257Y-166651166D01*
X92828495Y-166608159D01*
G36*
X82722218Y-168862149D02*
G01*
X84731540Y-168673725D01*
X86673652Y-168375553D01*
X87951630Y-168107628D01*
X88312526Y-168017508D01*
X88536830Y-167944156D01*
X88654504Y-167873768D01*
X88695505Y-167792540D01*
X88697334Y-167764030D01*
X88671135Y-167590445D01*
X88596072Y-167273496D01*
X88477441Y-166830258D01*
X88320540Y-166277803D01*
X88130666Y-165633207D01*
X87913117Y-164913542D01*
X87673191Y-164135884D01*
X87416184Y-163317304D01*
X87147394Y-162474879D01*
X86872119Y-161625680D01*
X86595656Y-160786783D01*
X86323303Y-159975261D01*
X86060356Y-159208187D01*
X85904806Y-158763627D01*
X85713113Y-158223041D01*
X85539346Y-157737552D01*
X85391575Y-157329339D01*
X85277872Y-157020584D01*
X85206306Y-156833467D01*
X85185398Y-156786509D01*
X85093824Y-156785765D01*
X84868879Y-156808164D01*
X84544349Y-156849768D01*
X84154017Y-156906640D01*
X84151993Y-156906950D01*
X83837734Y-156950820D01*
X83513354Y-156985727D01*
X83155448Y-157012571D01*
X82740614Y-157032251D01*
X82245448Y-157045665D01*
X81646547Y-157053712D01*
X80920506Y-157057291D01*
X80230667Y-157057539D01*
X79422656Y-157053745D01*
X78672197Y-157044421D01*
X78000763Y-157030161D01*
X77429824Y-157011558D01*
X76980853Y-156989206D01*
X76675322Y-156963697D01*
X76632334Y-156958129D01*
X76248838Y-156903532D01*
X75873860Y-156850195D01*
X75583729Y-156808973D01*
X75565500Y-156806386D01*
X75175999Y-156751122D01*
X74731529Y-158009728D01*
X74302169Y-159238376D01*
X73895586Y-160427133D01*
X73514966Y-161565378D01*
X73163497Y-162642494D01*
X72844368Y-163647861D01*
X72560765Y-164570862D01*
X72315876Y-165400878D01*
X72112889Y-166127290D01*
X71954992Y-166739480D01*
X71845371Y-167226829D01*
X71787215Y-167578719D01*
X71783711Y-167784531D01*
X71790147Y-167808015D01*
X71898270Y-167886911D01*
X72156137Y-167980265D01*
X72545120Y-168084496D01*
X73046595Y-168196023D01*
X73641933Y-168311265D01*
X74312510Y-168426640D01*
X75039699Y-168538567D01*
X75804873Y-168643465D01*
X76589406Y-168737752D01*
X76674667Y-168747167D01*
X78655414Y-168901045D01*
X80684053Y-168938647D01*
X82722218Y-168862149D01*
G37*
X82722218Y-168862149D02*
X84731540Y-168673725D01*
X86673652Y-168375553D01*
X87951630Y-168107628D01*
X88312526Y-168017508D01*
X88536830Y-167944156D01*
X88654504Y-167873768D01*
X88695505Y-167792540D01*
X88697334Y-167764030D01*
X88671135Y-167590445D01*
X88596072Y-167273496D01*
X88477441Y-166830258D01*
X88320540Y-166277803D01*
X88130666Y-165633207D01*
X87913117Y-164913542D01*
X87673191Y-164135884D01*
X87416184Y-163317304D01*
X87147394Y-162474879D01*
X86872119Y-161625680D01*
X86595656Y-160786783D01*
X86323303Y-159975261D01*
X86060356Y-159208187D01*
X85904806Y-158763627D01*
X85713113Y-158223041D01*
X85539346Y-157737552D01*
X85391575Y-157329339D01*
X85277872Y-157020584D01*
X85206306Y-156833467D01*
X85185398Y-156786509D01*
X85093824Y-156785765D01*
X84868879Y-156808164D01*
X84544349Y-156849768D01*
X84154017Y-156906640D01*
X84151993Y-156906950D01*
X83837734Y-156950820D01*
X83513354Y-156985727D01*
X83155448Y-157012571D01*
X82740614Y-157032251D01*
X82245448Y-157045665D01*
X81646547Y-157053712D01*
X80920506Y-157057291D01*
X80230667Y-157057539D01*
X79422656Y-157053745D01*
X78672197Y-157044421D01*
X78000763Y-157030161D01*
X77429824Y-157011558D01*
X76980853Y-156989206D01*
X76675322Y-156963697D01*
X76632334Y-156958129D01*
X76248838Y-156903532D01*
X75873860Y-156850195D01*
X75583729Y-156808973D01*
X75565500Y-156806386D01*
X75175999Y-156751122D01*
X74731529Y-158009728D01*
X74302169Y-159238376D01*
X73895586Y-160427133D01*
X73514966Y-161565378D01*
X73163497Y-162642494D01*
X72844368Y-163647861D01*
X72560765Y-164570862D01*
X72315876Y-165400878D01*
X72112889Y-166127290D01*
X71954992Y-166739480D01*
X71845371Y-167226829D01*
X71787215Y-167578719D01*
X71783711Y-167784531D01*
X71790147Y-167808015D01*
X71898270Y-167886911D01*
X72156137Y-167980265D01*
X72545120Y-168084496D01*
X73046595Y-168196023D01*
X73641933Y-168311265D01*
X74312510Y-168426640D01*
X75039699Y-168538567D01*
X75804873Y-168643465D01*
X76589406Y-168737752D01*
X76674667Y-168747167D01*
X78655414Y-168901045D01*
X80684053Y-168938647D01*
X82722218Y-168862149D01*
%TD*%
D11*
%TO.C,SW4*%
X111750000Y-111300000D03*
X119950000Y-111300000D03*
D12*
X113850000Y-111300000D03*
X115850000Y-111300000D03*
D13*
X117850000Y-111300000D03*
%TD*%
D11*
%TO.C,SW3*%
X119850000Y-159150000D03*
X111650000Y-159150000D03*
D12*
X117750000Y-159150000D03*
X115750000Y-159150000D03*
D13*
X113750000Y-159150000D03*
%TD*%
D14*
%TO.C,H1*%
X152200000Y-135200000D03*
%TD*%
D15*
%TO.C,R5*%
X123400000Y-157960000D03*
D16*
X123400000Y-160500000D03*
%TD*%
D15*
%TO.C,R4*%
X92260000Y-135900000D03*
D16*
X94800000Y-135900000D03*
%TD*%
%TO.C,R3*%
G36*
G01*
X142030366Y-112530366D02*
X142030366Y-112530366D01*
G75*
G02*
X143161736Y-112530366I565685J-565685D01*
G01*
X143161736Y-112530366D01*
G75*
G02*
X143161736Y-113661736I-565685J-565685D01*
G01*
X143161736Y-113661736D01*
G75*
G02*
X142030366Y-113661736I-565685J565685D01*
G01*
X142030366Y-113661736D01*
G75*
G02*
X142030366Y-112530366I565685J565685D01*
G01*
G37*
X140800000Y-111300000D03*
%TD*%
%TO.C,R2*%
G36*
G01*
X147330366Y-115130366D02*
X147330366Y-115130366D01*
G75*
G02*
X148461736Y-115130366I565685J-565685D01*
G01*
X148461736Y-115130366D01*
G75*
G02*
X148461736Y-116261736I-565685J-565685D01*
G01*
X148461736Y-116261736D01*
G75*
G02*
X147330366Y-116261736I-565685J565685D01*
G01*
X147330366Y-116261736D01*
G75*
G02*
X147330366Y-115130366I565685J565685D01*
G01*
G37*
X146100000Y-113900000D03*
%TD*%
D15*
%TO.C,R1*%
X137900000Y-158160000D03*
D16*
X137900000Y-160700000D03*
%TD*%
%TO.C,C3*%
X144517767Y-155982233D03*
D17*
G36*
X142750000Y-158881371D02*
G01*
X141618629Y-157750000D01*
X142750000Y-156618629D01*
X143881371Y-157750000D01*
X142750000Y-158881371D01*
G37*
%TD*%
D18*
%TO.C,SW1*%
X123500000Y-131700000D03*
X123500000Y-138200000D03*
X119000000Y-131700000D03*
X119000000Y-138200000D03*
%TD*%
D19*
%TO.C,D10*%
X90796051Y-122096051D03*
D17*
G36*
X87727208Y-120300000D02*
G01*
X89000000Y-119027208D01*
X90272792Y-120300000D01*
X89000000Y-121572792D01*
X87727208Y-120300000D01*
G37*
%TD*%
D19*
%TO.C,D9*%
X96000000Y-129540000D03*
D20*
X96000000Y-127000000D03*
%TD*%
D19*
%TO.C,D8*%
X95600000Y-144640000D03*
D20*
X95600000Y-142100000D03*
%TD*%
D19*
%TO.C,D7*%
X88703949Y-150696051D03*
D17*
G36*
X90500000Y-147627208D02*
G01*
X91772792Y-148900000D01*
X90500000Y-150172792D01*
X89227208Y-148900000D01*
X90500000Y-147627208D01*
G37*
%TD*%
D19*
%TO.C,D6*%
X79060000Y-151900000D03*
D20*
X81600000Y-151900000D03*
%TD*%
D19*
%TO.C,D5*%
X70503949Y-148503949D03*
D17*
G36*
X73572792Y-150300000D02*
G01*
X72300000Y-151572792D01*
X71027208Y-150300000D01*
X72300000Y-149027208D01*
X73572792Y-150300000D01*
G37*
%TD*%
D19*
%TO.C,D4*%
X65900000Y-142560000D03*
D20*
X65900000Y-145100000D03*
%TD*%
D19*
%TO.C,D3*%
X66000000Y-126560000D03*
D20*
X66000000Y-129100000D03*
%TD*%
D19*
%TO.C,D2*%
X73796051Y-119903949D03*
D17*
G36*
X72000000Y-122972792D02*
G01*
X70727208Y-121700000D01*
X72000000Y-120427208D01*
X73272792Y-121700000D01*
X72000000Y-122972792D01*
G37*
%TD*%
D19*
%TO.C,D1*%
X81640000Y-118200000D03*
D20*
X79100000Y-118200000D03*
%TD*%
D21*
%TO.C,Q2*%
X132300000Y-159000000D03*
G36*
G01*
X131675000Y-160990000D02*
X132925000Y-160990000D01*
G75*
G02*
X133200000Y-161265000I0J-275000D01*
G01*
X133200000Y-161815000D01*
G75*
G02*
X132925000Y-162090000I-275000J0D01*
G01*
X131675000Y-162090000D01*
G75*
G02*
X131400000Y-161815000I0J275000D01*
G01*
X131400000Y-161265000D01*
G75*
G02*
X131675000Y-160990000I275000J0D01*
G01*
G37*
G36*
G01*
X133745000Y-159720000D02*
X134995000Y-159720000D01*
G75*
G02*
X135270000Y-159995000I0J-275000D01*
G01*
X135270000Y-160545000D01*
G75*
G02*
X134995000Y-160820000I-275000J0D01*
G01*
X133745000Y-160820000D01*
G75*
G02*
X133470000Y-160545000I0J275000D01*
G01*
X133470000Y-159995000D01*
G75*
G02*
X133745000Y-159720000I275000J0D01*
G01*
G37*
%TD*%
%TO.C,Q1*%
X127000000Y-159700000D03*
G36*
G01*
X126375000Y-161690000D02*
X127625000Y-161690000D01*
G75*
G02*
X127900000Y-161965000I0J-275000D01*
G01*
X127900000Y-162515000D01*
G75*
G02*
X127625000Y-162790000I-275000J0D01*
G01*
X126375000Y-162790000D01*
G75*
G02*
X126100000Y-162515000I0J275000D01*
G01*
X126100000Y-161965000D01*
G75*
G02*
X126375000Y-161690000I275000J0D01*
G01*
G37*
G36*
G01*
X128445000Y-160420000D02*
X129695000Y-160420000D01*
G75*
G02*
X129970000Y-160695000I0J-275000D01*
G01*
X129970000Y-161245000D01*
G75*
G02*
X129695000Y-161520000I-275000J0D01*
G01*
X128445000Y-161520000D01*
G75*
G02*
X128170000Y-161245000I0J275000D01*
G01*
X128170000Y-160695000D01*
G75*
G02*
X128445000Y-160420000I275000J0D01*
G01*
G37*
%TD*%
D22*
%TO.C,LS1*%
X133300000Y-147850000D03*
D23*
X133300000Y-122450000D03*
%TD*%
D24*
%TO.C,BT1*%
X139200000Y-149930000D03*
X139200000Y-120570000D03*
%TD*%
D25*
%TO.C,U1*%
X79520000Y-126200000D03*
X71900000Y-143980000D03*
X79520000Y-128740000D03*
X71900000Y-141440000D03*
X79520000Y-131280000D03*
X71900000Y-138900000D03*
X79520000Y-133820000D03*
X71900000Y-136360000D03*
X79520000Y-136360000D03*
X71900000Y-133820000D03*
X79520000Y-138900000D03*
X71900000Y-131280000D03*
X79520000Y-141440000D03*
X71900000Y-128740000D03*
X79520000Y-143980000D03*
D26*
X71900000Y-126200000D03*
%TD*%
D27*
%TO.C,C2*%
X131400000Y-110800000D03*
X136400000Y-110800000D03*
%TD*%
%TO.C,C1*%
X128100000Y-110200000D03*
X123100000Y-110200000D03*
%TD*%
M02*
